/* XPM */
static char *enemy[] = {
/* columns rows colors chars-per-pixel */
"48 48 195 2 ",
"   c #010101",
".  c #010509",
"X  c #0C0C0C",
"o  c #08090B",
"O  c #151313",
"+  c #191615",
"@  c #191A19",
"#  c #201D1E",
"$  c #23221F",
"%  c #061F35",
"&  c #051F39",
"*  c #1E2222",
"=  c #072136",
"-  c #062039",
";  c #0C2338",
":  c #102635",
">  c #162939",
",  c #1F323D",
"<  c #2A2524",
"1  c #332D2B",
"2  c #302927",
"3  c #2A332F",
"4  c #272C30",
"5  c #243334",
"6  c #2C3635",
"7  c #2D3B37",
"8  c #22343D",
"9  c #2E373B",
"0  c #243A3C",
"q  c #2E3B3C",
"w  c #323637",
"e  c #323A37",
"r  c #32373C",
"t  c #333B3C",
"y  c #383B3D",
"u  c #453C39",
"i  c #2E403E",
"p  c #344037",
"a  c #33413D",
"s  c #38433D",
"d  c #072742",
"f  c #072843",
"g  c #092842",
"h  c #052449",
"j  c #122D41",
"k  c #1F354D",
"l  c #233442",
"z  c #2E3C42",
"x  c #223942",
"c  c #323741",
"v  c #333C42",
"b  c #383C41",
"n  c #333E49",
"m  c #243E5D",
"M  c #073468",
"N  c #093669",
"B  c #1C3F6A",
"V  c #2F4142",
"C  c #2D434E",
"Z  c #334142",
"A  c #3A4243",
"S  c #33424E",
"D  c #3A454E",
"F  c #2E435D",
"G  c #2A4358",
"H  c #334353",
"J  c #334854",
"K  c #174C7E",
"L  c #294962",
"P  c #274663",
"I  c #304C66",
"U  c #274E73",
"Y  c #2A4E73",
"T  c #264F7B",
"R  c #26507A",
"E  c #484C4D",
"W  c #4C4F56",
"Q  c #514C51",
"!  c #525452",
"~  c #5B5B57",
"^  c #5B5E5C",
"/  c #58575A",
"(  c #574B47",
")  c #615650",
"_  c #6D5E59",
"`  c #705F59",
"'  c #61655B",
"]  c #5A5960",
"[  c #525E62",
"{  c #53687F",
"}  c #796760",
"|  c #666E7C",
" . c #666766",
".. c #87756F",
"X. c #847A74",
"o. c #917C74",
"O. c #8E847C",
"+. c #9B857C",
"@. c #13508A",
"#. c #0A549E",
"$. c #07539E",
"%. c #16599E",
"&. c #105498",
"*. c #255485",
"=. c #255587",
"-. c #215994",
";. c #225A9B",
":. c #225792",
">. c #0A55A1",
",. c #0B59AA",
"<. c #0B58A7",
"1. c #1A5BA5",
"2. c #0D5EB5",
"3. c #0D60BA",
"4. c #1C64B5",
"5. c #1B64BA",
"6. c #2C66A4",
"7. c #3C7BB6",
"8. c #456084",
"9. c #4E7BAD",
"0. c #417EB9",
"q. c #567CA8",
"w. c #0C66CA",
"e. c #0D68CD",
"r. c #0F64C2",
"t. c #1A69C3",
"y. c #156CCE",
"u. c #1B6BC7",
"i. c #0F6BD4",
"p. c #176DD1",
"a. c #126FDB",
"s. c #186DD4",
"d. c #0F70DE",
"f. c #1472DF",
"g. c #317AC7",
"h. c #2475D3",
"j. c #0F74EB",
"k. c #0D71E5",
"l. c #1172E4",
"z. c #1276EC",
"x. c #1E7EEF",
"c. c #0F79F5",
"v. c #1177F0",
"b. c #1179F4",
"n. c #1A7DF2",
"m. c #107AF8",
"M. c #5D81AC",
"N. c #7B99BD",
"B. c #3F84CB",
"V. c #3B84D0",
"C. c #2681ED",
"Z. c #3385E7",
"A. c #3787E6",
"S. c #2080F2",
"D. c #468ADB",
"F. c #528FD5",
"G. c #4687C6",
"H. c #7D9CC2",
"J. c #6796D2",
"K. c #438CE5",
"L. c #5F98E5",
"P. c #6199E6",
"I. c #838A9A",
"U. c #A28C83",
"Y. c #B2988E",
"T. c #A29E9A",
"R. c #B39D93",
"E. c #AA9188",
"W. c #BEA398",
"Q. c #8C9CAF",
"!. c #8C9DB6",
"~. c #809DBF",
"^. c #959FB6",
"/. c #959DA8",
"(. c #92A1B4",
"). c #C3A79C",
"_. c #C9AEA4",
"`. c #C4AAA0",
"'. c #CEB1A5",
"]. c #CAB2A8",
"[. c #D4B7AB",
"{. c #D4B6AA",
"}. c #C7BABF",
"|. c #DCBEB2",
" X c #E6C5B8",
".X c #E9C7BA",
"XX c #83A2D2",
"oX c #C5BCC5",
"OX c #DEC8C6",
"+X c #D3C6D0",
"@X c #E3C9C4",
"#X c #ECCFC6",
"$X c #F6D3C5",
"%X c #FBD6C8",
"&X c #FBD6C7",
/* pixels */
"D Z v v 9 9 t v n Z b a s t 7 i t a s a b b b v Z s t t a A Z y z S r r t t n b v Z t v t t Z a ",
"v v v 9 c n A t t t z t Z v q a Z Z Z i S Y =.;.;.=.Y F t t V q 9 9 r 7 t t c v 9 v t q z 7 q i ",
"t y v y b Z Z a t t 9 q v 9 t a a p i U t.l.D.H.~.F.l.p.%.S n r t 7 q q r t t 7 9 r y a z i t 9 ",
"a t n v t t t t t a t i z t t t r t U l.b.n.J.T.T.H.x.m.z.;.v t v t i 9 a v t q 9 9 7 7 v v t y ",
"a q 9 r t v Z A a t Z i i a t t r t ;.b.b.c.A.!.(.K.b.b.v.t.z t 9 v i a V Z t t z q q 9 n t a 9 ",
"a 9 7 r q a b c q Z i a i t t q 7 y P N M M M m m N M M N B z v y a s t V i t t z t c c t Z V z ",
"v v t r t t v v c v t a i 7 q q r v b #                 X 5 q a t Z v t i q q V t v c 9 9 z z v ",
"v 9 Z t y t Z t Z v t a t a q r t V ! ..<             O ` Q t a r t t 7 z c v V a 7 c z t n q l ",
"Z e e t v t v s Z q t a 7 7 a z v t / |.).) $ X o + ( Y.{./ z t y v r 7 v z n t y t c y t z 9 z ",
"V q q t r t t Z Z y v v 7 t t q Z 7 ^ `.` 1 u } u < )  X_.W t t y t a a q 7 v t t t t t t 9 9 y ",
"v v a a p e t v z t A t e t e t t 7 ^ X.O   O +.+   X )._.E 9 t t t t t q r y 9 t s y t r i 9 Z ",
"v Z t q a t t t t y t w e r t 9 r 7 _ U.2 1 o. X+.1 $ {._.E q z 9 t t v z z y t y e b t t b y y ",
"b v v 9 r q 9 9 c v q e t t 9 7 7 7 ! '..X.X X'.[. X.X&XW.s y r y t r t A t r t y v a t Z b Z v ",
"y t t t 6 9 t v n a y y a t Z t 9 i J I.#X&X_.E.Y..X%X}.{ t t c v t t t Z v t e e y Z v z q Z v ",
"n v t t r e t v b y r e t r v t V C K %.M.}.$X%X$X.X!.6.&.P C Z v Z v a s Z Z e 6 t b z c 9 t c ",
"Z q q 7 t t t y V v r r r t z s C @.#.&.#.6.(.OXoXq.&.$.$.&.%.*.v Z Z v i V v t r r z b y 7 9 z ",
"Z a t t r t a i t t r e q i v Z R 3.#.#.#.#.&.M.6.$.$.$.$.,.i.s.F t q a t c r t t t 7 7 7 t r 7 ",
"z c y t a q a r t t 7 r t p r L p.v.e.<.#.#.#.r.<.$.>.>.3.k.b.c.4.S v z r 7 c t a q 7 9 q q r r ",
"t t y r t t v t 9 t a e r t C t.b.b.c.d.3.#.,.k.w.$.<.i.v.c.b.b.v.-.c y 9 q c 7 y t q t q 7 a q ",
"n v 9 9 7 t z 7 t t 7 e r S 4.b.b.b.b.b.z.r.e.B.7.3.a.V.A.S.b.b.b.f.Y y Z v z z v Z t t t r c 9 ",
"Z Z z c v Z q e a s t r v ;.v.b.b.b.b.b.b.v.z.B.B.v.Z.Q./.D.c.c.b.b.t.H y t t q z Z v Z y t v c ",
"Z Z Z v t p 7 t v t t q =.z.b.b.b.b.b.b.b.b.b.b.c.c.S.N.!.A.c.b.b.b.v.1.z 7 r t 9 t v t t t b 7 ",
"v t i q r t t t t a t R f.b.b.b.b.b.b.b.b.b.b.B.B.c.b.C.C.b.v.b.b.b.b.l.U t c v Z q Z t e t t q ",
"v z q e 7 q Z V a t I p.b.b.b.b.v.b.b.b.b.b.b.B.B.v.b.b.b.b.v.v.b.b.b.b.y.P b r t t t t s t i q ",
"t v t q q 7 a t Z y { K.c.b.b.b.1.p.b.b.b.b.b.c.c.b.b.b.b.b.z.y.z.b.b.c.Z.8.t v r t t t q Z Z Z ",
"t v v q i q t y t 7 O.+XP.b.b.5.F t.m.b.b.b.b.B.B.b.b.b.b.b.z.:.4.c.n.L.oXX.7 a e r t t t q q Z ",
"q i q t i t t r t 7 ' |.OXJ.p.F b u.m.b.b.b.b.B.B.b.b.b.b.b.z.R L h.XX@X[.~ 9 i r t t a z t 7 t ",
"a t q r y t t t 9 z a ] X.[ G n b t.m.b.b.b.b.c.c.b.b.b.b.b.z.=.z C  .X./ c 9 a a i t v a q 9 7 ",
"A a q v v v t q z 7 c t t 9 t r 7 t.c.c.b.b.b.B.G.b.b.b.b.c.v.R t t Z q c c t q Z v q 9 t t 7 c ",
"t t Z v t b Z v t i i 7 Z t y r 7 5.l.k.k.l.l.g.0.l.l.k.l.l.f.R 7 p t t Z v V c t Z V q q r 9 v ",
"q t z 9 t v q a Z t a i Z s y y t j h h h h h h h h h h h h h k t e t s a v Z v r a v q z z i v ",
"t t Z Z v a z a t v a s v c v y 9 : - - - - - ; > - - - - - - l t s Z q v a a y v v y t v t z z ",
"s t r Z Z v v t t c c i t t t t r j f f f f f j 0 f f f f f f x Z Z Z t q a a t 9 Z v r t t c a ",
"y v a t q t 9 z v 9 t v v t q t a j f f f - f j , f f - f f ; , i Z Z t r 9 q t r a a a y t r a ",
"Z n t q z V 9 z z 9 z v v z q a a j d f f f f j 0 f f f f f g x t a t v y t t t t t r t v n e e ",
"Z t i t z c 9 v V t c t t q r v v > d f f f f > i f f f f f g x Z r t v z v c e e t Z v Z Z 7 r ",
"Z z q a z z c t Z z r y r t t t Z j f f d d f j , f d d d d g , y y t a b v t y t q n v t r r 9 ",
"Z c c v t t v r c z q t t 9 t t q g f f d d f j , f d d d d g , t 7 t t q t t y t 7 q z v r 7 9 ",
"c v 9 r t t t t 9 9 7 v n t q q r > d d d d f j 8 f f d d d f 8 a t Z a t y r r t 9 7 z t c v v ",
"t v c t r a e t 9 9 t r a Z q a t j d d d d f j 8 f f d d d ; x v v v r t n r t z z t 7 r v b y ",
"t t r y t e a t 9 c t 7 a Z Z v V j f f f f f > 8 f f f g f f l b y r 7 q z v v V V b t t t t y ",
"t y y t 7 7 q t i t t t 9 q t n Z j f f d d f j 8 f f f d f f l n 9 q r Z t c 9 9 Z t r 7 z q c ",
"b y t r t 7 t q Z Z a t a t r v b j f ; d d d j l g f f d d f 8 9 t a t z t q t r v a Z t 9 q q ",
"v r t c r t n Z q a 9 t t e t a t j f f d d d g l g - d d d ; 8 9 7 t Z q 9 z b y r t Z c t v z ",
"t v s b 9 v n t t v c y A a a a 7 j d h f f f g 8 f f f d d f 8 t 7 r p a q v z c t t t t v t t ",
"t a c t 7 q t z t Z t v 9 t t t w : % % = = = : 5 - % = % % = > r r t t a V v t c Z s s v v r 9 ",
"Z a Z v 7 7 t y v S v t z c t 6 + . . . . . . @ 4 o . . . . . X < 6 7 t v n t c t Z a t v v r c ",
"i t y v y t s r t y v z q r w X           .   @ 4 o o             * r 9 v v c t t z r c c v 7 a "
};