/* XPM */
static char *result[] = {
/* columns rows colors chars-per-pixel */
"50 50 196 2 ",
"   c #161415",
".  c #191616",
"X  c #1C1817",
"o  c #191718",
"O  c #1B1C1C",
"+  c #251915",
"@  c #2A1B15",
"#  c #221C1B",
"$  c #2B1C19",
"%  c #321E14",
"&  c #331C1C",
"*  c #1D221E",
"=  c #24221E",
"-  c #2B241E",
";  c #39261A",
":  c #1E1E21",
">  c #221F20",
",  c #1D2321",
"<  c #1E2A23",
"1  c #1E2429",
"2  c #1E2633",
"3  c #232324",
"4  c #2A2622",
"5  c #212C24",
"6  c #2D2825",
"7  c #252629",
"8  c #29272B",
"9  c #232A2A",
"0  c #2B2A2D",
"q  c #332D26",
"w  c #332D2B",
"e  c #392A29",
"r  c #243226",
"t  c #253429",
"y  c #293629",
"u  c #27392D",
"i  c #293B2B",
"p  c #36312B",
"a  c #3A342A",
"s  c #222B33",
"d  c #2D2E33",
"f  c #312E31",
"g  c #2E3134",
"h  c #2C343C",
"j  c #333235",
"k  c #393333",
"l  c #32343B",
"z  c #39373D",
"x  c #35393D",
"c  c #3A393C",
"v  c #471D1C",
"b  c #55201F",
"n  c #482C27",
"m  c #542523",
"M  c #4C3523",
"N  c #42382D",
"B  c #593D24",
"V  c #463D32",
"C  c #493A35",
"Z  c #433F3C",
"A  c #503F3E",
"S  c #723231",
"D  c #2D432D",
"F  c #2F482E",
"G  c #31452E",
"H  c #334B2F",
"J  c #384F2F",
"K  c #2D4331",
"L  c #2F4832",
"P  c #304533",
"I  c #354E30",
"U  c #384F30",
"Y  c #375031",
"T  c #3A5231",
"R  c #3F5833",
"E  c #4B4235",
"W  c #47403A",
"Q  c #4B443B",
"!  c #54493A",
"~  c #544A3B",
"^  c #415833",
"/  c #644528",
"(  c #6D4A2A",
")  c #283547",
"_  c #373941",
"`  c #3B3C44",
"'  c #313F49",
"]  c #3C3E49",
"[  c #2D3F50",
"{  c #394348",
"}  c #3F414B",
"|  c #344359",
" . c #334564",
".. c #395770",
"X. c #434344",
"o. c #4C4945",
"O. c #42444D",
"+. c #49464C",
"@. c #494948",
"#. c #4D4C4D",
"$. c #5A5145",
"%. c #444652",
"&. c #474955",
"*. c #484A56",
"=. c #464B58",
"-. c #4A4C59",
";. c #524F54",
":. c #4E535D",
">. c #555457",
",. c #53535C",
"<. c #595959",
"1. c #6A4A4B",
"2. c #7A4240",
"3. c #675A48",
"4. c #74504F",
"5. c #715555",
"6. c #6E604B",
"7. c #75644D",
"8. c #7E6D53",
"9. c #545562",
"0. c #5B5B64",
"q. c #5C5E6A",
"w. c #4C5C77",
"e. c #615E68",
"r. c #4F607E",
"t. c #656465",
"y. c #6B6967",
"u. c #62626D",
"i. c #75726F",
"p. c #646872",
"a. c #696871",
"s. c #66727A",
"d. c #6D757A",
"f. c #767479",
"g. c #A03938",
"h. c #895B31",
"j. c #8C605E",
"k. c #847257",
"l. c #8A7659",
"z. c #937E5D",
"x. c #8D7A60",
"c. c #B46969",
"v. c #B87B77",
"b. c #968264",
"n. c #9B8767",
"m. c #80807F",
"M. c #A38D6A",
"N. c #A7906E",
"B. c #AE9873",
"V. c #B49B75",
"C. c #B69B77",
"Z. c #BDA37B",
"A. c #C3A87B",
"S. c #526483",
"D. c #606C81",
"F. c #697685",
"G. c #6E7C85",
"H. c #747A85",
"J. c #6E7E9A",
"K. c #798491",
"L. c #77889C",
"P. c #7D9098",
"I. c #7A89A2",
"U. c #858484",
"Y. c #898786",
"T. c #8D8C8A",
"R. c #858D92",
"E. c #969799",
"W. c #A1A09E",
"Q. c #858FA5",
"!. c #879AA7",
"~. c #8A9DAB",
"^. c #969EA9",
"/. c #8AA1AD",
"(. c #9DA3A7",
"). c #9AA4B5",
"_. c #A4A7AA",
"`. c #B2B1AF",
"'. c #A6A9B0",
"]. c #B6B8BA",
"[. c #CC8884",
"{. c #C69896",
"}. c #C5AB80",
"|. c #C8AD80",
" X c #CCB082",
".X c #D2B585",
"XX c #E4C38D",
"oX c #E5C593",
"OX c #ECCA94",
"+X c #F1CE97",
"@X c #F4D299",
"#X c #FED79D",
"$X c #FFD99E",
"%X c #FFDAA0",
"&X c #D5D4D1",
"*X c #E2E1DF",
/* pixels */
"I I J U U ^ U U Y Y L I Y Y Y Y Y Y Y T T ^ Y H I H H J H I Y Y I I Y Y H F Y Y T R H H H J Y U J I ",
"I Y U T Y T U U T Y I Y Y Y F I Y Y T H H I G I I G D G H Y Y U Y Y Y I F F H T R Y J H Y I Y Y T H ",
"I Y T J J J I U T T T T Y L F I I i < * f X.>.<.0.<.X.3 r U T J I Y H H H Y F Y T T Y Y I I I Y ^ I ",
"Y Y J H D H G I Y Y Y T Y L K 5 O o . O 8 f ` %.:.0.u.,.3 y U J Y Y I H H I H I T R Y U J J Y Y ^ J ",
"J Y H F F H F Y I F I T T I K y r : .   . o X # 8 _ &.:.*.3 r i r 5 5 y K I I I Y Y H J H Y Y R R Y ",
"I I J I I Y T Y I I I T I I i 5 * 8 c +.;.-.*.O._ d _ &.*.z O 3 j z c j : < L I I J H U Y T T T Y I ",
"Y J Y Y T R T T I U T T I 5 : z 9.u.u.0.,.:.-.-.-.*.%.&.*.&.} &.-.9.q.a.0.0 < I Y I H Y Y I J J H H ",
"I I Y T T Y T Y U R ^ I 5 0 ;.e.9.-.*.*.&.*.*.*.*.*.*.*.*.*.*.*.%.` ` %.q.u.8 5 H H I I I I I I U U ",
"Y I Y T Y U Y U ^ R H 3 0 ,.,.*.&.*.*.*.*.*.*.=.*.*.*.&.*.*.*.*.=.] l 7 0 -.+.: G Y Y T I I I U U Y ",
"I I Y Y U Y T U U U 5 > O.O.] &.q.q.:.*.=.*.*.=.*.*.*.*.*.*.=.=.*.*.*.] 8 : 0 : H Y Y Y I D I U I Y ",
"Y Y I I T U T Y I u o 3 3 3 *.u.9.*.=.*.*.*.=.&.*.*.*.&.=.-.=.=.*.=.*.*.%.f o O I I I I F L I I Y Y ",
"I Y Y Y T T ^ T I O o   3 0.u.-.=.*.*.*.%.%.` %.*.*.%.%.} ] ] %.*.*.*.*.*.&.d O G U Y Y I D I T R R ",
"I I ^ ^ H J Y U t < 3 = 0.u.*.*.=.*.&.%.` l x %.] _ l 0 > : > l %.&.*.=.*.*.*.0 5 T R I H I Y T T T ",
"Y Y T T H I Y U K D * *.p.-.*.*.=.&.] l d d l l l > O # >     : h %.&.] &.*.-.*., G I G H J U U R T ",
"I I Y R I Y T Y I r 0 p.,.&.*.*.&.] l f d l f 7 O 8 <.T.W.T.;.> > ` &._ ] *.*.9.d r H G I J I I I Y ",
"I G I Y U I Y T F * #.q.&.*.*.&.] l d 8 l d >   k f.`.&X*X*X].y.O d ] x l &.9.q.@., F I I Y I I U Y ",
"D I Y Y T Y I T i > e.-.*.*.=.%.l d 8 d 8 O 7 7 7 6 c #.y.T.E.Y.j 3 l h l { 9.H.e.: G I I Y J Y Y Y ",
"H I ^ R T Y I Y i 8 0.%.=.=.&._ l 8 7 7 O @.x.Q.Y.y.Z O     O 3 O o g d d O.-.f.a.3 D I Y I I Y Y Y ",
"H I I Y Y I Y T r k O._ *.*.%.g d : : o O w f y 6 6 6 6 q e a q 4 O d 8 8 ] -.u.>.8 i U Y I T T Y U ",
"H D F Y T Y T I 5 f 8 ] *.%.` g 8 o   o q ~ 6.8.x.n.N.V.C.C.z.3.~ - , # 7 ] -.e.7 O i I J U Y U U Y ",
"H H I I R U I T 5 O O ] =.=._ d : o f 4 4 3.A.+X+X@X@X+XM.E q N ! p     > ] *.e.3 . u Y I I I Y T U ",
"Y I J I I I I T 5 o O } *.%.l d o Q z.N.b.E M.$X$X$X$XXX! 8.C.}.N.~ . # 3 ] -.e.> . i Y J I I R T T ",
"I I I J I I I Y 9 O O ` -.%.l 8 o k k ~ k.A.OX$X$X$X$X@X.Xn.3.C k - W C > ] -.9.> o u Y I J Y Y Y I ",
"I I Y J T Y I I t t : l *.] l : #.F. . .*.C .X$X#X#X$X@X6.@. . .r.d.V V : %.-.#.* y i Y Y J Y Y U H ",
"R T R Y Y Y R Y u I < d *.} l 3 E.I.*.) L.y.b.%X#X#X$X.XQ (.~._ [ ).O.$ 3 %.:.` 5 Y F H Y I T T Y H ",
"T Y Y T Y I T Y I I i : %.%.d d '.I.,.s L.m.7.$X#X#X$XA.$.).D.0 ) ).<.  0 &.-.7 i T Y J Y R R Y Y T ",
"T U Y Y I I Y H J T I * g &.d > _.J.K.w.).i.l.$X$X#X$X.Xo.].S.K.S.].o.  d *.] , I Y T R T T Y Y T ^ ",
"U U U I H I H H I Y I i : ] l   >._.L.Q._.Z A.$X#X#X$X+X~ m.).I.~.U.p 3 l %.3 5 U T T T Y R T Y Y U ",
"Y T T Y F I I H J I J I * 9 l O a Q o.o.E z.@X$X$X$X$X$X X! o.o.o.! 3.- x s * D U U I Y I Y Y Y I I ",
"Y T T T I Y T Y H H I I D O 3 . p l.Z. XXX$X$X$XOXXX@X$X%XOX.X|.Z.x.q o 7 O K Y Y U I H F I H H H J ",
"Y T Y T R Y R U Y Y T T I D O   * - ! l.Z. XXXOXXXXXOXOX.X XB.k.V * *   O D Y Y T Y H G I H I I H I ",
"Y Y I Y Y Y T I I Y J H Y R u O D y     + - q a V E V N a $     O I r O D Y Y T T Y I F Y Y I H I U ",
"I I L Y T Y T T Y Y Y Y T R T i r , d O X m S o.> k n 5.1.+   7 > y u D L Y Y Y I I U Y T I I J H Y ",
"I I L Y Y Y Y Y T T Y T T T Y I * *.:.    @ 2.{.g.{.v.j.C X   d ,.: L T Y Y I I I Y T U Y U H J U Y ",
"Y F F Y I Y Y Y T T I T U I T r y K.x l x   # A m 1.X.+ & v   : s.{ < I Y Y L I I I J U U J I H J I ",
"I F H Y J I J Y T T T T U R I < R.!.9 :.d.{ O   > f l : b S @ o s.^.d u F Y I I I J H J U J J J Y I ",
"F I H H H J I ^ ^ T Y I I I u 3 (.(.7 K.!.P.:.  O <.^.@.v g.m   t._.0 5 I T Y I I J Y R U Y J T T Y ",
"H Y J Y Y Y ^ ^ Y U U H I L , 3 6 y 8 P././.s.1 ) : P j C [.4.  O 7 q , K I T T Y Y R Y Y Y Y Y Y I ",
"J J I T T Y R Y U U I F U r a n.b.q ' P././.F.s { g 1   e v.j.o X 7.B.~ < I Y Y Y Y Y Y T Y Y T Y I ",
"H H Y Y Y Y Y I H I I I T 5 3.oX XE } !./.!.p.9 { <.s o e c.S X . b.@X8., I Y I F I I I H U T Y I I ",
"H H I I Y Y I I I I Y U Y y w A.OXE :././.G.P s { { ) O + b & *   l.C.q r I I I I I I H H I H H H J ",
"I H H I Y I I I I U U I Y I < 6 ~ = { K.K.u . s ....| O 7 = g %.* - 4 9 I I I R I I J I U J H H H U ",
"H D H I J I I I I I I U T Y F O . .   * O - X X 2 2 1 O 3 * = O * r G U U T T T H H I Y Y Y H U J I ",
"Y T I I I U I Y I I I I T H Y t = r * - / h.( ; * * $ B / ( M * F I I R I T T Y H H Y I Y I H U I H ",
"Y I D I I I J I Y I H H H H Y H Y R D . M B B - * D X M B M - = I Y Y I I T T Y I Y I Y Y H I Y H I ",
"J I F H I I I I I I F I Y H Y T R T D * + % @ . D F * X % @ X i I Y I D I T R T Y T I Y Y I I J H H ",
"F F H J Y U Y U Y Y I Y R Y Y T R H H = + % = * H T y X % % O D I Y I H Y T T T Y Y I Y I U R Y I H ",
"F H Y Y Y T Y Y Y R Y J I R T T Y Y Y H * * = F H J J r * < r I I I I I T T T T I Y Y Y U T J H I H ",
"G H T T T T Y Y R Y Y H I J Y Y Y T Y U U H U Y Y Y Y I H I I F H I I I I Y T Y J H I Y Y J J H F H ",
"Y Y R T Y Y Y Y Y J Y I I Y Y Y T ^ ^ T Y U Y Y U U I I Y Y I I I I Y I H Y Y Y J Y I I F H U Y U Y "
};
