/* XPM */
static char *floor[] = {
/* columns rows colors chars-per-pixel */
"48 48 24 1 ",
"  c #2E3537",
". c #2D3A36",
"X c #2E363C",
"o c #2E3B3C",
"O c #303737",
"+ c #333A37",
"@ c #32363C",
"# c #333B3C",
"$ c #383B3C",
"% c #2E403D",
"& c #33413D",
"* c #38423C",
"= c #2E3640",
"- c #2E3C41",
"; c #333741",
": c #383743",
"> c #333C42",
", c #383C42",
"< c #343E48",
"1 c #2F4042",
"2 c #334142",
"3 c #384241",
"4 c #344048",
"5 c #3A454E",
/* pixels */
"52>>;X>;42>&*&oo&&&&343<422;#3>>->$#%$4>>2>&X&1%",
">>;##>3&#>-#,>.&>%&&>;#####>#&-#oX@.X@>>X#$+o#>o",
"##>;22>&#>-#>Xo&&&+#&#+#>#@&+#>2@oo.###X.@#%1%#X",
"$2<#$$o#+o#%->$o#+@o+X.;>$O&#$#>>#%o>o#-X..o;$#$",
"2-X@#>33&>&%o2#-@$&%--o%o-X&++X-.;&>12#>--;X;#o-",
"&..Xo&>>o2+&&o+o@@2;#-%&$.X-1+#-#3&#%o>#=#>@X>1-",
"&=o$$#>>#>+&&%%+#>>;>o%>#o.&3+%2&>3#1>o1##>--<--",
"#X>#$#>&>->&o#o@#2-XXo%&>322>>#&+#X.>o12+o-X#>-=",
"2@+#>;;*2##2o.&->&##@+#&$&22o--#>,@.;->>$@>##-o-",
"2o+&$&X22#32ooo#>@&o1>$###$$->&o$#&2&.>>&;$$oXX;",
">>&o&+$&>#$#+++++#o%2&#oo;#22-o#o@#;o$#X#&$@+##$",
">>#%&+@#o;#.$+#X##1#>&X>-#@;2-%;-+#>;X##+$>$>3>$",
",2##.XX-;>$@$+.o.#2&-o#;>+.>##$@#$.$2#.@$,2#322>",
">>>;.X#>4$+$3o-#Xo2#>2@#-1X&###;;>-+&>-@+$&#-X-$",
">###@##>-##+@#>$%&#>22#@oXo>&%%3>&3>*2>$.+>>#X##",
"2>.X@&+$1>@#.X2&&3#$>$&3&o>&##>>$22>&1>$o@->#X>o",
"2-#%@+&%X>@+o&-2>#&$#-12>#2-;;>-#X->o;##+@@..#X@",
"$X$$>#%@+o+++o#%o#@X.o>o.;->#+&@#>>>.@#o&-o.o##@",
"&$$#@$#&-##@#X#o2$X#++-#&;#X#+##.###-#XX;##.oX&X",
"<>XoX-#oo#o#$>2#>2#>3&1oo>$+@$#$+@+#2>;%22#&>@#-",
"21-#>o&@#*@+@##o@>%>;&&o%@@###X$$#;>&;#o>>>3$#>@",
"4-2--#.#,&&+$#;&&#;>>..@#=>$#$;2o##X@.+#X#>>+$>X",
">2%o+$+&#$#+$>,2&&>-#@#.X##@#+#*2>#X@#-;2%>.+##1",
";-o+oo2%1>&o+@>>X.#>#&&+;@.$$@###,2>#X$$#X$2&+%o",
"##X%oo$>22&>3&>1X@+++$&+-;.@##>>>,Xo%o#>##+2o2#2",
"2>;#%+##;&&&-oo-;#&+@>>11X%>>;>o$#$X1>$&+@@@#2o2",
"o%@#1X###+&#14%#, .$$X42ooo%X>-o-#+o.@oo.#>&o#.o",
"#%%.$$@+X-#>211>>#+&#->+oo%oX-&>oo@#;#@#&-2>+#.#",
"3&+->>$oo.;#2+$@.o&2#*+;+>>.#X#@##1-;@-&>>o-o..;",
"#o3>$>2>%o%o2@$$@$>3##&2+>>$>##+o$&&2#1o>&-o;#X1",
"o;;o>&o1>>&%2&##&>>@@+o&&o-Xo@##++&&%>$>##3o-;#2",
"+&2>&#>&#,&&>$$#.;;$>>&$&@;##.X$>&3#-&3,>>>+#2>-",
"*#$>2->&.;#o$#>@##>32>#$oX;$+@#.232#X&2##$>@#X-#",
",>%>oo;-=o@>>&X@#o-&&o.o&$;oXX%o%&>$@Xo#X&&2$#.*",
"4>#o->>--@->>#%&###2o>3%&#X;X&X22&2;;###++-->;@.",
"&&o-1;X-1#>##oX>;-$2o+X-&&##&2>2#oo#-;##$o-332@#",
"3-.1--;X%-#@#+-$&2#+o%-#+#X2#-%%>$#$>>$##o--#@ @",
"2;->##;$;-o>#XX-+@#X&o;$#o$#>X->#X#&+##$$o-%2@XX",
"#<-@##$#@oo$>###o&+&-X-@;>#3#-$+%%2##>$@#Xoo;>;>",
"#>@;@#+##X#@>&>##>$#X##o#$X&#o>&$#>@X>>$--&o@,>$",
"#@#$$.&&X>;.221#--o2#-Xo#$#+@.o;>$@o%1;#%1>$+>#>",
"$$$#..+%%@$+o%&23$>2Xo3;+$##3&&;;;.#>#>X@2$#.-X#",
",#X#@.-o#&2o%.$>>;>>.o#->>1&&#+.X;&#--##@$2%#ooX",
">#$;@--1X&-@$#&$##;>#-%+-=>#&@++.o#-.o->$@X2$>2-",
">#*<Xo2$#-#><&$&OX#,#oooX#>>o+>o.O@&&o><X##3>>>#",
"##>#.o>>$2$>#>##@##>&ooooX;;o-1-$@++2&##>2&&$;X=",
">2>>Xo>$>>>>--o$$-1##-->+&##1#2&$@.#;1>X;2%#>>+@",
"-$$&$+&$X,>>#X$X=o+>-.1&+#$>-#o%-X-#>>>$>XX$:=#>"
};