/* XPM */
static char *result[] = {
/* columns rows colors chars-per-pixel */
"50 50 186 2 ",
"   c #161515",
".  c #191616",
"X  c #1B1917",
"o  c #171718",
"O  c #191718",
"+  c #1B1B1C",
"@  c #221916",
"#  c #2B1C17",
"$  c #231D1B",
"%  c #281F1B",
"&  c #361F15",
"*  c #391B1B",
"=  c #1C221E",
"-  c #24231D",
";  c #2D271B",
":  c #372418",
">  c #3C2D1D",
",  c #1D1E21",
"<  c #201D20",
"1  c #1D2322",
"2  c #1E2A24",
"3  c #1D2A29",
"4  c #232324",
"5  c #292722",
"6  c #212C25",
"7  c #2E2923",
"8  c #252529",
"9  c #29272B",
"0  c #26282B",
"q  c #2A2A2D",
"w  c #322D25",
"e  c #233126",
"r  c #273926",
"t  c #23342A",
"y  c #263A2D",
"u  c #2A3C2C",
"i  c #343226",
"p  c #33302D",
"a  c #3D362B",
"s  c #3D3928",
"d  c #262E36",
"f  c #2C2D32",
"g  c #2E3135",
"h  c #273C31",
"j  c #2F333B",
"k  c #333236",
"l  c #32343B",
"z  c #393839",
"x  c #3A3A3C",
"c  c #432417",
"v  c #45311D",
"b  c #523E1F",
"n  c #582323",
"m  c #463728",
"M  c #493F33",
"N  c #483F35",
"B  c #573837",
"V  c #2D442E",
"C  c #2F482E",
"Z  c #30462E",
"A  c #334C2F",
"S  c #384E2F",
"D  c #2C4433",
"F  c #2F4830",
"G  c #304732",
"H  c #354E30",
"J  c #384F30",
"K  c #375031",
"L  c #3A5231",
"P  c #3F5833",
"I  c #554122",
"U  c #4C4235",
"Y  c #47413D",
"T  c #4B4339",
"R  c #544938",
"E  c #544A3C",
"W  c #415833",
"Q  c #62523B",
"!  c #353740",
"~  c #373A43",
"^  c #3A3C44",
"/  c #3C3E49",
"(  c #403E45",
")  c #3C4246",
"_  c #3E414B",
"`  c #3A4456",
"'  c #3B4A64",
"]  c #3D5375",
"[  c #434144",
"{  c #4B4743",
"}  c #42434D",
"|  c #44494F",
" . c #4B494C",
".. c #574B4B",
"X. c #5E5140",
"o. c #444652",
"O. c #464955",
"+. c #4A4A57",
"@. c #404959",
"#. c #494A58",
"$. c #524F55",
"%. c #4E575B",
"&. c #535255",
"*. c #595653",
"=. c #52525B",
"-. c #58565D",
";. c #5B5A5A",
":. c #6E4444",
">. c #764544",
",. c #635644",
"<. c #665945",
"1. c #695B48",
"2. c #70584A",
"3. c #6D5C5C",
"4. c #6E604D",
"5. c #73644C",
"6. c #61605F",
"7. c #7D6B52",
"8. c #4C576B",
"9. c #545662",
"0. c #585763",
"q. c #565C65",
"w. c #595A65",
"e. c #5E5D69",
"r. c #546063",
"t. c #59646B",
"y. c #676562",
"u. c #63626C",
"i. c #75706D",
"p. c #676B72",
"a. c #667279",
"s. c #97722C",
"d. c #8B5453",
"f. c #806E55",
"g. c #857258",
"h. c #8E7B5D",
"j. c #8B6263",
"k. c #937E61",
"l. c #9A8563",
"z. c #9F8768",
"x. c #9F8A6A",
"c. c #A38D6A",
"v. c #AD946E",
"b. c #AF9771",
"n. c #AF9874",
"m. c #B29A73",
"M. c #BBA277",
"N. c #BDA27B",
"B. c #C1A77D",
"V. c #C7AA7F",
"C. c #4D6384",
"Z. c #586D90",
"A. c #5C7091",
"S. c #6C7B83",
"D. c #73848E",
"F. c #7A868E",
"G. c #758493",
"H. c #778896",
"J. c #7D8B9A",
"K. c #898686",
"L. c #888888",
"P. c #8B8D8C",
"I. c #86929B",
"U. c #989895",
"Y. c #889DA9",
"T. c #929AA4",
"R. c #9BADB7",
"E. c #A2AAB8",
"W. c #B5B7BA",
"Q. c #C6AB81",
"!. c #C9AD81",
"~. c #CFB385",
"^. c #D0B485",
"/. c #D7B789",
"(. c #D6B989",
"). c #DBBB8B",
"_. c #E4C390",
"`. c #E8C794",
"'. c #EAC993",
"]. c #F5D39B",
"[. c #FAD69D",
"{. c #FED99E",
"}. c #FFDBA1",
"|. c #C8CACC",
" X c #CED1D7",
".X c #D8E1EA",
/* pixels */
"H H S J J P J J K K A A K L P C K K P K L P H G K H A H H H P S H H K K A C K K P P H A A H L H S H ",
"H K S L K L J K L K F K K K C K K K P K L P H H A A S G A K K A H K K H C A A K K K S A H L K L P A ",
"H K L S A S J J L L K L K C C F K K K S H H H H F D D G H L K S J K H A A K C K L L K L H H S L P L ",
"K L S A C A Z H K L K K K F K C H H K H G D h 3 3 1 4 1 1 y H S K K H A A A A K L P J H A H H L P A ",
"S K A C C A C H H F K P K K G H K G t 8 1 , +   O p +.-.+.8 2 G K K K L K H F K K K A S A H H L W H ",
"H H H H S K P H H H K K K S A u 3 1 f ( +.-.-.=. .k p [ u.u.q 2 H K L J K K H K H H A L S P P P L A ",
"K H K K K P P K H K P K K H y 1 k $.e.e.w.0.0.0.e.e.-./ ^ 0.e.8 t H K K K K L K J H S K H H H H A A ",
"K H H K P K K S J L P P K t O 9 k q 8 9 f ^ O.#.+.#.#.=.+.o.9.&., 2 6 t y D G H A A G K H A H H H S ",
"K K J P J J L J L L L H 2 o o . O 8 l / o.O.+.+.+.+.+.+.+.O.O.9.+.^ x z q 4 , t G H K P H H H J H L ",
"H H H K J L J L J L G 3 .   + f ( +.#.+.+.#.+.+.+.+.#.+.+.+.#.#.=.9.w.e.u.u. .4 u J H K A A G J L H ",
"K K H H L K L K H h 3 O . 8 / O.+.+.+.+.+.+.#.+.+.#.+.+.+.+.#.+.+.O.+./ ( =.p.$.1 V H H C F H J L L ",
"H K K K L L W L D t h + 8 o.#.+.+.#.+.+.o.o.O.#.+.+.+.+.+.+.+.#.+.+.+._ f < g =.f e K K H C A L L L ",
"A J J W S S K H D F 3 8 } #.+.+.#.O./ ~ x l ! O.+.+.+.+.+.+.+.+.+.+.#.#.o.q O < 8 - K L S H K L P L ",
"H K W L A S K H F h + ^ #.#.#.+.( ! f 9 8 < f / +.+.+.+.+.+.+.+.+.+.+.#.#.O.9 o . + V A A A H K K P ",
"H K K P H K K J H 2 q +.+.+.O.! 9 $ + 9 z % 8 ~ #.#.+.+.+.+.+.+.+.+.#.+.+.@.( < 6 6 u A H S H S H K ",
"G A H K K H K P D + / @.+.} q + +  .P.W.|.&., ! o.o.+.+.+.+.+.+.+.+.#.#.o.+.+.l 1 G F A H K H H H L ",
"G H J P L K H L t 1 O.#.^ 4 5 q - k *.i.U.y.O g / ~ +.#.+.#.+.+.+.+.+.+.( ~ / ( , y H J H K S K K K ",
"G H L L L L H H 2 g O.l + z L.L.3.g     O $ O f j ! O.#.+.+.+.+.+.+.+.+.( l ! / d 0 H H K H K K P K ",
"H H K K K H K H , x z O . - q 7 7 w i s N T - 8 j f _ #.+.+.+.+.+.+.#.#.( ! j j f 1 H J K H P K H H ",
"A C F K L H L F , 9 + - 1.f.g.4.X.R ,.h.N.n.a 4 f f / #.+.+.+.#.+.#.+.#.( ~ j < 0 1 G H A S K J S K ",
"A A H H L L K F , o , i V.c.U ; R h.M.).'.B.U 1 9 9 ^ #.+.+.+.+.#.#.#.#.^ l j 4 + = Z H H H K K J K ",
"H H S H H H K H + 2 h a ).Q <.m.~.(.`.}.{.^.,.+ , < ~ #.#.+.+.+.( @.#.#.! l l 4 . = H K S A H K L L ",
"S K H S H H H H 3 G V w ).V.k.{ x Y U b.}./.2.o O < ! O.#.#.+.+.~ ~ #.o.j j j 4 . + G K K S K H K H ",
"H K K H L K H F D H F 5 V.c.x ' ] G.U.T /.).7.o o 4 ! #.O./ O.( l ! / ~ j j j 4 . 1 H K K S K P K A ",
"L P P K K K L L H A F 1 b.5.%.` J.Z.|.6.k._.g.$ + 4 ! O.^ j _ ~ l l l l j j j 1   2 H A H A K P J A ",
"K K K L K K P K A C K 1 l.5.9.8 $.C.|.K.f._.k.T p 4 x ^ j j ~ j j j j j j j g , 2 t K A L P P K K P ",
"L J K K H K H A A P K 1 c.f.q.@.8.A. Xi.h.'.c.k.w 8 l j j j j f j j j j f f f , V D P P L L K A K W ",
"J J J H H H A V H P F - M.M.{ T.S.E.W.M V.].Q.x.5 9 l j j j q f l j j l 1 4 4 1 H J L L L L P K S H ",
"H K P K C H A H S H V = B.].2.{ e.*.N k.].}./.k.+ f l j j g 4 g j j j q X + + y H K J J K K K K H A ",
"H K P K K K K K A A G = c.}.'.M.b.m.~.}.}.{.).2.+ f j l j 1 9 j l j f O   o 2 H K H G A A A A A A S ",
"K P K K L K P K K K L 6 U ).}.}.}.}.}.[.}.].!.U , l l f 4 + j l l 9 + 6 = = C K P K A A H A H A G K ",
"H H H K P L K J K K K C = U b.`.{.}.}.{.}.).c.; 8 l f , O q l f 4 + t A 2 V H K L K H C K K K A S K ",
"H G H L P K K K H P H K K e - U 5.l.m.v.z.h.,.X q 4 O . < q < O 1 V K D D H A K A K K K P H H A A K ",
"H H F K K K K K P H H K P K A r - = = - - $ X . .     . O . + @ u K K P K K F K S K K K J S S S H K ",
"K C F K K K K H H H A L K S L P P Z = 3.B . + 8 X ) k O .   b s.s C K H K K G H H S S H K K S C S K ",
"H C C K S K A K P K P L K P K P K u 8 ..@ 4 r.) q H.a.4 k 5 ; I i H K K C K K H H S S S L S S S H H ",
"C K C A A S S P W K L H A H A K H y   +   | H.j O.Y.D.G 9 8 5 k r L K K H K K J A A L P S L S L L K ",
"A K A S K P P P P K S A S H A K H 6 * n + D.J.5 t.Y.G.%.O O + 4 V K K H H J K K L K P K K K H H K K ",
"S S H P K P P K S S C H K A C K H 2 :.>.+ a.D.8 F.R.I.a.< [ 4 + V K K K H H P K L K L K H P L P K K ",
"C S K K K K H A A A C K L K K K C 1 j.2.  z t.q W..XW.P.q x X + C K P K K H H H C A H A C H L H H A ",
"A S H H K K H S A A K S K K S H V = d.B z N = + x  .) p X o   2 H K L K K A S A F A H A A H A A A H ",
"A C A H K H H H K K L H H K H A G + * # f L.;.X Q ,.<.<.- g q e H J K L K S A L K K A H L H A S S H ",
"A C H H H S H H H H H K P K A A G + 2 1 j q z 7 N.).).~.s %.| 2 H G K P K K K L A A L H L H A H S H ",
"H P S H H H H K H A H K K H K K u , d ~ G.q.k - l.].].c.- O.l 2 H H H P H K P L H C K K H H A L H S ",
"H K C A H S A K K H A Z C H H A V = + + g x l X - E R ;   X = r H K K H A P P H H K L K K A H L A A ",
"A G A A H H H H H K A H S A K P P H V = + % . : m v v v   2 K L H K S V C P P H K L H K K H H H A A ",
"A C C H K K L K H K K K K K K P P K A e X # @ @ > : : % X V K K K K S C H K L L K K H K S H P K H A ",
"C A L K K L J K K P K J K K P H S H H u @ c & @ : c : # 2 K H F S K A A H P P L H H H H H P S A A S ",
"A A L L L P K H P K K A H A K K K L K A - ; ; - > v > - r P K C A A K H H K P K S K K K K S S A C A ",
"S S P K H K K S K K K H K K K K L W W L J S S S A S A A K A A A H H K H A K K A S H A H C A H K K K "
};
