/* XPM */
static char *coin[] = {
/* columns rows colors chars-per-pixel */
"48 48 80 1 ",
"  c #2E3634",
". c #2E3B37",
"X c #2D363C",
"o c #273A3E",
"O c #2E3B3C",
"+ c #323637",
"@ c #323A37",
"# c #32363C",
"$ c #39363D",
"% c #323B3C",
"& c #383D3C",
"* c #2E403D",
"= c #34413D",
"- c #39423D",
"; c #564116",
": c #43443C",
"> c #45483C",
", c #4B4E3E",
"< c #504C3E",
"1 c #4F523C",
"2 c #5B5937",
"3 c #56553C",
"4 c #5C563C",
"5 c #5C5A3D",
"6 c #62573A",
"7 c #635C3C",
"8 c #65603B",
"9 c #73653C",
"0 c #7A6D3D",
"q c #2E3C41",
"w c #323741",
"e c #383640",
"r c #333C42",
"t c #393D42",
"y c #333E49",
"u c #2E4142",
"i c #334142",
"p c #384243",
"a c #344844",
"s c #464541",
"d c #404D40",
"f c #4E5041",
"g c #545340",
"h c #595540",
"j c #595940",
"k c #655D42",
"l c #947224",
"z c #836E3A",
"x c #83723C",
"c c #8A743A",
"v c #8D793C",
"b c #937D3B",
"n c #A07A28",
"m c #96813C",
"M c #9E833E",
"N c #AE8629",
"B c #B2892B",
"V c #BD932C",
"C c #A0853C",
"Z c #A7893B",
"A c #AD8D39",
"S c #B6933A",
"D c #BB9639",
"F c #BC983B",
"G c #CA9A31",
"H c #C59D39",
"J c #C89E3A",
"K c #CCA239",
"L c #D6A433",
"P c #D5A939",
"I c #DDAE39",
"U c #DEB13A",
"Y c #E5AF38",
"T c #EAB736",
"R c #E6B138",
"E c #EAB438",
"W c #EEB939",
"Q c #F2BD39",
"! c #F7C139",
"~ c #F9C339",
/* pixels */
"y%twX%rrptr-a@O=*--iyyptpiq%pprqqr#OOry%ir&%@iia",
"i%r%qyp@rqO%r%O===OirX%r%Orr%%q@OO@%$tw%O%OOOOOi",
"%wq&pr=%%O%qwO=&=.%@=@%r%%&=@t%rOOOw%%OXO%=q*%%r",
"&yr@r%i@%%*qrrO%@%O@*.%%%O%%&&@r@**%wOi@  Orr%&=",
"oX%@rtp-%i=.iq@w@@=OqO=r%X%*OO%O%%=i=riqqOXw%&qr",
"O.#O%rrqr=*=O&O%%iq&q*%r%OOiw@qw%=@uOr@wOwwOwuqr",
"wO%#%&wwq===OO%@rwwwO*uO%%Oi=O==ry@*qqu=iwqOyqq%",
"Xq&$%=iiwq==%%OOiiO#O.u===ipw%=@&%%uwOu=@wqXyOoq",
"O=%&rr&iq%rO.=Owpr%@%%%&&=r&qwr&i@%qqqw&%wr%oqq%",
"OO%@%%rp%&p%O%%i%%Ouir%%%&rOqr=%$%i%O%&%%&&&X@wp",
"rr%%%@iqr@%O@@#%@OOirrO#q#%i%qOr#%%q%%%%%%$O%&&p",
"y=%*=@%%r& %+@O%%qr%=>353:ry%OOq@=wrX%&@&$t@trri",
"%u%X@@OrrrO%%@O@O--2ZUEWEPMg&&##&@%irX@$ri=rprrt",
"%rrX#qqyr@%&%r%O*=0U!RDAJE!K5%owrOO=i%%@&tOrq.&r",
"%%% $@rt=%$@Xw%q*,PWM5:&d5S!Fd%wqiq&iu% %wqyw%wr",
"qO.O%@%r%<6665588bQH97k6440RWx677kk75ftO@O%w@%uq",
"q%%%@==O9JYYYYYYYRTRYYRYYRYRERYYYYYYRH9=%@O@&@%r",
"%@&r%OO6KRYYYYYYYYYRYYYYYYYYYYYYYYYYYRK1%%..O@#%",
"r$%@#wOcERYYYYYYYYYYYYYYYYYYYYYYYYYYYYYvrrOoX%Oi",
"iOq%OOovWYYYYYYYYYYYYYYYYYYYYYYYYYYYYYRvi&@r#%O*",
"yOrwi%ObQQERYYYYYYYYYYYYYYYYYYYYYYYYRWWx=rir%tw=",
"*rrrr@ b~~QWRYYYYYYYYYYYYYYYYYYYYRRW!!!x=rr@&tOO",
"q=O.@@%b~~Q~QWRYYYYYYYYYYYYYYYYYRWW!!!QxurO@%%%y",
"qO*@Oiub~~Q~!QQWYYYYYYYYYYYRYYYEQ!!!!!Wz%%%=@=%q",
"iO%OO@%m~~~!!!!!QERYYYYYYYYYYEQQ!!!!!!!xO@&Ou-iu",
"rw%**@Xb~~!!!!!!QQWRRYYYYYRRWQ!!!!!!!!Wx%O%w=%*i",
"*O%%q%wb~~!!!!!!!!!QWRLnGYEQ!!!!!!!!!!QxO%=O%OOw",
"*OO#&%Xb~!!!!!!!!!!!!QB;lQ!!!!!!!!!!!!Qx%r&%%OOw",
"i%%rr%.b~~!!!!!!!!!!!~V;l!!!!!!!!!!!!!QxiOOO%@wt",
"O&trypob~!!!!!!!!!!!!!TNL!!!!!!!!!!!!!QxiqOqO@qr",
"%ro%&%om~~!!!!!!!!!!!!~Q~!!!!!!!!!!!!!Wxri%Oqrru",
"%iyq=%qm~!!!!!!!!!!!!!~!!!!!!!!!!!!!!!Qx&r%O&qiq",
"@%riOiqxQ!!!!!!!~Q~!!!!!!!!!!!!!!!!!!!Q9%p&O%wr=",
"-%r%%%qfK!!!!!~!~~~~~~!!!~~!!!!!~!~~!!K:&@%r%%%-",
"p%OuqqqqkFIUIIRUIIUYIIUUUURUUIUUUURUIS5%@O%rwO%u",
"=O*qwr%OOsg433h5334j43g525335j5g333jg>@@%rpui%%r",
"wOOqqr#qqww#XO#rqq@oOqOOOO%qoq*qrXrqq%%%%ry%%XXr",
"ww%%@reeq.O&X%%O%%%%Ow#%r@%%%q&&XO%$%@wrOOOi%#%r",
"rrq%-%%#qO%rr@%O@%OiOq#@r%r&ww@&Ou&Ow&%#%OO%wtwi",
"rrq#%O%%#q@OriO&r%%Ow@o%&O%rqOiiir%@rr&%q%OO$y@&",
"%%r% ==Ow%%O=u%rq=r%qOO%&&=@@O@r%$%Oiw%%irr%rO$r",
"%$$@ *@%O@%%*=ip%rir%iw$%r@r==#rwOOir%qOq&%@%oOw",
"%%@&OOOqiiO%*#&twrr&O%wrtq%=%@ Xw%&qO%%#w-*rOqOw",
"w$w#%rur%r@r%%i%%%r=O%%orqr%%%%@.O%%Ooiw%%i%%iwu",
"%&yOOw=&Oywt-=*@#Orr.=O.O%qrrr%@OX@==Orw%%%ryr#y",
"%i@OO=r%r&rq%%@%%%w&OOO.Xww=qqu@%%%%qr%wy=i&%@Xw",
"ipyOO%rry%riwq%&&O%%qqy%@%%OO%==@@%OtiOwr%=ry%ww",
"#@=%$-@@%rwOw@#%oOruOo==%$%yrO*%wow%rrw%%O@$wOra"
};