/* XPM */
static char *___4_1739545776[] = {
/* columns rows colors chars-per-pixel */
"50 50 54 1 ",
"  c #2E462D",
". c #2F482E",
"X c #334B2F",
"o c #394E2F",
"O c #354E30",
"+ c #384F30",
"@ c #375031",
"# c #3A5231",
"$ c #3F5833",
"% c #414F2D",
"& c #45532F",
"* c #4A542E",
"= c #5E5A2D",
"- c #425531",
"; c #4A5730",
": c #415833",
"> c #4C5931",
", c #655C2C",
"< c #685E2D",
"1 c #715F2A",
"2 c #64602F",
"3 c #6A612D",
"4 c #74622B",
"5 c #9F7322",
"6 c #A16F26",
"7 c #A37424",
"8 c #AF7225",
"9 c #B07325",
"0 c #CF8C18",
"q c #D3871B",
"w c #D38B19",
"e c #DF8D19",
"r c #CF9217",
"t c #D09317",
"y c #E08E19",
"u c #E19118",
"i c #EDA20E",
"p c #EFAD0D",
"a c #F3A60B",
"s c #F5AD09",
"d c #FAB604",
"f c #FDBB02",
"g c #F4B30A",
"h c #FFC500",
"j c #FFCC00",
"k c #FCCB08",
"l c #FFD001",
"z c #FED409",
"x c #FFDC0A",
"c c #FFE00F",
"v c #FFE412",
"b c #FFE916",
"n c #FFED1A",
"m c #FFF11D",
/* pixels */
"OOO++#+#@@O.@$#OO####-@OOXO.@O#@OO#@..O@##@OXX#+oO",
"O@+###+#@@.@@O.O@@####OOO.XOX@+OO@#O..O###oX@@@##X",
"O##oooX#@$@@@..@O##OOOXXX.OOo##XOOOOO@.@####@X@#$#",
"@#o. ..O@@@@@O..OO#OO+OXOXOX ##OO@OO.@.@##@OXo####",
"O@O..X oO.@$#OXXO#@O##+OX@@OO@#OO@O#O@.@##XOo@###@",
"OOOOO##@OO@@OXXX@##$$#OOX@@@@###O##@@@X@OOXO@####o",
"#O@@####@####OOOO@@O@$O.XO######O##@#O#@@OX@@OXOXX",
"OO@@$#@@##:##+O#@@OO#@.OOO#####oO@..@@@.XXOOOO@XO@",
"#OO$+O#+###++OOOOOO+@OXOOX#++OXO@O.OOO@.OO##OOOO@@",
"OOO@O###++###OOOX O+OO.@#o#+XX X@..@##@@O#OOO O+O#",
"O@OO####OO##OOOOOOXoX.o-#o--oXo#OO@$###$#OOO..OO##",
"O@@@####O###OO+#++*,,,,,<,,<<,=*@@@@@##@#O++O.X###",
"OO#-O##OOO##OOO##&16988898899961>@#@O#OOO##+XO##$#",
"O#-#OO#O..##OO##;,7qyeyuuuueyyw73>#@OOOOO+OOXXO###",
"OOO#O@#@OOOOO+#>170iagggggggggpr74-###+OOO..OOOO@@",
"O.O#O@@#+O+#@#;<7widhjjkjjjlzzkpw73-$OOOOO.OO@OO@#",
".OO##@O#+OO+o*47widhjlljjjlxbbckpt74>#O.XOOXO#o@#O",
"OO#$##OO#O++*<7wadhjlljjhhlcbmnvkpw73&XXOO+O@OO@@#",
"OOO@#XO####>470idhjjjjjjjjjxbbmnvkpt5<*XOOOO#O##OO",
". .@#O#O###,7wadhjlljhjjjlllzbnmbvkpw7,XOXoOXO#OO#",
"OOOO##OO$$#<9yafjjjjjjjllllllxvnmbzgy8,O.OXOoOO###",
"OOXOOOO$###<9yadjjjjjjjlllljllzvnbzge8,+.OOOXO####",
"OOOXOOO###-,9yafjjjhjjlllllllllxxxkgy8,OOXO#OX@@#X",
"++#O##O+OO#,9uafhjjhhjlllllllllljljgy8,+O@OO#o@#OX",
"###@#@$#OX#<9yafjjjjjllljllllljjjjjge82O@#@++O##OX",
"####@O#OOO-<9yafhjhhjjllllljlljjhjjgy8,###@@@$$@##",
"###@OO@OO#-38yadjjjjjjjlllllljjjjjjge92-##@#@$#@##",
"+OOO.OO O##<9yadjjjjjhjjllllljjjjljge9<###$##@@##o",
"#@#@OOO.OOo<8eafhjjjjjjjjjjjjjhjlllge8,o@@o@@#@@OO",
"@@@#O@##XO+,8eafhhjlljjhjjjjjjjjllkgu8,#@OXX.XX.XO",
"@@###+###O#,6qidffhjljjjhhhhjjjljjkpw6=#@@X.OXOOOO",
"@@OO$@$OO+#*470isfhhjjjjjjjjjlljhdpt54*##OOO@@OXO@",
"OXX@$@@@@#@#>37widffhjjjjjjjjjjhdiw7,&oOXO###OOoX#",
"OXX@@@@@#@@##>47wasdhhjjjjhjjjhdi074:OOOO##++OOoO#",
"@..@O@@O##O###>37widdffdffdfffdiw5,*##.OO+X+##o.XO",
"X..@O@OO#######>160iaaaaaaaaaaiw71:@.@OOOoXo+OXo#O",
"XOO.OOO$###OOOO#%,6qeeeeyyeeeeq7<*#Oo@#O@O##o+o##@",
".@.O##$$##OXO@XoO&16888988888974;o@@OO#@@#$@@#+@@@",
"OO##$####oXX@O.@O+;,,,,3,<,,,<,>#@@@@O@@@@@@@#@@@O",
"OO##O#@OXoX@@OO@OO+#++###oooo#:#####@O@O.@OOX@#@XO",
"XOOOO#OOOO#O@@OOOXO#@.O@@....@@@O###OOOO..OXXO.XXO",
"o.XOOOOOOO+O@@OXO@#O.Xo@.@@@@@@@OO##+OOO@@Xo#ooXo+",
"X OOOOOOOO.@#OOX#@OO#oo@@@@@@@@@OO##O###OO@@@OOXXO",
"O@OOO+O@OOO#@OOo##@@#+@@@@X@@@O#OOO#O#$#X.@@@@oOOO",
"@O.OOOOO@OXXXOOX@$@OX.OOO#@@@#@$OOOOO##@X@@@@.O#OX",
"OO O@OOOOO.OOO@#$#.. OOO@@@@O#@@OOO O##$@#O@@OX@.X",
".X.OOO#OO#@@##@##@.OOOOOO@@#OO@@OOOOO##$@@O@X###OX",
" XO###O#@$#O####@OO@OOOOO@@@O@O.OOOO@@$@O@@@@##XOo",
"XX###$@@#$@.@OOO#+##@OO#@#@OO@O..OOOO+##OOO#O+o.XO",
"oo##@@@O#O@OO@####:####OOOOO#@O.OOOOO+OOO#OOXX+OOO"
};
