/* XPM */
static char *open[] = {
/* columns rows colors chars-per-pixel */
"48 48 180 2 ",
"   c #2E3336",
".  c #2E3A37",
"X  c #2E373A",
"o  c #2E3C3C",
"O  c #323B37",
"+  c #3E3837",
"@  c #32363B",
"#  c #3A343D",
"$  c #323B3D",
"%  c #3A3B3D",
"&  c #3B3737",
"*  c #781E1D",
"=  c #671F21",
"-  c #691F20",
";  c #482F2D",
":  c #562D2E",
">  c #5E302E",
",  c #4C3234",
"<  c #423539",
"1  c #48383A",
"2  c #403939",
"3  c #5C3330",
"4  c #563735",
"5  c #672123",
"6  c #6A2224",
"7  c #6E2728",
"8  c #6C2C2D",
"9  c #742526",
"0  c #7A2424",
"q  c #722A26",
"w  c #782827",
"e  c #732729",
"r  c #73292A",
"t  c #782529",
"y  c #7E3638",
"u  c #2E403C",
"i  c #33413D",
"p  c #2D3740",
"a  c #2D3C41",
"s  c #323741",
"d  c #333C42",
"f  c #3A3C42",
"g  c #363F48",
"h  c #2F4143",
"j  c #334242",
"k  c #364546",
"l  c #7C4244",
"z  c #7B5355",
"x  c #795E61",
"c  c #7D6D71",
"v  c #767073",
"b  c #840303",
"n  c #880303",
"m  c #850B0B",
"M  c #950303",
"N  c #9B0404",
"B  c #9B0B0C",
"V  c #890F10",
"C  c #851212",
"Z  c #8C1615",
"A  c #861B1C",
"S  c #961A1B",
"D  c #9A1A1B",
"F  c #9C1617",
"G  c #A60505",
"H  c #AA0404",
"J  c #A30708",
"K  c #AB0708",
"L  c #A30909",
"P  c #AB0809",
"I  c #B30505",
"U  c #BB0505",
"Y  c #B00708",
"T  c #BB0708",
"R  c #B10909",
"E  c #BE0C0C",
"W  c #AE1414",
"Q  c #A61616",
"!  c #B01314",
"~  c #81201E",
"^  c #821F22",
"/  c #862525",
"(  c #802729",
")  c #862D30",
"_  c #8D3639",
"`  c #B93134",
"'  c #C30606",
"]  c #CC0505",
"[  c #C10C0C",
"{  c #CB0909",
"}  c #D40505",
"|  c #D90505",
" . c #D30807",
".. c #D30909",
"X. c #DB0808",
"o. c #D91313",
"O. c #D71F1F",
"+. c #D81E1E",
"@. c #D71F20",
"#. c #D72020",
"$. c #D72929",
"%. c #D53131",
"&. c #D43D3C",
"*. c #8A3F43",
"=. c #8B484C",
"-. c #8C5459",
";. c #B84549",
":. c #8E696F",
">. c #8D6B72",
",. c #887379",
"<. c #D24C4C",
"1. c #D54544",
"2. c #CF5B5A",
"3. c #DB5353",
"4. c #D05E5E",
"5. c #D65858",
"6. c #D0605F",
"7. c #CF6160",
"8. c #D16060",
"9. c #DB6665",
"0. c #CF706F",
"q. c #DB706F",
"w. c #CC7675",
"e. c #D67D7C",
"r. c #DA7E7D",
"t. c #D77575",
"y. c #DA807F",
"u. c #857D84",
"i. c #7B8D92",
"p. c #808288",
"a. c #91828A",
"s. c #929BA4",
"d. c #92A7B2",
"f. c #92AAB4",
"g. c #94AFBA",
"h. c #94B0BB",
"j. c #CA8C8C",
"k. c #CC8685",
"l. c #DB8281",
"z. c #DB8A89",
"x. c #CC9E9D",
"c. c #D59696",
"v. c #D09897",
"b. c #DA9C9B",
"n. c #D99A99",
"m. c #CCA5A4",
"M. c #C5A8A7",
"N. c #C5AEAD",
"B. c #C7A2A1",
"V. c #DBA3A2",
"C. c #D9AEAD",
"Z. c #C6B0AF",
"A. c #DAB0AF",
"S. c #C5B1B0",
"D. c #C9B2B1",
"F. c #D4BBBA",
"G. c #DAB3B2",
"H. c #D9C0BF",
"J. c #DAC2C2",
"K. c #C1D0CF",
"L. c #C3D4D3",
"P. c #C3DBDA",
"I. c #C3D8D6",
"U. c #D2DCDB",
"Y. c #C8C7C6",
"T. c #C2E0DF",
"R. c #CAE7E6",
"E. c #CBE8E7",
"W. c #CDECEB",
"Q. c #C7E6E5",
"!. c #DAE4E3",
"~. c #D3EEED",
"^. c #DAE9E8",
"/. c #CFF0EF",
"(. c #D5F0EF",
"). c #CFF2F1",
"_. c #D5F2F1",
"`. c #DAF7F6",
"'. c #DAF8F7",
"]. c #DAFCFB",
/* pixels */
"g o d s X $ d f j d < 3 r ~ ~ / 0 8 4 2 f g g j k j s d k k d $ p d @ i a d f p j j $ $ $ j j k ",
"d $ d @ d j i $ < t Q { ] ] ' ' ] ] E D 8 & @ $ . . j $ O d s O o . @ o O f s d o $ $ $ o @ o j ",
"$ f s d g h j > W ] ' I G H H H H I U ' { D , @ f O $ i O d $ $ p u $ @ @ i X X . O i h d @ X j ",
"$ j g O @ o 8 [ ' H H H G K H H H H H H I ] W , d X $ $ $ % $ d @ u . o d $ j . X X . $ $ j $ i ",
"o p @ $ j 1 ! ' H H H H H H H H H H H H G H ] D s X o $ @ O @ $ $ i i j j $ $ a d p X X s i d $ ",
". . O @ i 0 } I H H H H H H H K H H H K I H I { > . u j $ O a d $ j $ j u h @ @ X s s d d h a d ",
"s p $ $ $ S ] ' [ ' ' ' U ' ' ' ' ' ' T U ' ' { 9 @ u i i o i i d $ i $ d o h i j s d o d a a X ",
"X h $ @ $ Z K K K L K K K K K K G Y K K K K K K 0 i j j $ $ i . $ s . u d o j o $ p o X g o p a ",
"X O $ $ $ Z H H J G G G G G G G G J G G G G G G * % f % $ d % % f + @ % % d d < + # f @ d o p $ ",
"o $ $ $ $ Z R R R I Y R I I R R R R I K R Y R K F S S S D S S S S S S S S S S D S S S 3 . @ $ f ",
"% j i i O W | } } ] ] } } ] ] ] } ] ] } } } } | [ | o.#.+.@.+.+.#.#.+.+.+.+.+.#.#.o.} q u d $ k ",
"j $ O u u W | H M M M M M M M M M M M M M N ' | [ +.j.S.N.Z.j.0.S.N.N.B.7.N.N.N.N.<...e j d $ j ",
"p j $ . @ W } M * b b b b b b b b b b b b n U | T @.N.R.W./.F.c./.W.~.U.e.W.~.E.P.8...r k d i f ",
"@ j $ @ @ W } N b b b b b b b b b b b b b n U | E @.N.R.'.].J.n.].`.`.!.l.`.'._.P.4...e a $ s f ",
"@ $ $ X @ W } N b b b b b b b b b b b b b n U  .[ @.D.R.`.].J.n.].`.`.!.l.`.`.~.P.2...7 o X @ d ",
"h o . O O ! } N b b b b b b b b b b A / ) A T | [ @.N.R.`.].J.b.].`.`.!.l.`.]._.P.2...e . o a g ",
"u i i s . W | M b b b b b b b b b b =.s.f.a.` | T +.N.R.`.].H.n.].`.`.!.l.`.`._.P.4...9 $ . $ $ ",
"@ @ $ f @ W } N b b b b b b b b b * >.f.h.d.;.| [ +.N.R.`.].J.b.].`.`.!.l.`.`.(.P.4. .e a $ O d ",
"g % @ O @ ! } M b b b b b b b b C x i.f.g.d.;.| E #.N.R.`.].J.b.].`.].!.r.`.`.(.P.2. .8 a $ $ j ",
"g X X @ o W | N b b b b b b b b y c u.g.f.d.;.| [ +.S.E.`.].J.b.].`.`.!.l.`.`._.P.6.} e . $ a . ",
"o o d s i ! } N b b b b b b b b l z >.g.h.f.;.| E +.j.D.J.J.b.r.J.J.J.G.9.J.J.F.N.<. .0 . f X i ",
"h i h d @ W } N b b b b b n b b w v i.f.g.d.;.| [ o.0.c.V.V.r.9.V.V.V.b.3.V.V.b.j.1.| 9 $ d X a ",
"g u . . O W } M b b b b b b b b m ) i.f.h.d.;.| [ #.N.R.`.].J.b.].`.`.!.l.].'.(.P.6...q . @ d g ",
"o d . . X W | N b b b b b b b b b b >.g.h.d.;.| [ @.D.R.`.].J.b.].`.`.!.l.`.'.(.P.6...q i u o j ",
"X s j o . W } N * b b b b b b b b m >.g.g.d.;.| T #.N.R.`.].H.b.].'.'.!.l.'.`._.P.6. .7 h i j u ",
"j d s o u W } M b b b b b b b b b m :.g.g.d.;.| [ @.N.R.`.].J.b.].'.'.!.r.`.`._.P.2...e o $ j j ",
"u o O j X W } N b b b b b b b b b n -.d.f.s.`  .[ @.N.R.`.].H.b.].'.'.!.l.'.'._.P.2...8 u . X s ",
"u o . @ $ W } N b b b b b b b b b b V =.=._ E  .[ @.N.R.`.].J.b.].'.'.!.l.'.'.^.P.6...q o o X f ",
"j i d d $ ! } N b b b b b b b b b b b b b n U | E @.N.R.`.'.H.b.].'.'.!.l.`.`.(.P.8...q X . a d ",
"O $ $ $ f ! } N b b b b b b b b b b b b b n U  .E @.N.R.`.].J.b.].].'.!.l.`.'._.P.8...r X . a g ",
"d $ X d @ W } N b b b b b b b b b b b b b m T | E #.S.W.].].J.V.].].].^.l.].].'.T.8...7 a d i h ",
"@ j a g i W } M b b b b b b b b b b b b b V U | [ o.2.t.y.r.9.3.l.r.l.t.1.e.e.e.0.%.} t o g a a ",
"% $ d j d W } M b b b b b b b b b b b b b n U X.[ o.e.m.C.G.z.q.G.G.A.V.5.A.A.C.x.1...0 . d d j ",
"% u i $ $ W } N b b b b b b b b b b b b b n U } [ #.S.W.].].J.V.].].].^.l.].].'.P.6...9 $ $ i i ",
"j d X h p W } N b b b b b b b b b b b b b n U X.E #.N.Q.`.].J.b.].`.`.!.l.`.'.(.P.6...r a @ O i ",
"j . $ a @ W } M b b b b b b b b b b b b b n U | E #.N.Q.`.].J.b.].`.`.!.l.`.'.(.P.8...r h O $ d ",
"$ . h $ a W } M b b b b b b b b b b b b b n U } [ #.N.R.`.].H.n.].`.'.!.l.`.'.(.P.4...e a   @ f ",
"s p $ $ $ W } N b b b b b b b b b b b b b b U X.E #.N.R.`.].H.b.].`.'.!.l.`.'.(.P.4...e p @ o h ",
"f g X o i ! } N b b b b b b b b b b b b b n U | [ #.Z.E.`.].H.b.].'.'.!.l.`.`.(.P.4...7 p f f j ",
"g d @ s O ! } N b b b b b b b b b b b b b n U X.[ #.S.E.`.].H.b.].'.'.!.l.`.`.(.P.4...7 d f $ $ ",
"O O s # O W | N b b b b b b b b b b b b b n U } [ +.N.R.(._.F.c._.(._.U.e.~.~.^.P.4. .e X X d s ",
"d % @ O . P } M b b b b b b b b b b b b b n U X.E +.M.L.L.I.m.k.I.L.L.Y.0.L.L.K.K.4...9 a o d @ ",
"# @ $ $ . W } N b b b b b b b b b b b b b n U | E o.1.4.4.2.1.&.4.2.5.<.%.4.4.4.2.$.} e o a . p ",
"s O d s X W } M b b b b b b b b b b b n b b U | [ | | | | | | | | | | | | | | | | |  .e a g d h ",
"$ j f a @ ! } N b b n b b n n n b n b n m C U  .E }  . .}  .X.} | } |  . .|  .} } X.{ 8 a d @ g ",
"$ j X ; V B G J L N J N N N N B N N J N N N J J J L / 0 w e w 9 0 e 0 t w e 0 9 t w w , g . @ p ",
"i j h : H H G H G G H H H H H H H H H H H H H H J B ; s $ a j i $ O @ d d j O s j i i s j . @ s ",
"@ $ d + = 6 6 = = 9 5 6 = = 5 6 5 5 5 5 = 6 6 6 = 5 % g . $ i $ d X X s d s d s d . # s g X d k "
};