/* XPM */
static char *personaggio2[] = {
/* columns rows colors chars-per-pixel */
"64 64 182 2 ",
"   c #000000",
".  c #070908",
"X  c #0A0908",
"o  c #0C0E0E",
"O  c #120E05",
"+  c #0D100F",
"@  c #141109",
"#  c #1A160F",
"$  c #0B0E10",
"%  c #0E1112",
"&  c #141B1C",
"*  c #1C1B1C",
"=  c #211C1C",
"-  c #1A221E",
";  c #25221A",
":  c #332C1D",
">  c #3E3417",
",  c #181E21",
"<  c #1A2122",
"1  c #202325",
"2  c #262A26",
"3  c #2B2C2E",
"4  c #28332F",
"5  c #3F3724",
"6  c #37342D",
"7  c #2C2E33",
"8  c #282F39",
"9  c #322E35",
"0  c #3A2F3F",
"q  c #273533",
"w  c #2C3535",
"e  c #263A34",
"r  c #2D3A35",
"t  c #26343A",
"y  c #2D353B",
"u  c #273B3C",
"i  c #2D3B3C",
"p  c #323435",
"a  c #3A3636",
"s  c #333B35",
"d  c #3A3C36",
"f  c #33353B",
"g  c #39363B",
"h  c #333B3C",
"j  c #393B3C",
"k  c #493713",
"l  c #43371D",
"z  c #43391D",
"x  c #433720",
"c  c #413A3E",
"v  c #2D4235",
"b  c #2D423C",
"n  c #2B473D",
"m  c #334236",
"M  c #3A4136",
"N  c #334835",
"B  c #33423C",
"V  c #39433C",
"C  c #34493D",
"Z  c #39483E",
"A  c #4C422C",
"S  c #51462F",
"D  c #41473C",
"F  c #4D423E",
"G  c #5B4F35",
"H  c #57503A",
"J  c #66583A",
"K  c #77673E",
"L  c #7A6538",
"P  c #3A2F41",
"I  c #2D3641",
"U  c #283744",
"Y  c #2D3C43",
"T  c #2D3C4A",
"R  c #333542",
"E  c #393642",
"W  c #333C43",
"Q  c #3A3C43",
"!  c #353649",
"~  c #343C49",
"^  c #3A3C4A",
"/  c #323A51",
"(  c #403E43",
")  c #2D4243",
"_  c #2B4847",
"`  c #2F4945",
"'  c #2E424A",
"]  c #334243",
"[  c #3A4343",
"{  c #334942",
"}  c #3A4841",
"|  c #33424A",
" . c #3B434B",
".. c #354E4A",
"X. c #3B494B",
"o. c #374B50",
"O. c #444543",
"+. c #4C4C49",
"@. c #5D4F4A",
"#. c #4C5144",
"$. c #535648",
"%. c #414C59",
"&. c #565352",
"*. c #655650",
"=. c #635B55",
"-. c #57604D",
";. c #6F6041",
":. c #69654C",
">. c #746444",
",. c #7C6B49",
"<. c #6B6559",
"1. c #726D55",
"2. c #797459",
"3. c #645F62",
"4. c #64616B",
"5. c #736965",
"6. c #7C6B64",
"7. c #7D7668",
"8. c #7B7875",
"9. c #806F49",
"0. c #8B7444",
"q. c #81714B",
"w. c #877C5C",
"e. c #967A5E",
"r. c #857A75",
"t. c #917D74",
"y. c #948056",
"u. c #94835C",
"i. c #9F8A5D",
"p. c #A6905F",
"a. c #AA935F",
"s. c #938561",
"d. c #9D8D63",
"f. c #94857D",
"g. c #9B857C",
"h. c #A69367",
"j. c #AD9461",
"k. c #A69569",
"l. c #AD976C",
"z. c #AF9D69",
"x. c #B79367",
"c. c #B39A66",
"v. c #B39C6C",
"b. c #B69F7C",
"n. c #BEA56D",
"m. c #B6A073",
"M. c #E1A850",
"N. c #C0A66D",
"B. c #C3A96F",
"V. c #C4AB71",
"C. c #C9AE73",
"Z. c #CCB175",
"A. c #CDB27C",
"S. c #FCC064",
"D. c #FCC573",
"F. c #988684",
"G. c #968984",
"H. c #969485",
"J. c #A0948B",
"K. c #AC9D95",
"L. c #BBA095",
"P. c #FD8B8D",
"I. c #C5A881",
"U. c #D6B995",
"Y. c #C5AEA5",
"T. c #C9AEA4",
"R. c #C8B0A5",
"E. c #DFBFA3",
"W. c #E2C39E",
"Q. c #DDD0BA",
"!. c #E1C1A7",
"~. c #E8C7A8",
"^. c #FBD4AE",
"/. c #E2C2B6",
"(. c #EAC9BC",
"). c #F1CEB8",
"_. c #EED0BD",
"`. c #F8D8BD",
"'. c #F5D2C2",
"]. c #F9D5C7",
"[. c #FEF5E6",
"{. c #FEF7F4",
/* pixels */
"%.] ' W ^ T 7 w { W W ^ { ! h Z V [ w r ` g h r } N W  .f % % % % % % $ h W X. .W W W Y W Q y ] i W W W R { ~ h W Z W B ` { B ..",
"W W h h g y R Y g g h f W Y f B V Q h u h ` h B h ] Y ~ &               4 p j W Y i s U p g p u p f Q W Y y W B r y i p u Q r ] ",
"R [ h | h i [ '  .} B h W Y i h W W Y C m W h ` ) h M Q                 < i i h ) h g i b u s Q i [ B E Q i v c s Y ` r h Y r ^ ",
"h p W R f Q ~ ] B b i W B W i j T y w B B j M B p h h 2                 + s s ! h h Y y b u p h g y h u w f y i Z R u b p h r ' ",
"Z j ] | W h s h i W s s i s i i U B h h ] R p h u s y @                   s m W s Q h W B v s ] h u h ] R i i 7 i h h E C W j W ",
"j n Y R s s R [ Y ] V m Y h C b Y ` R s h f i j j N C #                   c s h Y h h W Y b w Y W B a n p I i B 8 i W E s W p V ",
"C i w y R w B Q [  .] ] W { i i h h B i u , & o .   G Z.9.A : ; X : : >.v.>.  . o & 1 w h Z h ' C ] W W Y Y y R W p W p ] n Y h ",
"V i r r f b h r R E R u [ h v B { p p %             G v.Z.Z.Z.Z.Z.Z.Z.Z.Z.q.            < Q m ] u B Y s f R i h E I h Y ' T T Q ",
"] R Y p g W h h B R h R Y m Q h ` e v o                 : ;.,.i.i.y.>.S #               , B h r R Q u ` h Z W I Y h b W T i W s ",
"h y Y ' Q g h h ] b Y h ~ g { n h R W i &                                           . * g I ] B ) h h ] u m I R W y y Q ' y y ] ",
"W y u B p f Q r ] D W ~ y Y p B p B W b s ! 2 %                                 . - 9 R W 7 i I W Y i ] B r p R Y U h ~ Y Y U u ",
"[ h s d h B ' f ! D C Y i Y [ B q e M B u ~ Y ] i g.6.6 =               : O.<.t h W Q W g h s Y p { T R Q d h E j h h u y y B g ",
"` b u w B w Q B y ) } h d [ ] ] w b Y R h [ g s V Y.6.    * 6.(.g.F   @.(.].F.Y C w j h B ] { h u y h i ( i ] s V j Z i y W h  .",
"W g [ B i h p h p ] [ h p W C W w m i p ] b y b v Y.L.r.7.f.J.(.F *.t.@.6.].G.f W B Y p h R i ) W s M i h h h Q a y h r h i E W ",
"Y W Q y B B b W g f Y Y W j W p s M h h s j h W i R.].].].].].].].&.=.].].].G.u R R W r i h h f q f  .h s j f B R f s V h R N X.",
"j | Y j i n B B p j M Y g h r w g r g f i y f W Y R.].].].].].].].T.T.].].].G.i v Y Y h V h R W Y y g h f h g f [ h W ( Q B g h ",
"[ R b h Y w h u u u j i W W y h j ] h y r w f B [ K.].].].].].].].].].].].].5.V E y f W V y g { { s I h g g [ W ] s }  .W B W [ ",
"W p W h h y h R g U ] W W g s h ] I s b y h e C M r.].].`.S.M.  ].].].].].].V W R p ! f p v R { X.y i s r W C ] s R ! h i C E Q ",
"Q g ) Q Q w w g Y W R [ B M h h V i ] [ h R u ] [ e.(.{.[.D.^.].].].].].!.l.O.h r g | Y ] ) s a V | Y Q 4 M h ! u ) Y u f y 0 [ ",
"| h Y s f p p h h h ~ ^ f g s a p f h Q ] i B #.u.x.P.Q._.].].].].].'.I.j.x.p.-.Z ] W f V ] ] V C { h j 4 p i R ^ ] h Y i p ' g ",
"| b h e i y d h w E b b h Y g g p I y ) v r $.j.j.j.j.j.j.U.].].].!.c.j.j.j.j.j.u.s.[ B ] | ~ f i Y ~ h y h d u f ^ g p i ] Y ~ ",
"W ) W h i h w B V n ] u ^ f s r Y W Y f V [ u.j.j.j.j.j.j.j.v.E.I.j.j.j.j.j.j.j.j.V.:.h Y ] h h W W h Q h y [ f b h s h w b h ` ",
"C v W h B Q r g ] i y r h s y B n m v E ]  .n.n.j.j.j.j.j.j.j.n.j.j.j.j.j.j.j.n.C.Z.V.O.b Y h y U h y i h B h 9 b 3 s W j w f b ",
"W R i g B [ W i ) s g i i i s h p B i y ] z.Z.Z.V.x.j.j.j.j.j.V.j.j.j.j.j.j.N.Z.Z.Z.Z.h.W Q Y h 9 f W g i B B v u r U u h g y Q ",
"h h V ( f s g g Y B h R B g h y 9 f i V u.Z.Z.Z.Z.Z.n.j.j.j.c.Z.n.j.j.j.c.C.Z.Z.Z.Z.Z.Z.w.y ) y i h h w Y W h W i p u h h N y { ",
"Q ] 0 w u y w W i ) u i h s B y Q [ { 2.Z.Z.Z.Z.Z.Z.Z.N.j.j.n.Z.V.j.a.N.Z.Z.Z.Z.Z.Z.Z.Z.Z.H 6 ' R W I u i R h B V h Y w R ] Y n ",
"~ W y Y h ~ b Y h n r ] h w b p f g <.Z.Z.Z.Z.Z.Z.Z.Z.Z.Z.n.Z.Z.Z.n.V.Z.Z.Z.Z.Z.Z.Z.Z.Z.Z.m.[ ] W B W ] B X.[ h u B W p g h p h ",
"] ] b Y h W W ] s d h M V Y E s ] $.V.Z.Z.Z.Z.Z.Z.Z.Z.Z.Z.Z.Z.n.A n.Z.Z.Z.Z.Z.Z.Z.Z.Z.Z.Z.Z.e.B j i f i y Y n Q ] [ g r W ~ y V ",
"W ' h ] R T f v w h E h h i ] w +.B.Z.Z.Z.Z.Z.Z.Z.Z.Z.Z.Z.Z.Z.c.x N.Z.Z.Z.Z.Z.Z.Z.Z.Z.Z.Z.Z.Z.=.h r y h r i h Q W h m j W W y i ",
"~ ] h ) v w h a a p ] [ B h m } z.Z.Z.Z.Z.Z.Z.Z.Z.Z.Z.Z.Z.Z.Z.Z.Z.Z.Z.Z.Z.Z.Z.Z.Z.Z.Z.Z.Z.Z.Z.V.h g i ] ^ i h h i p w r Q h ) Q ",
"j y ] h w i B h n ' W i B i g d.Z.Z.Z.Z.Z.Z.Z.Z.Z.Z.Z.Z.Z.Z.Z.Z.Z.Z.Z.Z.Z.Z.Z.Z.Z.Z.Z.Z.Z.Z.Z.Z.d.h W h ! B r [ g Y D s y B Y W ",
"^ Y Y b h m y i ] b b h g j s.Z.Z.Z.Z.Z.Z.Z.Z.Z.Z.Z.Z.Z.Z.Z.Z.n.A N.Z.Z.Z.Z.Z.Z.Z.V.Z.Z.Z.Z.Z.Z.Z.1.R W y a Y h h W n j b B y | ",
"w ] y R h b w r M h ] W b h b.Z.Z.Z.Z.Z.C.C.:.Z.Z.Z.Z.Z.Z.Z.Z.n.A n.Z.Z.Z.Z.Z.Z.Z.z.V.Z.Z.Z.Z.Z.Z.n.s W a W Y a h Q u W C R ] b ",
"R V Y E ) n h s Q h W W W B '.~.Z.Z.Z.Z.Z.w.h Z.Z.Z.Z.Z.Z.Z.Z.Z.Z.Z.Z.Z.Z.Z.Z.Z.Z.h.1.Z.Z.Z.Z.Z.W.R.W B h 7 i h r B h ) h ] { C ",
"] h B h p Y i Y E f s h n B /.].(.A.Z.Z.e.~ W Z.Z.Z.Z.Z.Z.Z.Z.Z.Z.Z.Z.Z.Z.Z.Z.Z.Z.h.g d.Z.Z.U.).].Y.h h v g f W s h R W g w b W ",
"u i b y h ) B Y f h h j i m 8.].].).A.v.[ Q h Z.Z.Z.Z.Z.Z.Z.Z.n.A N.Z.Z.Z.Z.Z.Z.Z.h.W } V.U.).].].5.b s ) w h i B b i B w r h W ",
"g v Y b w p j B h m r i U B W 3.H.8.X. .) ] W Z.Z.Z.Z.Z.Z.Z.Z.n.A n.Z.Z.Z.Z.Z.Z.Z.k._ u V +.G.G.4.a f i [ ] r ) W h B h ] i a ! ",
"O.X.i u Y W Q g W w u i R h P h V h v T R h B Z.Z.Z.Z.Z.Z.Z.Z.Z.Z.Z.Z.Z.Z.Z.Z.Z.Z.h.g I Y ' y ~ w g u y R B W B | y s h u r h ! ",
"h Q m h W ] W f b b R { r i U h Y ] f Q g 7 e Z.Z.Z.Z.Z.Z.Z.Z.Z.Z.Z.Z.Z.Z.Z.Z.Z.Z.h.s h B h ) Y E R ] C B B W u s U ] p E i W W ",
"W r s [ Q h g ^ ] h Y y b s b r ] j s a p B V Z.Z.Z.Z.Z.Z.Z.Z.c.5 N.Z.Z.Z.Z.Z.Z.Z.h.u h d h h [ m W ) u R ] B T h i Y i s i Y R ",
"B W h Y y h W i h i { Y W M C b ] ] B f h N B Z.Z.Z.Z.Z.Z.Z.Z.n.J Z.Z.Z.Z.Z.Z.Z.Z.k.s i B h N C r | R | 7 f { [ h i E Y i ] C ) ",
"i i } i i [ B B h ) ] Y Q s ] ] | h g g g i y Z.Z.Z.Z.Z.Z.Z.Z.Z.Z.Z.Z.Z.Z.Z.Z.Z.Z.h.g m s Q h W W ] N Q Q u h B f B ] ~ ] g U U ",
"D r ] ] ~ ] i Y h ] s W h h C m s E Q Q h p i Z.Z.Z.Z.Z.Z.Z.Z.Z.Z.Z.Z.Z.Z.Z.Z.Z.Z.p.W { V ] Y Y ] h ] Q f W [ h g f p s I R { Y ",
"h g p y W V R ] W h h y Y R p ' h h i h s g h Z.Z.Z.Z.Z.Z.Z.Z.n.J Z.Z.Z.Z.Z.Z.Z.Z.j.W X.W h h y s W i B Y p g [ W i s h R E V B ",
"V Q [ n W h y i g T i ~ u y Q i g B h y i h y C.Z.Z.Z.Z.Z.Z.Z.c.: n.Z.Z.Z.Z.Z.Z.Z.a.s ) Q b j h p u v ] w R B B B ) ( h v u C Z ",
"W E Y h y ) Y ] W Y Y g y y R [ W i Y m C h ] Z.Z.Z.Z.Z.Z.Z.Z.Z.d.Z.Z.Z.Z.Z.Z.Z.Z.a.R ! C W Q h h Y h h B s s f f h j h R f r ] ",
"~ | R B i ` Y h u s Y _ p ~ b W W h W u {  .g Z.Z.Z.Z.Z.Z.Z.Z.n.} B.Z.Z.Z.Z.Z.Z.Z.j.Y N i f i ! ] W W i R h i Y ) W W / i f i ' ",
"W v i b f T h R y ~ B v E W i h h ) y R g W i Z.Z.Z.Z.Z.Z.Z.Z.>.C L Z.Z.Z.Z.Z.Z.Z.a.] i i r B W i R W 6 d p h Y [ ] Z ] h s h W ",
"{ ] h i ] u Y Y h U i ) W W R p g f N h W B i 0.0.0.0.0.0.0.0.l B k 0.0.0.0.0.0.0.K y [ W h ] Y E ] h f g B u R [ Y f W 7 w ! V ",
"] I y Y B h f B W E h R _ p t { y Y u R B M Z k k k k k k k k l ) k k k k k k k k z Q y p g V i i p h  .B h f T i h W f p I y ] ",
"T [ E h R ] d d E h f E Y b h Q R p I j h w u k k k k k k k k z h k k k k k k k k z B i Y f h h r B p h Q R w C t _ [ i s Q ) ] ",
"f W Y h f f B h R p y y u W p Q W B y C R f s k k k k k k k k l W k k k k k k k k z B s ' n j Y f E Q p h p h e i h I E ! ! i [ ",
"p ] ^ y f R i ] u j h h p y h s W Z i h b g W k k k k k k k k l W k k k k k k k k z [ i ] g f i B ^ B V f T Y h v r w Q Q j m W ",
"i W s h ^ h f s N f Y i h ~ h t ] ] Y T f W u k k k k k k k k z a k k k k k k k k z h Q E E m w h Y i h y b ) ! ] I h W h f j i ",
"{ s j i p p h p i C p W h h a h N W h Y B ` h k k k k k k k k l Q k k k k k k k k x ^ W f f w ` | W ~ W b n [ h g B f b u y Q W ",
"g W Q g g B r I f r r b s i h f i i B V ]  .B k k k k k k k k x s k k k k k k k k x R R i t g ] h h f Y p p ' j W y p W Y h I h ",
"j g h i d B r y ] i f ] ] [ b R ) r p W W ! R k k k k k k k k x  .k k k k k k k k l y f W j R Y R B f ] I y Q d { W h h u v i R ",
"! Y g Y g h w E h Y W Y N y i h B r h W g s W k k k k k k k k l T k k k k k k k k z w s v s ] i y u s i E p V h ` i h f W R f ' ",
"B R p [ ! f i Y T ] B p ] W i R R B m C B m p k k k k k k k k x y k k k k k k k k l i u R i { B s u Y o.f ] f p h W h W [ ~ I ..",
"] h b [ T ] r R ^ h d h b h h ^  .V B b s r s k k k k k k k k z r k k k k k k k k l V r p v s m B h W h T f p W B h W Y [ p y ~ ",
"h B h h g p v Y h U h h ) h j ' f h W p R g h k k k k k k k k > y k k k k k k k k l a 0 W p ) m W B Y p h R X.n C [ E W h 8 y ~ ",
"V j [ W y n e v C W Q W | g B R W f ! v C a = @ O O O O O O O ; d # O O O O O O O @ 1 V h p h W Y ) W y y g W B C h i ~ h r R y ",
"W n [ ) W i i h h V g B / R B h ' Y i R 2                     < b +                   % q t f Y Q ] W f ! [ W h i h ~ ~ s h W W ",
"] 7 c h B R g p C g i f g h T W p i p E .               o     * i o   o .               % y W h ^ r W Q h h i e f 0 E E u W B o."
};