/* XPM */
static char *personaggio[] = {
/* columns rows colors chars-per-pixel */
"48 48 184 2 ",
"   c #010101",
".  c #090702",
"X  c #0A0907",
"o  c #060708",
"O  c #0C0D0C",
"+  c #110F0E",
"@  c #16140D",
"#  c #0F1010",
"$  c #161516",
"%  c #1C1A14",
"&  c #171A1B",
"*  c #1C1E1A",
"=  c #201C12",
"-  c #1C211F",
";  c #3B2C0F",
":  c #3B2D11",
">  c #382F1A",
",  c #342D1E",
"<  c #383019",
"1  c #2A2418",
"2  c #1C2222",
"3  c #1E2629",
"4  c #232423",
"5  c #25272C",
"6  c #242B2C",
"7  c #2C2B29",
"8  c #2A322C",
"9  c #3C3422",
"0  c #35322A",
"q  c #39352D",
"w  c #34382B",
"e  c #3C3B2E",
"r  c #353025",
"t  c #262F30",
"y  c #2D3435",
"u  c #2E3A36",
"i  c #2E363B",
"p  c #2E3B3C",
"a  c #323636",
"s  c #323A36",
"d  c #3B3B32",
"f  c #32363C",
"g  c #38363C",
"h  c #333B3C",
"j  c #383C3E",
"k  c #3C3732",
"l  c #493713",
"z  c #4A3813",
"x  c #43371F",
"c  c #43381E",
"v  c #433720",
"b  c #433821",
"n  c #403935",
"m  c #2E413D",
"M  c #33413D",
"N  c #3A453E",
"B  c #4B402B",
"V  c #53472A",
"C  c #4E463C",
"Z  c #5A4E39",
"A  c #4E533E",
"S  c #655128",
"D  c #605338",
"F  c #6A5C3D",
"G  c #655B3E",
"H  c #7F693B",
"J  c #7C673A",
"K  c #2E3C42",
"L  c #333741",
"P  c #383541",
"I  c #333C42",
"U  c #383D42",
"Y  c #353D48",
"T  c #2F4143",
"R  c #334242",
"E  c #3C4243",
"W  c #3E4940",
"Q  c #39444B",
"!  c #3A4749",
"~  c #444B45",
"^  c #4A4E45",
"/  c #464D4D",
"(  c #4B4D49",
")  c #4A4641",
"_  c #584F4B",
"`  c #4F554A",
"'  c #495045",
"]  c #5F5A47",
"[  c #545349",
"{  c #494E51",
"}  c #585A58",
"|  c #635E4D",
" . c #675953",
".. c #5C605A",
"X. c #62624D",
"o. c #6F664C",
"O. c #7B6A47",
"+. c #766645",
"@. c #6C6651",
"#. c #6D6953",
"$. c #66625C",
"%. c #746D56",
"&. c #75645E",
"*. c #7E7257",
"=. c #77705A",
"-. c #7F7458",
";. c #696663",
":. c #7D7565",
">. c #7D7572",
",. c #806A3B",
"<. c #86734B",
"1. c #8A784F",
"2. c #88764E",
"3. c #857757",
"4. c #887A59",
"5. c #897D6C",
"6. c #817B76",
"7. c #8D815D",
"8. c #968256",
"9. c #9B875C",
"0. c #9A865B",
"q. c #A28C5D",
"w. c #A6905F",
"e. c #A8905B",
"r. c #9C8A63",
"t. c #908662",
"y. c #8F867C",
"u. c #97837B",
"i. c #A58F68",
"p. c #A29166",
"a. c #AD9461",
"s. c #AE9A69",
"d. c #B19664",
"f. c #B49B66",
"g. c #B59D69",
"h. c #B89E6F",
"j. c #A58A74",
"k. c #B99E71",
"l. c #BCA36C",
"z. c #B5A070",
"x. c #CF947D",
"c. c #C2A86E",
"v. c #C0A56D",
"b. c #C5AB72",
"n. c #C9AE73",
"m. c #C5AA7E",
"M. c #CCB175",
"N. c #CFB37E",
"B. c #F5C075",
"V. c #9F8980",
"C. c #A9938B",
"Z. c #AF9A91",
"A. c #B49D93",
"S. c #BEA79A",
"D. c #C6AA82",
"F. c #D2B68A",
"G. c #C7A998",
"H. c #C1A598",
"J. c #DBBD94",
"K. c #D7B99A",
"L. c #DABC9E",
"P. c #C4ACA2",
"I. c #C8AFA6",
"U. c #CCB1A5",
"Y. c #CEB5AB",
"T. c #D2B6AC",
"R. c #D7BCB2",
"E. c #E7C6AF",
"W. c #E3C4B4",
"Q. c #E8C7B9",
"!. c #EBCABC",
"~. c #EBC9B3",
"^. c #F0CEBC",
"/. c #EED5BC",
"(. c #FCDEB7",
"). c #F9D3BB",
"_. c #F3D0BA",
"`. c #F6CBA8",
"'. c #F1CEC1",
"]. c #F6D2C3",
"[. c #F9D5C7",
"{. c #FBD6C9",
"}. c #FED9CB",
"|. c #FCE3DA",
/* pixels */
"Q R Y Y i y I I Y I I M N h u R h u N m Y 5 O O O o # y R Q I I K I f p p I Y h Y j h M h R M R ",
"Y I I h f Y I j h I p h U I m M h R R M I O           6 h h p h K u f h h h I I p h u K p p p R ",
"h h L h I R R M h M K h L p M M s M p h 8             & s I h I p p p h f h p i p h M K u h u I ",
"N h Y h h j p M M u h p K p h I g h h h $             O s I h h h M u h h h I f i y p h U M I I ",
"M p f h h I R E M I M p K h p y 6 4 - w G 9 = @ X @ , Z e * 3 t y I M K R h I i K h i h L h K h ",
"M p y f h h I I p R m M M p 2 O o o   1 0.d.q.9.9.q.s.s.9     o O 6 M R m R p h L f L p I T K L ",
"h K p h j h I h L K M M m u 2 o         O 9 D +.O.F b =         o 5 R u I I m M h K K p Y K K p ",
"h i T g g h R I I I j m h I u 6 & o                         o $ 5 f p I K p R M p L L i I K K K ",
"I p s h I h I N R p I M u u M K I y h  .7 O o + O   X 0 ) t t f I f g p h K L I s j j h K i I h ",
"R m u h h M h R j h R R u h h h j h } C.n 4 _ A.&.q C H.P.{ h f h h R m p h p j h h h h p i h I ",
"I j h M s h h I I f j h s h h h h i } Y.G.H.U.W.u. .V.T.I./ L I p h h h p j h g h j g f h h h E ",
"I Y h m m h f j I h h u s s f p f K } W.}.}.}.}.Q.Z.!.}.I./ p K h h h I p f h h j h I h E j j U ",
"I h h p p p i p h I g h j h p y y m } Y.{.).`.G.'.[.[.}.Z.E f f I h f R M p h g j R h j U I R U ",
"I h I h y f I K I h s h M p M h i m ^ S.|.(.B.j.!.[.[.~.5.h f L I h u j R p h a j I p Y p p h U ",
"I I h h f s h I Y g s s h h I R h ' 3.x.Q./.).}.}.'.K.k.9.| W R h R T j N R h y f I Y p p p h I ",
"R I u i f g h h R I h g f i I u ^ 8.a.a.d.h.L.^.E.D.d.a.a.p.0.%.R R R h p Y h p g h h I f p K Y ",
"M T h h h h R u p I h u T m h R %.g.a.a.d.d.d.m.l.a.d.w.e.f.l.g.` K h f K h h h h h p a h h p h ",
"I p j j j h m h h u u s s h y ` d.n.l.d.e.d.w.l.d.a.d.e.l.n.M.M.r.W K p i L h p M u u y p h a I ",
"h j I f h g K M f h g p f h ~ p.M.M.M.b.f.w.d.b.l.e.d.l.n.M.M.M.b.-.h p f h y K I h p p p h p R ",
"I I i p p p p m p h h f h ~ t.M.M.M.M.M.b.l.l.n.c.z.c.M.M.M.M.M.M.l.| h I I K I R M p I f h h u ",
"R m K I I R h s M M h h E -.n.M.M.M.M.M.M.M.n.l.2.c.M.M.M.M.M.M.M.M.i.) h h h p R I R j h I I h ",
"Y Y I p p h a h j h h h =.n.M.M.M.M.M.M.M.M.M.g.<.b.M.M.M.M.M.M.M.M.n.5.h y h p h I h s h I K p ",
"I I m p u j u I M M h X.l.M.M.M.M.M.M.M.M.M.M.M.M.M.M.M.M.M.M.M.M.M.n.b.| I I Y h M h g s h p I ",
"I K u h m p R m h g [ g.M.M.M.M.n.n.M.M.M.M.M.l.2.n.M.M.M.M.n.n.M.M.M.M.s.( p h h h h R h M h R ",
"h K L h u u h M I p :.F.M.M.M.n.7.s.M.M.M.M.M.l.2.n.M.M.M.M.b.s.b.M.M.M.F.%.h g p g h I I M R m ",
"I h h p T h U h I u y._.J.M.M.r.' p.M.M.M.M.n.M.M.M.M.n.M.M.b.-.r.M.N.J.E.>.u h f h u h I h m R ",
"p m p p m h f g h p $.R.!.F.p.` I i.M.M.M.M.M.l.2.n.M.M.M.M.b.#.` z.K.^.T.} s h p h M u h p s I ",
"N p p p j h h u p K R } y.} ! R R p.M.M.M.M.M.l.1.n.M.M.M.N.l.#.i ~ ;.6.} h p R M p R h h p h L ",
"E M u I I f h p T h i I M h I f p p.M.M.M.M.M.M.M.M.M.M.M.M.n.#.p h K K f h m h I T p p f f p Y ",
"j h I I j Y R p K u u p h h g s M p.M.M.M.M.M.g.<.b.M.M.M.M.l.#.h s h R h I T h M K h K p h p L ",
"h h K p R h h T T h M m R M g g M a.M.M.M.M.M.l.8.M.M.M.M.M.n.#.u h M M I R I f h R h I K K T K ",
"M M R I M K h M I j M M j U U h u p.M.M.M.M.M.M.M.M.M.M.M.M.b.#.M M h K Y M I I h j h h h I I K ",
"j g p R I I I h p K h I h h h g h p.M.M.M.M.M.l.8.M.M.M.M.M.c.o.R R j p h K R f h U j p h I j M ",
"j I T h p K I K L i f I h h p u h p.M.M.M.M.M.g.O.b.M.M.M.M.n.o.K R j h y u M p g h M I g u m N ",
"I Y h p T I p K K f I I I I m R M p.M.M.M.M.M.c.7.n.M.M.M.M.c.@.p h I I I I p j s h I I I f p K ",
"I p M K K L i h m h K h h h h I j p.M.c.n.n.n.1.A e.n.n.M.c.c.o.p p p I I I s s u K R R R p h I ",
"R p p I K K L K K I f f h p h I M F H H ,.,.,.V d S H J H H J Z I h j p I h h g u K I I I y f I ",
"R I h I h g U h I K p I i p h h s c z z l l l c d l l l l l z e I y h h p h R j h K p R f f I R ",
"I I I f h h h f f i h h I p j h f c l l l l l c d l l l l l l M h T M p h h g g f p u K L I I I ",
"i I h L h h u h h p h h I M K h f c l l l l l x e l l l l l l d I I g p j I h h K p h y U U h h ",
"M g g h f h M h p h h f M I K R p c l l l l l c n l l l l l l k U L h p Y L I u T I I h h i h I ",
"j j h a s y p u u h h f p h M R E c l l l l l c e l l l l l l k L p y I I h K p h I h p h K i I ",
"h h f j s p I p I R M h u s I I L x l l l l l b N l l l l l l q f I h I p u h L j j R h h p p L ",
"Y f I Y y h K R h M p K h h M h s c l l l l l x q l l l l l l w y p M m p p I L h h M h f Y I T ",
"j p R Y M K L h h m h Y Q M M s s c z z z l l c w z z z l l l e h f h M h p R K h M j I Y j i Y ",
"h j h h u u I I j p g Y h I u g a < ; ; ; ; ; < 0 : ; ; ; ; : r f h s M R p f h I M M I I p i L ",
"M N I p u m j j I Y h I K L h 8 $ X . . . . . * 8 X . . . . . O 2 y y I Y I f h I j h h Y h i K ",
"K g j I f f M h h h I I p p f #           o   & 8 o o o         o 2 p h I h Y I h p f L I i h Q "
};