/* XPM */
static char *Green_and_White_Minimalist_New_Product_Skincare_Instagram_Post__5___1_1739549320[] = {
/* columns rows colors chars-per-pixel */
"50 50 168 2 ",
"   c #67330C",
".  c #693409",
"X  c #643C0C",
"o  c #6D380E",
"O  c #703A0C",
"+  c #633210",
"@  c #603F10",
"#  c #2E472D",
"$  c #2F482E",
"%  c #3F4927",
"&  c #35472B",
"*  c #334B2F",
"=  c #3A4D2C",
"-  c #3D512E",
";  c #354E30",
":  c #384F30",
">  c #375031",
",  c #3A5231",
"<  c #3F5834",
"1  c #5C4415",
"2  c #54451A",
"3  c #5A4618",
"4  c #53481D",
"5  c #6C420D",
"6  c #7B4306",
"7  c #75420C",
"8  c #7D460E",
"9  c #644413",
"0  c #6E4511",
"q  c #654B15",
"w  c #714712",
"e  c #734813",
"r  c #7B4B13",
"t  c #7E6314",
"y  c #434623",
"u  c #444A25",
"i  c #4A4B23",
"p  c #424D29",
"a  c #41522E",
"s  c #415833",
"d  c #834D14",
"f  c #8F5716",
"g  c #8F5817",
"h  c #87511B",
"j  c #8B541C",
"k  c #8E591D",
"l  c #935B16",
"z  c #985F12",
"x  c #925C1A",
"c  c #9F660F",
"v  c #826715",
"b  c #856A16",
"n  c #9F6610",
"m  c #A1680F",
"M  c #AC710D",
"N  c #B67709",
"B  c #BB750C",
"V  c #B7780E",
"C  c #BA7B0E",
"Z  c #A66D10",
"A  c #AB7211",
"S  c #B17814",
"D  c #BE7D10",
"F  c #825326",
"G  c #8E5921",
"H  c #8D5C29",
"J  c #915B22",
"K  c #8F602F",
"L  c #956126",
"P  c #96642A",
"I  c #99652A",
"U  c #9B692E",
"Y  c #8E6234",
"T  c #916333",
"R  c #9E6C31",
"E  c #A06F34",
"W  c #A27035",
"Q  c #C57C16",
"!  c #C87F17",
"~  c #917753",
"^  c #867161",
"/  c #BD8213",
"(  c #B7811C",
")  c #B9821D",
"_  c #C28415",
"`  c #C38619",
"'  c #CA8219",
"]  c #C48C1D",
"[  c #CD891D",
"{  c #C08720",
"}  c #C58D22",
"|  c #CB8E24",
" . c #C58F28",
".. c #D08927",
"X. c #C79126",
"o. c #CB9126",
"O. c #C6922B",
"+. c #CA932A",
"@. c #D2932C",
"#. c #D2982F",
"$. c #C79430",
"%. c #C99532",
"&. c #CC9934",
"*. c #CC9B39",
"=. c #D59631",
"-. c #D59C34",
";. c #D89936",
":. c #D39D3C",
">. c #DA9D39",
",. c #D6A13B",
"<. c #DBA33D",
"1. c #BF995F",
"2. c #9E8C6E",
"3. c #978777",
"4. c #A28C69",
"5. c #B29E7C",
"6. c #BDA679",
"7. c #CF9641",
"8. c #D49C42",
"9. c #D5A543",
"0. c #DBA743",
"q. c #DDA945",
"w. c #D7A249",
"e. c #DCAB4B",
"r. c #D5A755",
"t. c #DDAF53",
"y. c #D6AB5A",
"u. c #DEB35B",
"i. c #E0A744",
"p. c #E0AA46",
"a. c #E2AE4B",
"s. c #E4B14E",
"d. c #E5B352",
"f. c #E3B559",
"g. c #E6B95D",
"h. c #E8BA5D",
"j. c #CEA964",
"k. c #C5A66C",
"l. c #C9A868",
"z. c #C2A772",
"x. c #E4BA62",
"c. c #E9BC62",
"v. c #EABF68",
"b. c #E9C16E",
"n. c #EBC574",
"m. c #9D958F",
"M. c #AF9F84",
"N. c #AA9E8A",
"B. c #A19D9A",
"V. c #B3A68E",
"C. c #A9A399",
"Z. c #A9A39A",
"A. c #BBAE95",
"S. c #A9A4A1",
"D. c #B3ADA1",
"F. c #B9B7B4",
"G. c #BABABB",
"H. c #C4B79E",
"J. c #C6B89F",
"K. c #C7B9A0",
"L. c #CBBEA4",
"P. c #BDBEC0",
"I. c #C5C5C5",
"U. c #C7C8C9",
"Y. c #CACBCB",
"T. c #D4D4D4",
"R. c #D7D8D9",
"E. c gray86",
/* pixels */
"; ; ; : ; < = ; > > > ; > > , ; ; , , , < < = * ; * ; ; ; ; , > ; ; , > * $ > > , , * * * * , > * * ",
"; > : , , , : , > > $ > > > $ > ; > , > , , ; * ; $ * * * > , ; ; > > * $ $ * , < , > * > * > , < > ",
"; , , : * ; ; , > < > , > $ $ ; > , , > : ; ; & & * * * * , , * ; > ; * * > $ > , , , , > > * , s , ",
"; , = * * * # ; > > > > > ; $ $ ; ; > ; * p 2 w w 2 % * * , , * ; , ; * ; * $ > , < , * * ; - , , * ",
": ; ; $ # * # ; ; $ > , , ; * * > , , p 1 w j U R x e 3 y > , ; , , , , ; ; $ ; , > * * * , , , < , ",
"; ; ; ; ; : , , ; ; > , ; ; * * ; i 3 r k J G J R W W J r 9 i , * , , ; > > > > ; * * ; * < , < - * ",
", ; > > , < , , ; ; , s , ; : y 9 r J J G j j j j G U E W L d 9 i * , * > ; > > > * * , , > * ; * * ",
"; ; > > , , , ; , , s , , ; 4 r J J J j j j x z z k j G I E W I d 2 * * > > ; * * * ; > * ; > * ; ; ",
", ; ; , : : , : , < : : > u 7 j k j k g c Z ( &.&.) Z n j k L R R e y ; ; ; ; * ; ; , , ; ; ; : , > ",
"; ; ; , ; , : , : : , , p 9 d j j l Z ( $.e.h.b.n.n.u.*.( Z n J R I 0 % , > , ; ; , ; ; ; # ; ; ; > ",
"> > ; > , , , , ; ; > , 3 8 j k A O.e.g.f.s.a.s.d.d.v.n.b.u.%.A x W G 1 , , , < , ; ; ; $ $ ; : > < ",
"; > ; , , , , , : ; < i 7 j j m +.h.q.-.X.] ] a.p.] ` +.9.x.n.9.m L W d i , , , , : : ; ; $ * , , , ",
"; ; s s ; : , ; ; $ p 5 d j l / q.-.] %.0.9.} a.p./ 9.e.&.} ,.n. .l P R w p ; ; ; , , : * ; , , < , ",
"; , , , * ; , > * * @ d j g M ,.<.] e.d.d.q.} a.q.` 0.h.c.u.] t.x.A k R J @ : ; ; ; ; ; * * : , > < ",
"; ; ; , ; , , ; * 2 8 j j m +.p.] ,.s.s.s.q.] a.a._ <.s.s.h.e.} v.9.Z J W j 2 ; ; ; * # * > ; ; * > ",
"; $ ; , : ; > , y O h j l / p.+.o.s.s.s.d.q.] a.p._ <.s.s.d.c.*.$.v. .z I E r i ; ; $ ; ; > ; ; > , ",
"# ; = < , , ; , X O j g M -.-.] a.s.s.s.d.q.] a.p._ <.s.s.s.d.h.O.9.x.S g R P 9 & ; > ; ; , * > , ; ",
"* ; < , , , ; > X o h l C -.` <.s.s.s.s.s.q.] a.p._ <.s.s.s.s.h.f.} x.O.x H R e % ; ; ; > ; > > > , ",
"* ; * > , ; > = X o h x C @._ q.s.s.s.s.s.q.] a.p._ <.s.s.s.s.s.g.} q.$.4.3.T w = ; ; > > ; , , ; ; ",
"$ # * > > ; , = X o h l C @.` p.s.s.s.s.s.q.] a.p._ <.s.s.s.s.s.a.} q.%.L.S.T w = ; * * ; ; , = ; , ",
"; * ; ; < ; ; - X o h l D @._ q.s.s.s.s.s.p.] a.i._ <.s.s.d.s.d.a.} 0.%.K.S.Y w & * * ; * ; ; , , : ",
"; ; * ; ; ; ; , X o h x C @.Q <.p.p.p.i.i.<.] a.i._ ;.p.q.<.q.p.0.] p.O.K.S.Y w = * ; : ; * * < , , ",
"; : ; * ; ; ; = X o h x C @.C ` _ _ _ _ _ _ _ a.p._ _ ` ` ` _ _ _ / i.$.K.S.Y e & * * , , * , * , ; ",
"; ; , ; , , ; = X o h x C ;.=.@.@.@.@.@.@.@.,.s.p.#.o.| | | | o.| =.a.$.K.S.Y w = , : : , * > < ; * ",
"s , , > , > , < X o h g C 8.d.t.j.k.l.y.a.s.s.s.a.| ] } ] ] } } ] ] q.O.K.S.Y e = , > ; > ; , , ; * ",
", , , , > ; , = X o h g B i.u.V.F.I.I.D.l.s.s.s.p._ q.h.f.f.f.f.u.} q.O.A.Z.Y w a , > > > < < , > < ",
", : , > ; > : ; X o h x C <.z.L.T.R.E.R.D.y.s.s.q._ <.s.s.s.d.s.d.] q.O.2.m.F w - - > , , > > > , , ",
": ; ; ; * * * & X o h l C 8.Z.Y.T.T.T.E.U.z.s.s.p._ <.s.s.s.s.s.q.] q. .G t G w = < < - > < > , = ; ",
"> > , > * ; ; * X o h g B 7.Z.Y.T.T.T.T.U.6.s.s.p._ <.s.s.s.s.s.a.} q. .l j G e = * - > ; , > > ; ; ",
"> > < > > > , a X o h l D :.N.G.Y.R.T.T.F.l.s.s.i._ <.s.s.s.s.s.a.} q. .l j J e = > * * $ * * $ * ; ",
"> , > , , , , = X o h x C >.1.S.G.U.Y.P.V.t.s.s.i._ <.s.s.s.s.s.d.] q.} l j G e - > $ * ; ; ; ; ; > ",
"> > ; > , , , = X o j l C <.e.1.N.Z.Z.5.t.s.a.s.q._ @.>.>.>.,.,.;.` q.} f j x e - > ; $ > > ; * * , ",
"; # $ < , > , - X o h x C <.s.q.w.r.r.a.s.s.s.s.p.` _ _ _ _ _ _ Q _ q.X.U Y H e = ; > > , > ; * * , ",
"; ; $ ; > , > - X o h l C ,.p.0.<.<.,.<.<.0.q.s.s.-.@.@.+.+.o.@.o.-.s.O.M.m.K 0 = > , > , * > * ; , ",
"> $ $ > ; , , = X o h g C =._ } O.O.X.X.+.X.` e.p.] ] X.+.+.+.X.X._ q.$.L.S.T 0 = * * - , * * * * : ",
"> $ $ > ; ; * = X o h g C @.` d.h.h.h.g.h.t.] s.q._ e.h.g.g.h.h.f.} q.$.J.S.T 0 = = * - , - > = , ; ",
"$ > * * ; * , s X o h l D @._ p.s.s.s.s.d.q.] a.q._ <.s.s.s.s.s.s.] q.O.J.Z.Y e * ; , , = > - > , ; ",
"$ > ; ; , , s a X o h l C @._ p.s.s.s.s.s.0.] a.q._ <.s.s.s.d.s.s.] e.%.K.S.T e - > < , > , > > > > ",
"; ; ; , , , < - X o h l D @._ q.s.s.s.a.s.p.] a.p._ <.s.s.s.s.s.e.} q.O.H.S.Y e - > > > > , > > > ; ",
"; ; , , ; , ; * X o h k D @.` p.s.s.s.s.s.0.] a.p._ <.s.s.s.s.s.s.] q.O.H.S.T 0 & * ; ; $ > , , ; ; ",
"* ; ; > > < * = X o j l D @._ 0.a.s.s.s.s.i.] a.p._ >.a.a.a.a.d.a.] 0.$.V.B.T 0 & * ; * * ; * * * ; ",
"* # * * ; * ; * X o d f B @._ ..@.@.@.@.@.| ] a.p._ ..@.@.@.@.@.@._ e.O.~ ^ H w = > * * , - * * * : ",
"* * ; , * ; ; = X   + 8 C ..B S N B B V B B ! >.;.Q B B B B B B V D ;.{ 7 + w 5 & * > , > > * = * : ",
"; , * ; * , ; = X . . O N ! Q Q Q ! Q ! Q Q ! ' ' ! Q Q Q ! Q ` Q ! [ D 6 . o o = * > * > ; ; > ; ; ",
"; ; ; # ; * * , 4 1 1 1 v v b b b b b v v v v v b b b b b b b b b b b t q 3 9 4 = > > > > $ ; , * * ",
"* ; $ ; > ; ; ; ; ; * ; * * , , < , * $ # * ; ; > > , > ; > , > ; ; ; * ; , < > > , ; > > ; ; > * * ",
"* * * ; > ; , ; ; , , > , = , , < ; $ ; ; ; ; ; ; > < * ; ; ; > : , * * ; , , , > > ; > ; > < > ; * ",
"# * ; > , , ; , , , , ; ; , < , : ; ; > ; ; ; ; ; - , ; ; > ; $ * ; * * > , < > ; > ; > > , = * ; ; ",
"* * = , , , > , , , > ; ; ; , ; , : , : ; ; ; , > , > ; ; > ; $ * ; ; ; ; , , , ; ; > , = ; * ; * * ",
"* * < < > > ; ; , > > > ; > ; , , < < , , : > ; ; , ; ; > ; ; ; ; ; ; ; ; ; ; ; * , ; ; $ * ; , ; : "
};
