/* XPM */
static char *e507cdc0b0004f69c786c6d86c86a377lXxV8GKM2ZptBsYh[] = {
/* columns rows colors chars-per-pixel */
"50 50 134 2 ",
"   c #344E30",
".  c #344D2F",
"X  c #364F30",
"o  c #385231",
"O  c #324C2F",
"+  c #395332",
"@  c #324B2F",
"#  c #3A5432",
"$  c #375031",
"%  c #385030",
"&  c #365131",
"*  c #354F30",
"=  c #355031",
"-  c #385131",
";  c #364E2F",
":  c #395131",
">  c #3A5231",
",  c #374F30",
"<  c #314A2E",
"1  c #3C5532",
"2  c #344C2F",
"3  c #3B5331",
"4  c #334D30",
"5  c #30492E",
"6  c #2E472D",
"7  c #364D2F",
"8  c #3E5733",
"9  c #992C28",
"0  c #7B2A1B",
"q  c #E35448",
"w  c #862C26",
"e  c #543726",
"r  c #743A2C",
"t  c #A55431",
"y  c #080203",
"u  c #EA5E52",
"i  c #CB2A27",
"p  c #404229",
"a  c #AC2D2A",
"s  c #CA4A3B",
"d  c #3D4F32",
"f  c #4E412C",
"g  c #37492D",
"h  c #8F2C27",
"j  c #493D26",
"k  c #E0453F",
"l  c #933827",
"z  c #394D2F",
"x  c #4A4932",
"c  c #3D462D",
"v  c #E58355",
"b  c #3C4A2E",
"n  c #564430",
"m  c #58321E",
"M  c #87453C",
"N  c #D43F40",
"B  c #C7393A",
"V  c #AF3933",
"C  c #C12824",
"Z  c #5B3E26",
"A  c #C5211D",
"S  c #E3645A",
"D  c #EF6359",
"F  c #6E462A",
"G  c #7F422E",
"H  c #845245",
"J  c #75301E",
"K  c #DB3935",
"L  c #B1251E",
"P  c #A13128",
"I  c #B2643E",
"U  c #B35735",
"Y  c #452011",
"T  c #DF8B5B",
"R  c #C73C25",
"E  c #58503B",
"W  c #77483B",
"Q  c #EF4D5F",
"!  c #D82F35",
"~  c #CE5748",
"^  c #E54E44",
"/  c #E6584C",
"(  c #BB2F2A",
")  c #CF8058",
"_  c #BD6C48",
"`  c #A7673D",
"'  c #210C06",
"]  c #CE8657",
"[  c #6D5240",
"{  c #EC7160",
"}  c #933F2C",
"|  c #843229",
" . c #9E3A2E",
".. c #A0281F",
"X. c #A55D34",
"o. c #A7221C",
"O. c #925B37",
"+. c #BC372F",
"@. c #853925",
"#. c #CB724B",
"$. c #623225",
"%. c #E94042",
"&. c #D16053",
"*. c #713228",
"=. c #7D4C2B",
"-. c #89462A",
";. c #E49C5F",
":. c #A7452D",
">. c #B64832",
",. c #283822",
"<. c #18170E",
"1. c #C97D4B",
"2. c #934E43",
"3. c #DA5658",
"4. c #B9544E",
"5. c #614635",
"6. c #F56576",
"7. c #F77987",
"8. c #9B6A3E",
"9. c #C1513B",
"0. c #AE724B",
"q. c #F99AA7",
"w. c #B75C4E",
"e. c #9A4A31",
"r. c #321B12",
"t. c #D76A50",
"y. c #EB9361",
"u. c #D34A4A",
"i. c #8A5135",
"p. c #881E10",
"a. c #8A645A",
"s. c #1D2818",
"d. c #465539",
"f. c #D36F76",
/* pixels */
"  *   , $ # ; % & & O @ , > : 2 , > o + 1 1 $ @ X 2 4   * ; : % * 4 o = @ 6 * $ 1 #   @ < ; : , ; . ",
". % % : : 3 % : > & < $ - . 5   X $ # & 3 # . O . 5 O 4 2 - % 7 X $ o 4 6 @ O o 3 : ; 2 = , - : 3 4 ",
"X : > , . ; 2 - o 1 & + * < 5 O % : o X , . . @ @ 5 . . . > : 2 ; = 4 < O * @ % 3 3 > + X X   > 8 - ",
", : ; 5 5 5 5 4 & o & o = . @ <   . : O O % 7 <   .   < 5 o > ; $ +   @ @ . <   > # = . O   % : 1 X ",
", % @ 5 < 5 5 = 4 @ & 1 + X O @ % o $ $ : > % 7 2 ; : @ 4 & > ; , : % > X   < * + = O . . - : # 1 $ ",
"; ; ; O . - # o   4 X +   2 O < X + # # 1 > , < 5   - & o # 1 : 7 o 1 X - X   = * O < , , 1 # 1 >   ",
"%   = o # 1 # 3 * $ 3 1 : , X O * - - X + # * 5 @ % o # + 3 3 ; ; $ - X -   - $ $ X O % & X .   2 O ",
"= 4 * + + o - . - # 8 > 3 , $ : o = @   + & 4 O X . + # > 3 > ; .   @ @ , &   O @ @ 2 =   .   . ; X ",
"- , X 1 % X - , > 1 : , $ X X X X . O   o   @   X @ - : , ; O O X * 5 2 ; X * @ < * > 3 X 4   , , & ",
". *   - X - % : % % - o + . . O @ 5 z x x c < o : 7 3 o @ @ 5 O * < <   3 $ & X % % * * @ 5 @ ; X o ",
"= = 4 X - - > : 2   o o , 2 = c f n W w.4.2.n b % , $ o X @ O o * . $ o + + > 1 > . 4   @ 5 @ $ & # ",
"  & $ : 3 # # : $ X 1 + 2 n W 2.&.&.S { { S &.2.5.b ; > ; O = 4   X o o = + + # o d [ H E 5 @ : 3 # ",
"< % 3 1 ; & $ X 2 @ o 1 j  .S u q ^ q u u D D S t.2.n % . . * 4 & + - = * = &   d H 3.Q W . > 3 1 # ",
"X > 3 > @   > X 5 @ : d F ~ S q C A i k ^ / u D { { w.n 6   * 4 o 8 o o = = z , [ 3.6.Q W O ; % o 1 ",
"O X % # = & + , . ; z Z V s  .4.R A A K K k ^ / / / u w.f 2 X = 1 # * o o o n H f.6.6.Q M     . X & ",
"< <   > - = - > ; 4 b J h *.j 5.4.B A i A K u S q k q { t f   + 1 > # + 1 ; r N 7.q.q.Q M % X . X + ",
"< O % 3 # & . % X   g m j d   2 5.4.i A R { y.T v t.v y.) Z * + + $ 1 # # x | N 7.q.7.Q  .x   X & $ ",
"< 4 1 3 + & X $ 3   d c ; o ; O g r s R v ] O.Y 8.;.] =.O.Z , . = + 8 #   E l u.7.6.Q B | x * & o & ",
"2 O ; $ = 4 = $ > o > ; o %   < g *.+.t.0.Y ' y r.O.Z ' Y e > = 1 8 8 o & E l N Q %.! a F d + o ;   ",
"< 6 < = o X +   - 1 # # 1 + >   f :.9._ Y y <.,.,.<.' s.r.m p & o 3 1 $ 1 E M P ! ! a G x   - , ; : ",
"< < X X # - = = + 1 1 & & 1 & * Z 9.&.1.Y y <.,.,.s.<.,.<.m n 7 * , % : $ 7 [ -.l l G n 2 4 * % % - ",
"% * . ; .     # # 3 3 : + o X   Z s s v 0.Y ' y y y y y ' G i.p O o % % X   [ =.H [ x % . O ; 1 > > ",
"; X . 2 4 X 4 o 3 3 % <   , @ 2 Z 9.C R v ] =.' y y y y ' -.X.m e e e e e Z F M [ d @ : : ; & & &   ",
"; X > % + >   $   . - *   = O p 0.v R A R v T -.*.Y r.Y | t X.w V 9 0 @.J *.G W x , ; % > . $ # = < ",
"3 1 3 & + - # 3 . O $ o o * = j O.] v R A s y.U ..B ~ ~ a t X.9 N +.U ) i.H W E z : ; . % * o # $ @ ",
": - > + = X 3 $ @ O + o * O z e 0 | #.v R +.T I o.A ! ! L t ` 9 B +.T 0.G H 5.d 1 1 -   # 1 1 o o # ",
"3 $ > & * , , @ . # # 1 * X p 0 9 P l #.#.>.T ` P C i C o.t I w 9 V ) =.j W E + - + 3 3 + + - X > 3 ",
";       O O O 5   3 = + % c *.9 a N V @.1.U T 8.0 +.i C p.t I 0 w 9 w.F c E d.- $ 1 # > + # # o % . ",
"X = + & @   O O .     o % m P ( C B a 0 1.1.;.` r l +.V J O.` 0 w 9 U F b d o . X , , , % o = X     ",
"* # # o X % : 3 2 5 ; * p w ( ! K ( ..w t ;.;.X.@.} @.@.G X.8.m *.h U F g & = * & X @ 5 < . @ O @ * ",
"% 1 + + + % 3 : % $ o = e V k k N >. .0 0 X.;.t ..V M M l t ` j p *._ =.z o   & + & @ < @ . . O O $ ",
"  * 4 & # o + X $ - $ O e B k s ~ _ e.0 @.I ` l o.C V a o.} e.m z n ` F 7 -   o # o . @ o o * O @ : ",
"2 O 4 # # o o - , o X = j P ~ v ) -.J w l ) t p.o.i N i L w } J f b f p < = X - O   - & + * . 2 @ > ",
". * O 4 & o = $ + o = > e 0 T 1.O.a.H w  .) h L L i %.K L t _ w $.d # # = * O . . % : % :   . ; ; > ",
"X 5 5   * - $ X > -   c $.J I -.H a.M 9 >.] 9 ! i K %.^ ( :.] :.w j = * & & O O 7 ; 2 : : , ; < 2 % ",
"2 5 O X X $ O $ + # > e 0 0 0 w M M | P #._ ..K k k q u B L U U 9 $.b * < * * 2 , ; 2 7 : , ; ; , ; ",
"< . O @ 2 . X 8 8 : f w h h h h 9 h 9 >.T  .L k D u D D k C .._ I | Z 2 O - : 2 . 2 3 3 , % , # + X ",
"5 , O , : 3 8 8 > z e h 9 9 ..a B ( a #.I a K q / q q / q i ( :.) _ F g   * > o # # 1 : % : X & & $ ",
"7 7 - + # o 1 o % 7 c *.h 9 a B k N 9.] :.C ^ u u D q a s N k ( U 8.x - X   3 o & & + * o + = o & * ",
"< ; - o = > $ 2 2 . @ c j m | P V 9.#.t L i ^ q u D / P ~ q ^ s } f o # = 4 =   5 4 . O @ * o o *   ",
"2 .   X - > . . O . - $ & , p j $.G e.9.s u.3.3.S S &.l } ~ >.G f b > + = O . < 5 O . @ . . O O <   ",
"2 5 O . $ ; . 4 * $ , , $ & 4 O g p $.r r r r r r r r f p r f g     % 3 + , O % ,   2 ; : ; 2 2 . $ ",
"< 5 O $   .   . * . O % 3 $ * O o - z g z b g z g z % 7 $ % o & @ @ > 3 X : > 3 . @ % % - = @ ; 7 ; ",
"  + .     , ; & * O   % -   X X > o $ : : % + & X +   X * = * - . . , # . > # o . @ X ; = = 2 ; ; 2 ",
", X 5 < . O   & $ . O 5 < .   @ & 8 $ . < O $ . . : & = = # # 3   $ , 4 2 1 8 %   = % $ & < 7 > O @ ",
"2 @ < . = O ; . X = @ @ X . & + 1 + @ 6 6 O     , $ -   . + o &   $   6 @ 3 1 o = # ; & &   . X @ @ ",
"5 6 5 , $ X o $ X - $ $ > : o # 8 = < O X @ . . . : 1 % . - *   , > ; @   > 3 + = &   = . % # +   . ",
"6 @ $ o o > X : > # o   , 3 # - , ; , o * .   4 O % o   O $ O @ 2 . . O - 3 1 +   * = = $ 3 % < @ 4 ",
"5 2 > + + + - : # + & O ; 2 % X - % > : X ; * o o o $ 4   + * < @ 4 X     : # &   * X - , ; 2 < < O ",
"X $ 8 # $ & * . 3 X =   ; : - - 1 1 1 3 : % & X ; , . O o = 4 < .   - . 2 - *   ; %   . < < , : , : "
};
