/* XPM */
static char *_584695de3564dd9c8a1e0e26e879ce6aDCmNLByzhMIOfCN[] = {
/* columns rows colors chars-per-pixel */
"50 50 229 2 ",
"   c #030102",
".  c #0C0301",
"X  c #0E0D0A",
"o  c #140906",
"O  c #1B1717",
"+  c #220B08",
"@  c #2C140B",
"#  c #32180C",
"$  c #2A2928",
"%  c #3F3D3C",
"&  c #481E0E",
"*  c #461B19",
"=  c #4C2515",
"-  c #532410",
";  c #5A391D",
":  c #782B19",
">  c #63361B",
",  c #76361D",
"<  c #443F26",
"1  c #4C3D2A",
"2  c #5B3324",
"3  c #533C24",
"4  c #5C3826",
"5  c #533A2A",
"6  c #59382C",
"7  c #662B24",
"8  c #742D24",
"9  c #7F2C23",
"0  c #772E29",
"q  c #693825",
"w  c #683A24",
"e  c #653C2B",
"r  c #693A29",
"t  c #78392C",
"y  c #7D3638",
"u  c #2E462D",
"i  c #2F482E",
"p  c #35462C",
"a  c #3B442B",
"s  c #334C2F",
"d  c #3C4B2E",
"f  c #354E30",
"g  c #394E30",
"h  c #375031",
"j  c #3A5231",
"k  c #3F5833",
"l  c #4C4123",
"z  c #43432A",
"x  c #49412B",
"c  c #47492C",
"v  c #54432D",
"b  c #58432D",
"n  c #4D4532",
"m  c #444D33",
"M  c #4C4933",
"N  c #544632",
"B  c #5B4532",
"V  c #564936",
"C  c #475437",
"Z  c #58533C",
"A  c #664120",
"S  c #6E492C",
"D  c #694437",
"F  c #6B4D3C",
"G  c #764838",
"H  c #7A5538",
"J  c #594842",
"K  c #585151",
"L  c #735144",
"P  c #AB1B1A",
"I  c #882719",
"U  c #822A1B",
"Y  c #972717",
"T  c #8B371D",
"R  c #96331B",
"E  c #A62E1C",
"W  c #BB2A1D",
"Q  c #BF1E22",
"!  c #832E24",
"~  c #8A2E22",
"^  c #852E2A",
"/  c #8B2A2B",
"(  c #972926",
")  c #94262B",
"_  c #922D2B",
"`  c #9D2B2D",
"'  c #883726",
"]  c #85342C",
"[  c #813D2B",
"{  c #9B332A",
"}  c #983928",
"|  c #832D31",
" . c #863A33",
".. c #993632",
"X. c #A32B2B",
"o. c #AB2929",
"O. c #BA2927",
"+. c #A83927",
"@. c #AB322D",
"#. c #B73827",
"$. c #A52D32",
"%. c #AC3133",
"&. c #A43A34",
"*. c #B33132",
"=. c #BB3934",
"-. c #C11D1E",
";. c #C23A1F",
":. c #C51C24",
">. c #C71E2B",
",. c #C52523",
"<. c #C22A24",
"1. c #C92828",
"2. c #D12D29",
"3. c #C63727",
"4. c #D5352F",
"5. c #CF2935",
"6. c #C73737",
"7. c #D6393A",
"8. c #E23F36",
"9. c #89421C",
"0. c #83482A",
"q. c #894A29",
"w. c #984224",
"e. c #9D4C2B",
"r. c #8A532C",
"t. c #98552D",
"y. c #844333",
"u. c #8B433B",
"i. c #86493A",
"p. c #964737",
"a. c #8E5235",
"s. c #955938",
"d. c #AA472A",
"f. c #BD422D",
"g. c #AE473C",
"h. c #B64B38",
"j. c #A95639",
"k. c #B9533B",
"l. c #B45A3C",
"z. c #96653A",
"x. c #A9633C",
"c. c #B3653D",
"v. c #C24123",
"b. c #CA412C",
"n. c #C84235",
"m. c #DA4138",
"M. c #DB493B",
"N. c #C8563A",
"B. c #D85836",
"V. c #E34236",
"C. c #E1433C",
"Z. c #E34B3D",
"A. c #E3543D",
"S. c #C36939",
"D. c #C53B42",
"F. c #E63E44",
"G. c #F33746",
"H. c #8C4E42",
"J. c #864C4A",
"K. c #9C4444",
"L. c #855748",
"P. c #965845",
"I. c #AC4642",
"U. c #AB5645",
"Y. c #B55547",
"T. c #B65C58",
"R. c #926340",
"E. c #A96A42",
"W. c #B76746",
"Q. c #BC6C41",
"!. c #B36A4E",
"~. c #BC7445",
"^. c #BA7A4D",
"/. c #BA7D52",
"(. c #8F6761",
"). c #C44B41",
"_. c #CD4D44",
"`. c #D84143",
"'. c #D94A42",
"]. c #D5584B",
"[. c #C95656",
"{. c #C55B56",
"}. c #DB5957",
"|. c #E44E43",
" X c #E74B4A",
".X c #E65548",
"XX c #EC544B",
"oX c #E74C56",
"OX c #F3495B",
"+X c #E45C55",
"@X c #EB5D53",
"#X c #C66B49",
"$X c #DD6A44",
"%X c #C6774A",
"&X c #D87B47",
"*X c #D36D54",
"=X c #CB7A52",
"-X c #E3784F",
";X c #E76558",
":X c #EB655A",
">X c #F1655A",
",X c #DE5866",
"<X c #F65767",
"1X c #F26866",
"2X c #E57663",
"3X c #E76E70",
"4X c #F4737C",
"5X c #C4814E",
"6X c #DC8C4E",
"7X c #D38255",
"8X c #D9885C",
"9X c #DD9259",
"0X c #E6824E",
"qX c #E58956",
"wX c #F3895C",
"eX c #E29358",
"rX c #F6A95D",
"tX c #DA8D61",
"yX c #DD9260",
"uX c #E08561",
"iX c #EA9163",
"pX c #F07081",
"aX c #F77683",
"sX c #999797",
"dX c #ABAEAD",
"fX c #FA8C97",
"gX c #FB9FAB",
"hX c #FAA8B3",
"jX c #CFCFCF",
/* pixels */
"f f f g h j d h h h f s f h h f f h h h j j h s f s f f f f h h f f h h s i f h j j f s s s h g s f ",
"f h h h h j h h h h s h h f s f f h j h h j s s f s s f s h h f f h h s i s f h j h s s h f h h j f ",
"f h h g s f s h h j h j f s i f h h h f f f s s s s f f s h h s f h f s s f s h j j h h f f f h C h ",
"f h s s i s s f h h h h h f s s f f h f f h f s f s f s i h h f h h f s s s s f h j h f s f h h j f ",
"f h s i s s s h f f h j h f s s h h h h h h h s s g h f f h h f f h h h f f s f h h s s s h h j j h ",
"g g f f f h j h f f h j f s s s f h j j j h g s s f h h h j j h s h j f h f f h f s s g f j j j h f ",
"h f h h j j j h f h h j h f f f f h h f h j f s s h h j h h h f f h h f h f h h h f s h h f s f s s ",
"h f f h h h h f h j j h h f h h h h s f h h f f h f h j h j h g f f s s f h f s s s f h f f f f f f ",
"h f f j h f h g j j h g h f f f f f f f h f s f f s h h g f s f h h s s f f f s s f h h f f f f f h ",
"f f f h f h h h h h h h h f f g n n N V z z a h h s h h s s s s h f s f h h h f h h f f s s f f f h ",
"h h f f h h h h s f h h f f V H.{.[.[.[.I.Y.H.b d f h h f s f h h f h h h h h j h f f f s i f h h j ",
"f h h h j j j h h f j h f F {.+X:X;X1X1X:X1X;X{.H.N g h f s h f f h h h h h h j h j j j f i s h j j ",
"s h j j s h h f s s h j B {.+X'.m.m.M.Z.XX@X>X>X2XT.B d s s f f h h h h f h h f j L T.L s f j j j j ",
"f h j j s f h f s s g b I.'.m.6.:.,.4.8.V.|.@XXX@X;XT.B p f f f h j h h h f f g J.}.<XK.f s f h h j ",
"f f h j h h h g f f d  ._.+.} g.6.:.5.1.3.A..X|.Z.|.;XU.1 s f h j j f h h m m L.,X1X<XK.f f f f f h ",
"s s f h h h h j f f m ] p.v z b U.6.:.<.B.wXiX0X$X-XiX8XS s f h j h j j j x K.3XpXaXOXK.g h f f f j ",
"s f h j j h f h f f d 2 x h f s e ).3.$XeX/.> z.9X8XE.x.S s f h h h j j j e D.pXhXgX<XI.g h s f h h ",
"s f j j h h f h j f g a f h f s 2 =.N.8XA # o # z.R.# & ; g h f h h j j m [ D.4XfXaXoX%.v f f h h h ",
"s s f h h f h h h h h f h h f a y.f.#Xw . $ sXsXN @ K J = z h h j k j h C u.D.4X1XOX7._ V f h h f f ",
"s i s h h f h f h j j j j h j l g.N.7X- . $ jXjXsX% dXK - ; g h h h j h Z u.6.G.G.7.@.G g f h g f h ",
"s s f f j h h h h j j h h j h < g.b.-X/.= + O O O X O o > s.z f f f h h m F } O.5.@.[ M s f f h h h ",
"h f s f f f f j j j j h h h h l g.3.;.0X5X0.@         . > x.l s s h h h h Z i.y.y.G n g s s f j h h ",
"f f f s f f s h j j h s f f p H 7Xb.-.3.0XeXr.@ .     + , Q.> 4 1 g d d j Z i.H.L m f h h s h h h f ",
"f f h h h h f h f f h h f h a a.8XqXb.Q 3.qX~.' 7 * * 0 w.Q.U g...7 2 2 2 t i.F g f f g h s h j h s ",
"h j j h h h j h s s h h h f 1 9 } ~.qXb.W &X%XY 6.].].=.w.^.I `.=.~ p.[ t 0.H M f h g s h s h j h s ",
"h h h h h f j h s f h h h p 7 ( { R Q.-Xv.&X5XY >.2.2.O.w.^.Y D.%.N.tXP.L.G V h j j h f j j j h h j ",
"j h h h f g g s s j j j g 6 / o.6.=.T ~.S.&X%XR 1.,.1.E w.^.I ` $.2XE.w G F m h h j j j h h h f j j ",
"g f f f s f s i f h h j x ] *.O.6.*.I c.7X6X5X: @.1.<.Y 9.^.: / $.*Xr.< D Z h h h j j h j j j h h f ",
"h h h h s f s s f f s g w X.7.5.6.X.: e.9XrX~., ] @.#.! q.^.: / ) k.q.z V C h f h h g h h h h f f f ",
"h j j h f h h j s s f z { 7.F.7.n.{ : : t.eXS.T u.[ [ y.q.!.; 8 _ j.q.a g h h f h f s s s s s s s f ",
"h j h h h h h h h h h z &. X`.N.#Xl.: ! p.j.e.Y %.p.u...T j.3 3 ! j.r.a h h f h h h s s s s f f f h ",
"f h f h j h h f h h h a t _.$XtXs., ! / ' l.I P O.=.*.o.I ' 7 z 4 W.s.a h h f h j h f f h h f s s h ",
"f f f j j h h h f h f h l #XyXz.L.L.] ) } =Xo.P ,.7.2.O.R j.9 6 c H S p s f f h s f h h h f f s s h ",
"f h f f h h h h h h h h l E.t.i.(.L.| ) +.8XO.,.,.8.C.O.R x.~ 7 d d d h h f f f f h h h h f s s f h ",
"f i i f f h h f h h f h 4 ! ! u.J.y | ( h.uX3.4.2.V..X6.+.7X} 8 z f h f h h f f f g s h h g d s s h ",
"f s s f f h s h h j j 3 0 | / ^ | / ) { #X#X3..XC.|.@XM.#.=XY._ 2 g h f f f f f g s s s h g d s g f ",
"s f s s f f f k j h 5 ^ ) / / ) ` ( ` h.8X} 6.>X>X:X:X X<.E l.d.8 x h h f h h f f s h j g h d j h f ",
"s f s f h h k k h g 6 _ X.X.( o.6.=.o.%Xc.+.M.@X.X].}.7.7.#.l.=Xd.t z f f h h h j j j h h h h h h h ",
"s s h h j h j h h s a e ^ ( X.6.`.n.N.7X+.3.|.@X@Xn.=.'.C.M.#.Q.=XH d h f f h h h h h f h h h h h f ",
"s s h h h h h s s s s d x 5 t _ @.k.%Xd.W m. X.X@Xf.+.+XZ.A.N.T H m h h h f h f i f f f s f h h f f ",
"s s f f h h f f f f h f h h a a 3 S q.k._.].].].].j., Y.].k.[ v d h h h h s f s s f f s s f s s s f ",
"s s s f h f f f f h f f h h f s s d c r r r q w r B d v r b d f f f h h j h s h h f s f h s s s s h ",
"s s f h f f f f f f f h h h f s h h f s d d s d f h j f g h j h s s j h h h j j s s h h h h s s s f ",
"f h f f f f f h f f f h h f f f h h h h j h h h f h f f f h f h f s g j f h j h s s f f h h s f g s ",
"f f s s f s s h h f s s s f f s h j h f s s h f f h h f h j j h f h g f f j j h s h h h h s f h s s ",
"s f s s h s f f f h s f f f h h j h s u u s f f f h h f f h h h f h f u s h j h h j f h h f f f s s ",
"s i s s h f h h f h h h j h h j j h s f f f f f f h j h f h f f f h f s f h h h h h f h f h j h f s ",
"i s h h h h f h h j h f g j j h f f f h f f f f f h h f f h f s s f f s h h j h f f h h h j h s f s ",
"s s h h h h h h j j h f g s h f h h h h f f f h h h h f f h f s s f f f f h j h f f f h g f s s s s ",
"f h j j h h f s j f h f g h h h j j j h h h h f f h s f h h f s f f h f s h f f s h f f s s f h g h "
};
