/* XPM */
static char *_eff8f41a6b84cf5d86e270a0460f876jQVkNNkJm9NfHRtE[] = {
/* columns rows colors chars-per-pixel */
"50 50 90 1 ",
"  c #364F30",
". c #375031",
"X c #344D2F",
"o c #334C2F",
"O c #314A2E",
"+ c #344E30",
"@ c #385131",
"# c #3A5332",
"$ c #385231",
"% c #A61319",
"& c #D91921",
"* c #364E30",
"= c #3A5432",
"- c #365131",
"; c #3A5231",
": c #2F482E",
"> c #3C5532",
", c #343631",
"< c #314334",
"1 c #324834",
"2 c #332F2D",
"3 c #EEC9B7",
"4 c #344B34",
"5 c gray25",
"6 c #3D3D3C",
"7 c #434542",
"8 c #88171B",
"9 c #671B1E",
"0 c #323C32",
"q c #5F2224",
"w c #3D2626",
"e c #3A3937",
"r c #A91319",
"t c #741A1E",
"y c #534037",
"u c gray65",
"i c gray29",
"p c #98151A",
"a c #5A473B",
"s c #D01921",
"d c #51504E",
"f c #3C5633",
"g c #2F4033",
"h c #453A33",
"j c #BBBCBC",
"k c gray88",
"l c #C3C3C3",
"z c #4F2324",
"x c #BF1920",
"c c #E6C0AD",
"v c #625F5C",
"b c #B2181E",
"n c #573130",
"m c #494038",
"M c #969593",
"N c #595754",
"B c #727170",
"V c #981D22",
"C c #E0222A",
"Z c #6A4E43",
"A c #B2B2B2",
"S c #D4D4D5",
"D c #887367",
"F c #444E48",
"G c #861F23",
"H c #997F70",
"J c #725948",
"K c #7A6659",
"L c #818181",
"P c #797A79",
"I c #3E5833",
"U c #A1181D",
"Y c #442E2B",
"T c #A33036",
"R c #A88A7A",
"E c #CDCDCD",
"W c #872B2F",
"Q c #B89682",
"! c #DCB5A1",
"~ c #686868",
"^ c #C1A18E",
"/ c #683635",
"( c #868686",
") c #CDA895",
"_ c #D43036",
"` c #762D30",
"' c #B3252C",
"] c #F6F7F7",
"[ c #FDFDFE",
"{ c gray95",
/* pixels */
"+ + .=*.--oo ;@o ;$#>f.O oX+ *@. X$.O: .>=+oO+@ *X",
"X..;@#.@;-O.@XO+ .=-#=XoX:oXo@.X .$X:Oo$#@*o. @@#X",
" @; X*o@$>-# O:o.@$  XXoO:XXX;@o*.XOo o.##;#  +;I@",
" @*O:::X-$-$.XoO+X@oo.XO+X+O:$;*.#+OoXO+;=.Xo+.@> ",
" .O:OO:.XO-># oo.$..@;.Xo*@oX-;* @.; +O #.oXX@@=>.",
"***oX@=$+X #+ooO.=>>f#.O:+@-$=>@X$> @ +. oO  >=>;+",
".+.$=>=# .#>@. 4441<14114@#=###**.@ @+@.. o.- X+oo",
".X ##$@X@=f#-<,Yzq9GWW`nne1 ##;*X+oo -+oOoo.+X+X* ",
"@  >. @ ;>.<Y98pprs&&&&&s'Wn04oo  Oo*  OO ;# X+  -",
"X +@ $.;.12qp%rp9x&&&&&&&&&CTngX OO+#.- ..  O:o* $",
"..X.-+4g2q8%r%%9V&&&&&&&&&&&C_/<.X.$##;>;XX+O:o.-=",
"+- g2Yzt8%r%%r8ts&&&&&&&&&&&&&_n4 $$.$#=;.@.*:o@#=",
"O..w88Ur%%%%%%8b&&&&&&&sxUVx&&CT0#@. ..+.@#*oX;#>=",
" ;#,99tp8%%%%%b&&&&&&sVq/Zaqb&&_n#$$.. XX oOoo*.$>",
"o @4wt89t%%%%pb&&&&&UqZHQ)^DnU&C`4 $$$.+ XO:+++X -",
"OO+;1w9z8r%%%tV&&&sGyH)!c3c!RyVCT<>#>*XX++oo @ X #",
"Oo.#>+0zU%%%%px&&stZQ!333333!Ry'T<f==.*Oo+ X+$+ -.",
"OX>##$1q%%%%%r&&&Ga^c33333333cR/W<I=+OOO+X +.+ -$-",
"oo*..+<9%%%%%b&&bwmKR)c333333cQyw4I$@oXO+oX.@ #$*+",
"O:O.$.<tr%%%%b&&t5i765ND^c3)HN7624>.>=+o XX+o+@ *@",
"OO  =$<9r%%%%rsxw7iiii766KD75iii,4.@.ooOOXo+XX .@@",
". X*X <9%%%%%%xG2,e,,e65eNd66eee,@...+$+ooX.Xo*>;;",
"* XoX.1z%%%%%%%qJvuuMPi5,DD7BLNLFX$->#oXXoo@@+---+",
"* ;.##4wp%%%%%pnHvl[[liPv!^Bk](L7XXo .oX+ *.;X.=.O",
"#>#-#@=,8r%%%%pYQDBS]{ABH3cKMkE~,oXo@@ o*@*X +$=.O",
"@@;#. =<9%%%%%pwK!DvPLvKQRHDdNKH7oX+$$  =>@1g<>$$=",
"#.;-   O28r%%%Utn^cRJmmme,266hJM7:. @$$#$*<d(v4 ;#",
"*+++ooo:gzpr%%%%tav7eee6556ddi7e0 o+.$= <FPMAM1$.X",
" .#-o+ooXgz8%r%%%9we5555557dddi,1o:.. 1FBMuuAAF+++",
" ==$ .@#o:12q8p%r%twe555565i7e01 oO+<7~jAuuujjN:o ",
".>###.#@..$+<,Yq99t9w2,2222,01*X.o17~AESuujjljFOo.",
"+ X-=$# .@.o=f <wt9wqqt88Gw0=.X 40duEEkSjjlll(<oo@",
"ooX==$$@ $  =>#,8xb9xs&&&C`z110<dBMESSkkljlAP<ooo;",
"X oX-$..#$.$#=4zr&Vts&&&&CWq26~iMuuEkkkkl(vF1XX**;",
" ::+ @. ;@X$@@0YqVq8x&&&&CThy2BNLuASkkSuv<<.;.*Oo.",
"o:o  .o.#=##$42haazpx&&sssTYma7~vjlSlPN<1*X*@ ** *",
"OXoooX II;@ O,yayhwqGVG/Zqn2ha,BNMuPF1*oXo## . =# ",
"O o @#II;.XO4eyJKZ2yaahLjdJhyy2dB77<o ;$==f@.@ --.",
"*X@#=$>$.XOo-ghJJh2hyaedL622ay06i0 $ +#$--# $#.$- ",
"O*@$.;.ooXO $+0my265e,02676,g1=4<@##.X.+:XXoO $$ +",
"oX+ @;XXoX@ ..X<02,e,g12,6,<X+.$--;#.oXO:oXoXXooO+",
"o:oX.*XX .  .-oo1,aZa<4,yZZ<*-.. X.## o. +o*@*ooX.",
"O:o.+X+X Xo.#. o 0em64+0hm61@##-oo;# @;#Xo..@.o*X*",
"+#X++ *- o+.@+  ;@44*.#.4+o  . @XX =X;=$Xo *..o**o",
"  :OXo+-.XoOOX+o-f-XOo.XX$-..==#+. Xo>f.+...-OX;oo",
"ooOX.o*X .oO X-#f#O::o++ .@+X#$-+.+:o#>$.=*--+X oo",
"O:O . $. @..;@$=f.Oo OXXX@>.X@ + ;*O+;##.-+.X.=#+X",
":o.$$; @;=$+ #=@ * $ X+Xo.$+o.oOoXXo@#>#+ ...#@OoX",
"Oo;###@@=#-o*o. @.;@ * $$$.X+# OOX ++@=-+  @ *oOOo",
" .f=.- X# .+*@@@>>>#@.- * Xo$.XOX+@Xo@ +*.+XOO @ @"
};
