/* XPM */
static char *bd43c5e7e3bd42eee910891ea428193eBZYsAH04AZTEtl0e[] = {
/* columns rows colors chars-per-pixel */
"50 50 101 2 ",
"   c #2C4527",
".  c #2E4727",
"X  c #2C4528",
"o  c #2D4628",
"O  c #2F4629",
"+  c #2E4729",
"@  c #2D452B",
"#  c #2E472A",
"$  c #2F4828",
"%  c #2F482A",
"&  c #2F482B",
"*  c #30472A",
"=  c #304929",
"-  c #314929",
";  c #31482B",
":  c #30492B",
">  c #314A2A",
",  c #324B2B",
"<  c #334B2B",
"1  c #344E2B",
"2  c #30492C",
"3  c #32492C",
"4  c #314A2C",
"5  c #314A2D",
"6  c #334A2D",
"7  c #324B2D",
"8  c #30482E",
"9  c #324B2E",
"0  c #344B2E",
"q  c #344B2F",
"w  c #334C2C",
"e  c #334C2E",
"r  c #334C2F",
"t  c #344C2C",
"y  c #344D2D",
"u  c #354D2D",
"i  c #354F2C",
"p  c #354C2F",
"a  c #344D2F",
"s  c #354E2E",
"d  c #364E2E",
"f  c #364F2F",
"g  c #374F2F",
"h  c #36502D",
"j  c #38522F",
"k  c #324A30",
"l  c #334B31",
"z  c #344D30",
"x  c #364D30",
"c  c #354E30",
"v  c #354E31",
"b  c #374E31",
"n  c #364F31",
"m  c #344C32",
"M  c #374E32",
"N  c #364F32",
"B  c #384F32",
"V  c #384F33",
"C  c #375030",
"Z  c #375032",
"A  c #375033",
"S  c #385030",
"D  c #385131",
"F  c #395131",
"G  c #395330",
"H  c #395033",
"J  c #385133",
"K  c #395232",
"L  c #3A5232",
"P  c #3A5333",
"I  c #3B5333",
"U  c #3A5431",
"Y  c #3C5633",
"T  c #385134",
"R  c #3A5134",
"E  c #395234",
"W  c #395235",
"Q  c #3B5235",
"!  c #3A5335",
"~  c #3A5336",
"^  c #3C5336",
"/  c #3B5434",
"(  c #3B5436",
")  c #3B5437",
"_  c #3C5434",
"`  c #3C5535",
"'  c #3D5535",
"]  c #3D5734",
"[  c #3D5437",
"{  c #3C5537",
"}  c #3D5636",
"|  c #3E5636",
" . c #3E5737",
".. c #3D5638",
"X. c #3E5739",
"o. c #3E573A",
"O. c #3F5838",
"+. c #3F583A",
"@. c #415A3C",
"#. c #455E40",
"$. c #486143",
/* pixels */
"& N N N N ( N a N N a : N ~ ~ a N J J J ( ( A 9 A r a N a a A A a a ~ a 9 & N A X.~ a : < a g g J a ",
"& A N A N { J J ( N a N N r 9 a N J J J ( ( A 9 r : r N N A J a N N A 9 9 9 N A ~ J a a g J J J J a ",
"9 ~ J J a ~ N A { J A ~ A : & r N A J A A A a : r : 9 r N ~ ~ r N ~ a : 9 a 9 A ~ ~ J J a a J J X.~ ",
"r ~ N a + 9 & r A J ~ ~ A a 9 9 N A a a a a a 9 a a a 9 9 J ~ a a ( a r 9 a : N { ~ J a a a a J X.~ ",
"9 A r :   : & r : a A ~ ~ N r : A J J h A ~ A a r N A a 9 J ( N a X.A N N N : N J a 0 0 a a J { { N ",
"r A a a r J A ( a : a ( ( a 9 9 N J J J ( { J 9 : a ~ J N ~ ( N N ( ~ J J A r A N r 9 N J J J { ~ N ",
"a J a J ~ X.( { a a J { ~ N r N N A A A ~ ( N & 9 a ~ ~ ~ ( ( N N N J N J A A N N a 0 B ~ B N N N 9 ",
"r N a ~ ~ { a a a { +.( A J J N J A a a N ~ N & N N ~ ~ ~ ~ ~ N N 9 N 9 N N ~ a a 9 9 a N 0 0 N N N ",
"N A A ~ J a J h { ( J a J A N N J a r A J N r r r N J J a a a r ~ a : 9 A A a : 9 N ^ ^ B 0 a N A A ",
": N A J a : h J a a J J J N a 9 9 9 a J N : 9 J ~ A J J r : 9 r N 9 9 N J J N A A N N N 0 * 9 J N A ",
"9 N a N h J / J a a J J a a A N 9 9 N J a + 9 ~ ~ N N ~ a : r A a r a ( ( J ~ X.~ N 0 a 9 + 9 ~ / / ",
"9 A N N J { { J A a { { r r ~ J { N a A N 9 9 A N a A ~ A a a A a A J J J A J ( ~ A N B N 9 a ~ J J ",
"+ ~ { ~ a a J J : : / { a a J N X.A 9 a a 9 r N N J J J r a a : a J J a a a A N A ~ ~ J N N J ~ J J ",
": ~ ( ( A r A a : : J / a N ~ ~ N a r 9 : : a J A ~ J a & r a w J / J a a A A a a A B 0 9 N B J J J ",
"r N a J J A J a a a a a a h ~ X.r N N r 9 9 N J a N h a : a J h { / J J J A N N a r : : 9 a a a a A ",
"+ r a J J a J { a h J J J J N J ~ ( ( A N A J N N N J J a a h J O.J h { / a 9 N J r : a J J a a A J ",
": 9 J J / { : a a a a r N ~ N a N N N 9 9 9 a N : J ~ ~ A N ~ J J J J J ( J a : r N N A N N N N J A ",
"& N { { / J a A J A A r a J a 9 9 N N 9 r N a 9 J { ( ( J a A a a / { J r + & 9 N N N A A J A N J A ",
"+ N N A h a a J J J J a A ~ a 9 r r r 9 a A a : J ( ~ ~ J A ~ N ( { { ( A r 9 9 N N a N J J J h r a ",
"+ r + r h a J a J J { J ( X.A r A r 9 9 a N a r N J N J ~ J ~ A { ( J J { ( N 9 N r r a N N A J A ~ ",
"+ N 9 J { J J a J J { J ( X.J N ~ r 9 N A 9 9 N J ( J J A a A a a N A J A a r 9 9 9 r a a r a J N N ",
"r A N N a w a J { J / a N ~ A N J r a ( ~ 9 9 N ~ { J J N a N r a N J ~ A a r r 9 r N N a r a J ~ ~ ",
"A A N 9 : w a / J J J a r A a r N a N ~ ~ N r N J J a N A A J a J A A J ~ ~ N a a a a A A a a J N a ",
"A N ~ A J { a a a a J a N A 9 : N N N N N A N N N N : 9 A J ~ r a r r r a N a 9 N a a J J a h J a r ",
"$.J { { a J J { A : A J ~ N ~ 9 a a r & + 9 N J a N N r 9 r a a 9 N r r J J r 9 a J a r a h J { r 9 ",
"@.A ~ ~ a J J J : a J J J 9 r N a A J J A J ~ ~ 9 a N a 9 9 a N 9 a N N J ~ A N { { J A { { ( J { ~ ",
"+.a A J a J a : : { / J J r : ~ h J { { J J a a 9 N ~ A a r N N a r N A A ~ ( J a J ( J ~ ~ N N ( ~ ",
"N a A N r a r   a / h J J J r A J J J A a r : : N J ( ~ A a a a N 9 a A N ~ ( a a / { ( ( ~ J ~ a a ",
": N J A : : a : a a w J r J N r a a a r a a J J A J ~ ~ J N r 9 J 9 9 N a J J a J J a a ~ ( ~ N a N ",
"9 ( { ~ A a J J a : a J : N J a h a a a a h J { J J ~ ( ( ~ N N N 9 9 a a J h a a a : + 9 r 9 9 a N ",
"r ( ~ ( _ J { J a a J a A A ~ J { J A a a a J J J J ( { { ~ A A N N a h J h a A J J N 9 9 r l N 9 N ",
"9 N : A ~ J J a A J a : { / ~ J +.( A a a a J J h J ~ ( ~ a r a A ( J J J a r J { J r 9 ~ ( N 9 N J ",
"& r r J { ~ J J h / h 1 _ _ h J ~ ~ A a N A N 9 a J J J J : r { @.A A 9 : N N ~ : N ~ ~ B N N N a J ",
"r N 9 r A a A J j / h 1 / / h J A ~ N r N ~ ~ A J ( J J J a 1 ( ~ N { ~ A ~ r 9 a A ~ ~ B N 0 a a J ",
"9 N 9 N J N a a / j J J J ( / { ~ ~ ~ N N J J J { ( J J J h a J N N J A N J a : J N 0 B ~ J a 9 h J ",
"+ r 9 N J a a a { J J J J J { X.N A A N a N N a ( ~ J J J h h J A N N 9 : N A r N r 0 B J B N N A a ",
"& a 9 9 r r J { { J J h a a N N 9 9 r 9 9 9 a N N A J ( J A J { J ~ ~ A a N J r a N ~ ~ N 0 N { J a ",
"+ N N N A h { O.( A a a a r r N a a r 9 & 9 N J a N J ( J J { { A ~ J J N A { A ~ ~ ~ ~ J B J J J A ",
"+ N A ( { J J J a a 9 r J A N J N A J N r r N ~ A a a J a J { / A J N A N N { ~ ~ J N a B ^ ~ a J N ",
"9 A a N J J A w a a 9 9 ~ A r ~ : a J ~ A N J ( ~ r : a a J { J ~ ( J { J r A r   r N 9 : N ~ ^ N a ",
"9 N 9 N J J a r w a A J J A N 9 a r N ~ N : 9 ~ 9 9 9 : : a A J A A J J A a 9 9 9 9 9 0 a a 0 9 : 9 ",
"+ 9 9 a h a a r J a N N N N N r 9 J ~ a 9 r N N N A A N a h J J a N J ( ~ N N A N N N N N a a 0 N A ",
"& N r a A a a a a w r J ~ ~ N N ~ J A N A A A N N J J A A J J J 9 a J ( ~ A J ( r a N J J N N J N N ",
"N ~ a N A a A A a : r A ~ A N r ( J A ~ ~ A A J a N A N N J ~ J 9 N A N A ~ ( ( 9 9 N ~ J a N J a a ",
"l N 9 9 N a N N J a : : 9 : r N N { ( 9   r A a N J J N N ~ ( ~ a J N 9 r ( X.A A N B J N 0 a B 9 9 ",
"9 l & 9 N a N N h a a r r a J ~ X.~ r + + 9 a r A ~ ~ N N ~ ~ J N ~ N + 9 { X.N ~ ~ B N a N B ~ 9 9 ",
"+ l 9 N ~ N J J a a A A J { { J @.N + r A a 9 a N ~ ~ N a A N r a A N 9 a ( { J A A N a B ~ ~ B N N ",
"+ N N ~ ( A A A J J A a a / ( N 9 N ~ ~ N a N N 9 A J N a N N 9 N N a N A ~ ( ( r N N N ~ ^ B * 9 9 ",
": 0 ^ ~ A ~ J A X.~ N N a N B a J J { J a a J J J { J a ~ ~ N 9 r r N r N ~ J ~ r A J ~ N 9 N 0 9 a ",
": a { J a J N a ( N a a a B J N J J { J a a J N a J a : N N 9 & N N N 9 r A N N a N N a : : B N N B "
};
