/* XPM */
static char *_0952b0eabd6433bb6256bed02132ff7[] = {
/* columns rows colors chars-per-pixel */
"50 50 177 2 ",
"   c #030303",
".  c #080706",
"X  c #070808",
"o  c #0A0B0C",
"O  c #120A03",
"+  c #130E0B",
"@  c #0F0F10",
"#  c #161616",
"$  c #161815",
"%  c #1D1915",
"&  c #191B19",
"*  c #261302",
"=  c #2A1602",
"-  c #2F1A06",
";  c #2B1B0B",
":  c #351C03",
">  c #302010",
",  c #222324",
"<  c #432303",
"1  c #4B2703",
"2  c #4D2803",
"3  c #542C04",
"4  c #5E3105",
"5  c #623406",
"6  c #6A3606",
"7  c #6B3B06",
"8  c #65330E",
"9  c #6A3608",
"0  c #6E3D09",
"q  c #703F04",
"w  c #733F09",
"e  c #693610",
"r  c #2E462D",
"t  c #2F482E",
"y  c #334B2F",
"u  c #3C4D2C",
"i  c #3C512F",
"p  c #354E30",
"a  c #384F30",
"s  c #375031",
"d  c #3A5231",
"f  c #3E553C",
"g  c #46441F",
"h  c #4C461E",
"j  c #5B4415",
"k  c #594617",
"l  c #544419",
"z  c #50481F",
"x  c #67400E",
"c  c #6F420C",
"v  c #734103",
"b  c #7C4505",
"n  c #74410B",
"m  c #7A440D",
"M  c #644513",
"N  c #6A4612",
"B  c #774315",
"V  c #794315",
"C  c #734813",
"Z  c #7B4B14",
"A  c #655D1E",
"S  c #685E1D",
"D  c #7C5F15",
"F  c #776419",
"G  c #79661A",
"H  c #7B681B",
"J  c #444622",
"K  c #4A4720",
"L  c #464923",
"P  c #4B4C24",
"I  c #424E29",
"U  c #4D5126",
"Y  c #42522C",
"T  c #4B562A",
"R  c #535321",
"E  c #525826",
"W  c #595A23",
"Q  c #415833",
"!  c #475C3F",
"~  c #676120",
"^  c #4C6244",
"/  c #556951",
"(  c #796242",
")  c #834C13",
"_  c #835017",
"`  c #895116",
"'  c #865119",
"]  c #8B541C",
"[  c #8C581E",
"{  c #986005",
"}  c #9D730F",
"|  c #846917",
" . c #9D771A",
".. c #B1770C",
"X. c #B57A0B",
"o. c #BC7D0C",
"O. c #AB7310",
"+. c #B47D13",
"@. c #B97E10",
"#. c #8F5A21",
"$. c #905B21",
"%. c #925D23",
"&. c #925E25",
"*. c #956126",
"=. c #99652B",
"-. c #9C6A2E",
";. c #9E6B30",
":. c #9E6C31",
">. c #967C38",
",. c #A06E33",
"<. c #A16F34",
"1. c #A27136",
"2. c #836F51",
"3. c #887C66",
"4. c #BA800D",
"5. c #AB801D",
"6. c #B68115",
"7. c #BC8314",
"8. c #B1831E",
"9. c #BD851B",
"0. c #A9812D",
"q. c #BD8A23",
"w. c #BA8D36",
"e. c #C28515",
"r. c #C58719",
"t. c #C48B1C",
"y. c #C88B1E",
"u. c #C58D21",
"i. c #CD8D21",
"p. c #C78E28",
"a. c #CB9226",
"s. c #C39129",
"d. c #CC952B",
"f. c #CE982D",
"g. c #D1962C",
"h. c #D0992E",
"j. c #CE9A33",
"k. c #CF9D38",
"l. c #D49D35",
"z. c #D6A037",
"x. c #DAA43D",
"c. c #A8894A",
"v. c #B88F42",
"b. c #B89044",
"n. c #B89249",
"m. c #A08A61",
"M. c #A99777",
"N. c #B49F7A",
"B. c #C19A4D",
"V. c #D9A641",
"C. c #DEAA46",
"Z. c #D2A34A",
"A. c #DCAB4A",
"S. c #C3A05B",
"D. c #DFAF50",
"F. c #E0AA45",
"G. c #E3AF4B",
"H. c #E3B04D",
"J. c #E4B353",
"K. c #E4B75C",
"L. c #C5A66C",
"P. c #CCAC71",
"I. c #869184",
"U. c #ADA18B",
"Y. c #AEA89E",
"T. c #B3AA98",
"R. c #AAAEA7",
"E. c #B6B3AD",
"W. c #B2B2B3",
"Q. c #B8B7B3",
"!. c #BCBDB9",
"~. c #C4C7C5",
"^. c #C5C6C8",
"/. c #CDCDCF",
"(. c #D4D4D5",
"). c #D7D7D8",
"_. c #D9D9DA",
/* pixels */
"p p p a s d u s s s p y p s s p p s s s d d s y p y p p p p s s p p s s y t p s d d p y y y s a y p ",
"p s s s s d s s s s y s s p y p p s d s s d p y p y y p y s s p p s s y t y p s d s y y s p s s d p ",
"p s s a y p y s s d s d p y t p s s s p p p y y y y p p y s s y p s p y y p y s d d s s p p p s Q s ",
"p s y y t y y p s s s s s p y y p p s y J j j g u p p y t s s p s s p y y y y p s d s p y p s s d p ",
"p s y y y y y s p p s d s p y y s i P j Z %.=.' N z u p p s s p p s s s p p y p s s y y y s s d d s ",
"a a p p p s d s p p p s p y p y K M ) $.%.*.:.1.-.] N z u d d s y s d p s p p s p y y a p d d d s p ",
"s p s s d d d s p s s d s u h N _ $.%.] ] ] ] &.;.1.;.[ C j I p p s s p s p s s s p y s s p y p y y ",
"s p p s s s s p s d d s Y M ' %.%.] ] ] ] ) ) ] ] %.-.1.:.$.C L p p y y T ~ S W u p p s p p p p p p ",
"s p p d s p s a d d s a j ) #.] ] ] ` ) 0 3 2 9 m ) ] $.=.1.=.N u p t T } 7.k.q.S p s s p p p p a s ",
"p p p s p s s s s s s K m ] ] ) ) 0 3 : O     O = 1 9 m ) #.<.#.j y y | h.a.x.K.8.E p p y y p p p s ",
"s s p p s s s s y p I c ) ] ) 4 : O       o o X     O = 2 n &.<._ h W 9.F.x.t.J.A.| p p y t p s s d ",
"p s s s d d d s s u M ) ] ` 5 O     X o # # # # o o X     < ) =.-.C D e.t.t.e.C.J. .Y p p t y s d d ",
"y s d d y s s p y l m ] ] n * X o # # # # # # # # # # o o O 5 ] ;.*.{ 7.e.9.4.x.H.5.T p y p d d d d ",
"p s d d y p s p J n ] ] ) < . # # # # # # # # # # # # # # o * n #.,.O.u.u.d.9.l.J.q.U y y y p s s d ",
"p p s d s s s u x ) ] ` 4 O @ # # # # # # # # # # # # # # # . < ) *...f.u.d.u.d.J.s.R t p p p p p s ",
"y y p s s s s j m ] ] w * o # # # # # # # # # # # # # # # # @ O 4 ` ..z.u.d.d.u.J.j.A p p s p p p s ",
"y p s d d s J 9 V ] ) < . # # # # # # # # # # # # # # # # # # o * b X.V.u.a.x.t.H.z.F p p s y p s s ",
"y p d d s s L 9 V ] m * @ # # # # # # # # # # # # # # # # # # # O 7 @.C.u.a.V.t.H.z.G p s p p s s s ",
"y y p s s p L 9 B ] m ; # # # # # # # # # # # # # # # # # # # # $ R 6.C.u.a.V.t.H.z.F p s p s s p p ",
"y t y s s p P 9 B ] m > # # # # # # # # # # # # # # # # # # # # & U 6.C.u.a.V.t.G.z.F p y p s a p s ",
"y y p p d s L 9 B ] m > # # # # # # # # # # # # # # # # # # # # & P 6.C.u.a.V.t.G.z.F p y p p s s s ",
"s p y p p p L 9 B ] m > # # # # # # # # # # # # # # # # # # # # & U 6.V.t.i.z.t.H.z.F s y y p d s s ",
"p p p y p s J 9 B ] m > # # # # # # # # # # # # # # # # # # # # & P ..y.u.t.t.t.H.z.F s s y s s s p ",
"p p s s s s L 9 B ] m > # # # # # # # # # # # # # # # # # # # # & U +.a.x.A.x.t.H.z.G s s y s d s y ",
"s d d s s s P 9 B ] m > # # # # # # # # # # # # # # # # # # # # & P +.B.N.T.S.t.H.z.G y s y s d s y ",
"s s s s s p P 9 B ] m > # # # # # # # # # # # # # # # # # # # # & P 0.Y./.(.U.q.H.z.c./ s d d s s d ",
"d s s s p p L 9 V ] m > # # # # # # # # # # # # # # # # # # # # $ l m.~.(._.E.w.H.l.P.R.d s s p d d ",
"a p p p y p L 9 V ] m > # # # # # # # # # # # # # # # # # # # # % 0 M./.(.).!.b.G.l.L.~.^ d d s s p ",
"s s s s y p J 9 B ] m > # # # # # # # # # # # # # # # # # # # # % c M.^.(.(.Q.v.H.z.L.!.! s s p p p ",
"s d d s p s L 9 B ] m > # # # # # # # # # # # # # # # # # # # # % v c.W./.(.Y.w.G.l.L.I.y y y y y p ",
"s d s s s s P 9 B ] m > # # # # # # # # # # # # # # # # # # # # % q +.N.R.W.N.u.H.z.>.f y y p p p s ",
"p s p s d s P 9 V ] m > # # # # # # # # # # # # # # # # # # # # % n X.p.n.L.Z.t.H.z.G p s s p y y s ",
"p p p d d s P 9 B ] m > # # # # # # # # # # # # # # # # # # # # , 2.7.g.x.G.x.t.H.z.G s s p p y y s ",
"p s p p s s L 9 B ] m > # # # # # # # # # # # # # # # # # # # # , 3.6.d.a.a.a.t.G.z.G p s p y y p s ",
"p t t p s s L 9 B ] m > # # # # # # # # # # # # # # # # # # # # , 3.q.D.u.d.A.t.G.z.G s s a y y y s ",
"p y y p p s J 9 B ] m > # # # # # # # # # # # # # # # # # # # # , 3.9.C.t.a.V.t.H.z.F y s a u y a p ",
"y p y y p p L 9 B ] m > # # # # # # # # # # # # # # # # # # # # , 3.9.C.t.a.V.t.H.z.H s a s u d s p ",
"y p y p s s P 9 B ] m > # # # # # # # # # # # # # # # # # # # # , 3.9.C.t.a.V.t.H.z.H s s s p s s s ",
"y y s s d s P 9 B ] m > # # # # # # # # # # # # # # # # # # # # , 3.9.C.u.a.V.t.H.z.G p s s s s s p ",
"y y s s s s L 9 V ] m > # # # # # # # # # # # # # # # # # # # # , 3.9.C.t.a.V.t.H.z.F p y p s s p p ",
"y y p p s s L 9 B ' m ; # # # # # # # # # # # # # # # # # # # # & ( 7.l.t.y.l.t.H.z.F y y p y y y p ",
"y y y p s p L 9 8 e 9 ; o o o o o o o o o o o o o o o o o o o o + 7 X.r.y.y.r.e.x.h.F p s y y y y s ",
"y y p s p p L 7 9 9 6 < - - - - - - - - - - - - - - - - - - - - : v o.i.i.i.y.4.i.r.G p s s y y y p ",
"p s p p p p u l l l l l l l l l l l l l l l l l l l l l l l l l l j F G G H H G G G W p s s y p a y ",
"p p y y p y y s s p p y y p p p s d s p y y s p p s s s s d d s p s p p p d d s p p s s s y p d y y ",
"y p y y s y p p p s y p p p s s d s y r r y p p p s s p p s s s p s p r y s d s s d p s s p p p y y ",
"y t y y s p s s p s s s s s s d d s y p p p p p p s d s p s p p p s p y p s s s s s p s p s d s p y ",
"t y s s s s p s s d s p a d d s p p p s p p p p p s s p p s p y y p p y s s d s p p s s s d s y p y ",
"y y s s s s s s d d s p a y s p s s s s p p p s s s s p p s p y y p p p p s d s p p p s a p y y y y ",
"p s d d s s p y d p s p a s s s d d d s s s s p p s y p s s p y p p s p y s p p y s p p y y p s a s "
};
