/* XPM */
static char *f058af63b8c74b5cd5c1041d5cbd5150zPMc9OEX4UO8sQzU[] = {
/* columns rows colors chars-per-pixel */
"50 50 174 2 ",
"   c #161615",
".  c #191616",
"X  c #171817",
"o  c #1B1916",
"O  c #161719",
"+  c #191719",
"@  c #16191B",
"#  c #1B1B1C",
"$  c #201713",
"%  c #221A15",
"&  c #2C1D14",
"*  c #221D1C",
"=  c #341F14",
"-  c #1B231E",
";  c #25231D",
":  c #2A261F",
">  c #22281F",
",  c #2B291C",
"<  c #382619",
"1  c #372D1D",
"2  c #1C1E22",
"3  c #201F21",
"4  c #172120",
"5  c #1C2323",
"6  c #1E2A25",
"7  c #1F2228",
"8  c #1E2E29",
"9  c #222224",
"0  c #2A2624",
"q  c #232C24",
"w  c #2D2A24",
"e  c #25262A",
"r  c #252A2B",
"t  c #292A2D",
"y  c #352B20",
"u  c #3C2E21",
"i  c #332E2A",
"p  c #233126",
"a  c #22332A",
"s  c #25392D",
"d  c #293D2D",
"f  c #33312C",
"g  c #3A332B",
"h  c #272A31",
"j  c #2C2E33",
"k  c #252E39",
"l  c #2E3135",
"z  c #263A37",
"x  c #2A3E30",
"c  c #2F333B",
"v  c #313236",
"b  c #363836",
"n  c #3D3934",
"m  c #31343B",
"M  c #353A3D",
"N  c #3C3A3B",
"B  c #422516",
"V  c #482713",
"C  c #473726",
"Z  c #443432",
"A  c #443C35",
"S  c #423C39",
"D  c #2D432E",
"F  c #2F482E",
"G  c #31462F",
"H  c #334C2F",
"J  c #2D4531",
"K  c #2F4932",
"L  c #314631",
"P  c #354E30",
"I  c #384F30",
"U  c #375031",
"Y  c #3A5231",
"T  c #3F5833",
"R  c #56402B",
"E  c #494236",
"W  c #4B443E",
"Q  c #50483B",
"!  c #5A4E3D",
"~  c #415833",
"^  c #5F523E",
"/  c #625239",
"(  c #293642",
")  c #2C3943",
"_  c #333741",
"`  c #363943",
"'  c #3A3D45",
"]  c #3B3E49",
"[  c #423F44",
"{  c #3C4144",
"}  c #3E414C",
"|  c #454447",
" . c #42434D",
".. c #42454D",
"X. c #43494B",
"o. c #4D4C4B",
"O. c #57504B",
"+. c #434551",
"@. c #454751",
"#. c #464955",
"$. c #484A56",
"%. c #444F5B",
"&. c #494B58",
"*. c #4E5655",
"=. c #4C535C",
"-. c #545354",
";. c #51565E",
":. c #635546",
">. c #6F5C4A",
",. c #6F5E5C",
"<. c #6F614A",
"1. c #73634C",
"2. c #7C6C4F",
"3. c #7D6C53",
"4. c #404D62",
"5. c #565B62",
"6. c #5A5964",
"7. c #5E5D66",
"8. c #515B6A",
"9. c #485B77",
"0. c #5A6467",
"q. c #566068",
"w. c #5E626B",
"e. c #68686B",
"r. c #727069",
"t. c #626E74",
"y. c #6C6B74",
"u. c #66737B",
"i. c #69757F",
"p. c #847458",
"a. c #8A775A",
"s. c #8D7A5E",
"d. c #8C7B60",
"f. c #958263",
"g. c #A58D6A",
"h. c #A18970",
"j. c #A79271",
"k. c #AD9672",
"l. c #B69D76",
"z. c #BB9F75",
"x. c #BAA27A",
"c. c #C1A67C",
"v. c #C4AA7E",
"b. c #4E6387",
"n. c #5E7292",
"m. c #727F87",
"M. c #75838C",
"N. c #778495",
"B. c #798797",
"V. c #8B8985",
"C. c #84959E",
"Z. c #9A9998",
"A. c #BFA981",
"S. c #899AA5",
"D. c #909AA1",
"F. c #8DA1AC",
"G. c #9BA5AA",
"H. c #B1AFAF",
"J. c #A3AAB8",
"K. c #AAB0B5",
"L. c #C0A680",
"P. c #CDB384",
"I. c #D1B78A",
"U. c #D6BA8C",
"Y. c #D9BE8B",
"T. c #EDCC95",
"R. c #E9CA98",
"E. c #F4D69C",
"W. c #FDDB9F",
"Q. c #FFDEA1",
"!. c #ABBBC4",
"~. c #BAC1CD",
"^. c #C6CCD4",
"/. c #CDD1D6",
/* pixels */
"P P P P U Y H U U U H H H U U H U U U U Y Y P H P H P P P H U U P P U P H F U P Y U P H H P U I H H ",
"P I U U U Y U U U U H U U P H P P U Y U Y Y H H H H P H H U I P P U U H F H P U Y U H H U I U U Y H ",
"U U U I P U P U U Y U U P F F P U U U H U P P P P H H H H U I H P U P H H P H U Y Y U U P P P Y ~ U ",
"U U I H H H H P U U U U U P H H P P p b 0.*.X.{ M l r q q q > - a P P H H H H P U Y U P H P P U Y P ",
"U P H F H H H U P P U Y U P H P U s e 7.7. .] ] }  . ... .[ ` j 5 - a P P P H U U U H H P U U U Y U ",
"I I P H P U U U P P U Y P J s a 6 2 -.6. .+.#.$.&.&.$.$.&.&.&.$.@.M 9 4 d P H P P H H I P Y Y Y U P ",
"U P U U Y Y Y U P U Y J 6 5 t v N ..5.$.#.$.$.$.$.$.$.$.$.$.$.$.&.&.@.m 2 a U U U P H U U P P P H H ",
"U P U U Y U U P U Y x 5 { 7.e.w.5.=.&.$.$.$.$.$.$.$.$.$.$.$.$.$.$.$.&.&.` 2 a P H H P U P P H H P P ",
"U P U Y U P U I Y J 5 -.y.6.@.#.$.$.$.$.$.$.$.$.$.$.$.$.$.$.$.$.$.$.$.&.$.m 2 s H P U U P P P P I U ",
"P P P U P U U U P 6 | 7.' m } #.$.$.$.$.$.$.$.$.$.$.$.$.$.$.$.$.$.$.$.&.&.$.j 5 P U U P H H P P U U ",
"U P P P U U U U D 5 [ e t +.&.$.$.$.$.$.$.$.$.$.$.$.$.$.$.$.$.$.$.$.$.$.$.&.m # L P P P H H P U U U ",
"U U P U Y Y Y U d # # 9  .&.&.$.$.$.$.$.$.$.$.$.$.$.$.$.$.$.$.$.$.$.$.$.&.} 5 X x U U U P F H U Y Y ",
"H U Y Y I U U I d O # ] $.$.&.$.$.$.$.$.$.$.$.$.$.$.&.$.$.$.$.$.$.$.$.$.#.t # 9 8 U Y H H P U Y Y U ",
"U U Y U H P U P x 2 j $.$.$.$.$.$.$.$.$.$.$.$.$.$.$.&.$.$.$.$.$.$.$.$.#.j   9 v 5 P H H H H U U U Y ",
"P U U Y P U U I d 2 } $.$.$.$.$.$.$.$.$.$.$.$.#.+.} $.$.$.$.+.@.$.$.$.m 9 -.9 m 2 J H H P P P P U U ",
"H H P U U U U Y a e @.#.$.$.$.$.$.$.$.$.$.$.$.+._ ' $.&.&. .c +.&.$.M # 0 o.# v 5 d H P P U P P U U ",
"P P U Y Y U P U 6 j ` } &.$.$.$.$.$.$.$.$.$.#.` c ` #.&.@.j h $.$.m # : g g # v 5 D P P P U H P U U ",
"H P Y Y Y U P P 5 j e } &.$.$.$.$.$.$.$.$.#.] c c _ #.#.` 2 e m j # A h.L.j.> 9 2 D U P P P P U U U ",
"H P U P U P U P 5 # 5 } $.+.#.$.$.$.$.$.$.+.m c c m +.} j # e 9 * f w ! v.P.:   5 J P U U P Y U P P ",
"H F H U U P Y P 5   9 } @.` +.&.$.#.$.$.#.` c c j m ' ` e   X # :.j.j.^ / x.: # 8 P H P H P U I P U ",
"H H P P Y U U P 6   9 ] ] c ] #.@.] @.$.+.m c l t m m m 9 . X 0 S n ! f.P.l.9 s x P H P H P P U U U ",
"U P H P P P P Y q . 9 m m c m +. .m ` @.} c c l e m m m # i i Z.N.9.4.b k.g.5 K P H P U H H P Y U U ",
"U P P H P P H U q # 2 c m c c ` ` c c ` ` c c l 7 c m c # 0 e.^.b.N.8.;.3.p.5 P P H P U P P U U U P ",
"P P U U U U P P s a # l c c c c c c c c c c c l 2 j m l # ; V.~.9.{ t ;.1.<.6 P P P P U U H U Y P H ",
"Y Y Y U U U U U J D # t t t m c c c c c c c m v # t m l # w r./.n.8.%.;.a.1.6 P P U H H I H U Y P H ",
"U U U U P U Y U P P q 2 9 5 l c c c c c c c c m 9 5 m l # Q E H.J.N.D.W v.a.5 P Y Y U P Y Y Y U U U ",
"Y U U U P I U H H Y L # # # e c c c c l c c c m e # j c # :.f.E O.-.W 2.E.s.5 U U Y Y Y Y U U P Y Y ",
"P P P P P P H H U U U d O X # e m m c e j m c m j # 9 v 5 A R.Y.c.z.v.T.W.>.6 U U Y Y Y U Y U U U P ",
"U U Y U H P H H P P H U q - a @ e c m t # t m m m 2 O e t ; x.Q.Q.W.Q.W.l.w d P U U U U U U U U P P ",
"U Y Y U P U U U H H P P J 8 P s 2 2 t l 9 # 9 j m t # X 9 # ^ T.W.E.U.a.w a P P U U H H H P H H H P ",
"U Y U U U U U U P P U P P P U U P p # 2 9 # . # e j 9     O # <.3.! i 5 d P P U U U H H H H P P P U ",
"U U P U U U U P U U U H Y Y U U ~ Y G 6     . . X # # X + * ;   - a D P U U P U Y U H P U U P H H U ",
"P P P Y Y U U U P U P P Y Y U U Y U U d X 9 + M *.# # #   Z ,.# s U U H H U P U H P U U Y P P H H U ",
"P P P P U U U U U U U U Y Y U U P U U s t | 9 t.C.' l 5.9 # S 5 J U Y U P P P P H U U P U P H I P U ",
"U F F P U U U P U U P U U U U Y Y U J 5 X.' v m.S.q.t B.=.5 2 5 P P U U U U P P P I H Y U I H H H U ",
"P F P U U U H U U Y Y Y U Y T T U P s O 5.j X.M.S.i.9 M.M.j c 5 P U U P P U P P I H H H U U H H I P ",
"H P H H P P P ~ Y U U I H P U U P P 5 # w.r y.D.!.G.t i.S.M ) 5 D U U P P U U H P H Y Y I I I Y U P ",
"H P H P U U Y T U U H H P P P P P d   e w.9 y.G.^.K.t t.F.=.z e s U U P P U U U U Y Y U U U U U U P ",
"I H U U U U Y U U H H H U P H P P q 9 v t.# ; w f 0 # u.F.t.k k 6 P U U U P Y U U U U P U U U U U P ",
"H H U U U U I H H H H P U P P U H 6 # ' q.w d.s.s.3.9 i.F.M.k ( 5 P U U U P U P P P P P H U U U P P ",
"H P P U U U P P H P U P U U P P J r * | 5.g U.T.T.A.0 u.F.C.c ) 5 P U U U H P H F P P H H P H H H P ",
"H H H P U P P P P I U P U U H P s f 0 9 v # 3.I.Y.1.9 t.m.u.l 5 @ D U U Y P H U P P H P U H H H H U ",
"H F H U P P P P P P P U U U P H a S n 0 # # $ y y % # 3 9 # # 6 a G Y U U U Y U H H U U U P H P H U ",
"P U P P P P P U P P P U U P U U a N S w p - 1 C C R u . ; o p U P H U Y P Y Y U H H U P U U H I H H ",
"U P H P P H H U P P H H H P P P D r 0 q F q o & & & $ & = # D U P U U P P Y Y U H P P U P H I U H H ",
"P P H H U H P P U U H P P P U Y Y F d F F a % B V B $ = < # P U P U H F P Y Y U U Y P U U P P P H H ",
"H F H H U P U P P U P U U U U Y Y U H P P D q , 1 1 , > > p P P P U H H P U U U U U P U P U Y U P H ",
"H H P U U U U U U Y U P U Y Y U U P U U U P P H H I U P H P P H H P H H U Y Y U P U P U P Y U H P H ",
"H H U U U U U U Y Y U P P H U P U P U U P P U U U U U P P U P H H P P P P U Y U P P U U U I H H H H ",
"P P Y Y U U P H Y U U P I U U U Y Y Y U U I U U P U H P U U P H P P U P H U P P P U P P H H P U P U "
};
