/* XPM */
static char *wall[] = {
/* columns rows colors chars-per-pixel */
"48 48 147 2 ",
"   c #2E3A37",
".  c #2E363C",
"X  c #2F3A3C",
"o  c #32373E",
"O  c #333C3D",
"+  c #383A3F",
"@  c #34413E",
"#  c #38423D",
"$  c #2F3D44",
"%  c #343D42",
"&  c #363F4A",
"*  c #2F4041",
"=  c #344242",
"-  c #394345",
";  c #344A44",
":  c #3E4A46",
">  c #3A454A",
",  c #3B4A4B",
"<  c #364650",
"1  c #3B4C54",
"2  c #3E4C58",
"3  c #40454E",
"4  c #404D56",
"5  c #435152",
"6  c #41515D",
"7  c #4B5E64",
"8  c #4C636B",
"9  c #50656F",
"0  c #5E696B",
"q  c #4B6471",
"w  c #4A667B",
"e  c #48697D",
"r  c #617479",
"t  c #67797C",
"y  c #68797C",
"u  c #476D83",
"i  c #496C83",
"p  c #4F7B9D",
"a  c #537E9F",
"s  c #6D7E82",
"d  c #737D81",
"f  c #527FA3",
"g  c #6F8184",
"h  c #748385",
"j  c #73868A",
"k  c #798788",
"l  c #76898D",
"z  c #798988",
"x  c #7B8E92",
"c  c #7A8C98",
"v  c #6B909F",
"b  c #7E9296",
"n  c #7E9398",
"m  c #5380A4",
"M  c #5583A8",
"N  c #5A89AF",
"B  c #5D8BB0",
"V  c #638CAC",
"C  c #6E92A1",
"Z  c #7294A3",
"A  c #7798A7",
"S  c #7A9BA9",
"D  c #618EB1",
"F  c #6691B3",
"G  c #6D96B6",
"H  c #749BB9",
"J  c #7A9FBC",
"K  c #7CA0BD",
"L  c #808B92",
"P  c #82969A",
"I  c #8B979A",
"U  c #83989D",
"Y  c #8B999C",
"T  c #8A9DA2",
"R  c #8DA1A6",
"E  c #83A2AF",
"W  c #8CA4AC",
"Q  c #95A3A6",
"!  c #93A5AA",
"~  c #95A8AE",
"^  c #9BA9AE",
"/  c #84A3B2",
"(  c #89A6B3",
")  c #8DA9B6",
"_  c #83A6BF",
"`  c #8EABBB",
"'  c #92ABB6",
"]  c #9BACB2",
"[  c #93AEB9",
"{  c #96B0BC",
"}  c #9AB3BE",
"|  c #A0ADB5",
" . c #A4B1B6",
".. c #A1B3B9",
"X. c #AAB6BB",
"o. c #A5B9BF",
"O. c #A8BABF",
"+. c #B0BABD",
"@. c #85A7C0",
"#. c #87A9C1",
"$. c #8EADC4",
"%. c #91AFC3",
"&. c #94B1C5",
"*. c #9CB5C2",
"=. c #9FB8C7",
"-. c #9BB6C9",
";. c #9FB9CB",
":. c #A2B7C3",
">. c #A4BBC4",
",. c #ABBEC4",
"<. c #A3BCCC",
"1. c #A9BFCD",
"2. c #A6BFD0",
"3. c #ADC0C7",
"4. c #AEC2CB",
"5. c #B0C2C7",
"6. c #B1C4CC",
"7. c #B5C8CF",
"8. c #B8C9CF",
"9. c #ACC3D2",
"0. c #B1C6D5",
"q. c #B6C9D4",
"w. c #BCCDD4",
"e. c #B2C7D9",
"r. c #B6CADB",
"t. c #B9CCDC",
"y. c #BFD0D6",
"u. c #BFD0D9",
"i. c #C1CED3",
"p. c #C1D1D7",
"a. c #C5D4DA",
"s. c #C9D6DC",
"d. c #CBD9DE",
"f. c #D0DBDF",
"g. c #C9D7E0",
"h. c #CEDBE1",
"j. c #D3DEE2",
"k. c #D6E1E5",
"l. c #D9E2E7",
"z. c #DDE5E9",
"x. c #E0E7EA",
"c. c #E3EAED",
"v. c #E8EDEF",
"b. c #E6ECF0",
"n. c #E9EEF1",
"m. c #EEF2F4",
"M. c #F1F5F6",
/* pixels */
"> = % % % . % % % - $ O # O   * @ X @ * - & % = % = $ O O > % o $ O X %   % % % % % O O X = @ ; ",
"% % % o o $ + O   % % O % O O O @ @ = , , - > > - ; > > - > $ O X     X   % % O X O   $ X X X = ",
"O O % O % % @ @ O O X X % . O # O @ , y y t y y y y y t y r - @ ; @ @ @ % % # % % O @ O @ O O O ",
"% % % O O O O - = * % $ $ = = % O @ 5 l l l l l l l l l l h 0 Y I Y I T Y Y Y Y Y d % O + O + % ",
"@   o   O % , w u u u u u u i u e e 7 l l j j j j j j j l g k d.d.d.d.d.d.d.d.d.d. .% O % O % O ",
": - # - - @ 2 m N N N N N N N N N M q x W ^ W x j P ~ ~ R j k a.a.a.a.d.d.d.u.a.s.| 3 - > , < > ",
" . . . . .h 5 a B F D B D D D F B m 9 P O.5.o.b j R 3.5...l s *.} { >.a.y.3.{ } } | L  .|  . . .",
"d.s.s.d.d.Y 6 a G 9.-.@.4.$.$.0._ m 8 P O.5.O.P j Y 3.5...l y } [ [ } y.y.=.[ [ [ ] Q d.d.d.d.d.",
"<.w.d.s.d.I 6 a H d.0.&.d.<.;.d.&.m 8 U O.5.O.n j R 3.3...l g 3.o.=.3.y.a.4.>.o.>. .Q s.d.d.r.;.",
"V ;.d.d.d.I 5 f G 9.;.#.9.&.&.0._ m 8 n 3.5.o.b g R 3.5...z z s.a.a.a.d.d.a.a.a.a.X.Q d.d.d.>.D ",
"B ;.d.d.s.I 2 a F $._ H $.K K &.K m 8 b ~ ^ ~ b j n ' ] R j z d.d.d.d.d.d.d.d.a.s.X.Q d.d.d.;.N ",
"B ;.d.d.s.I 4 a H y.9.&.u.-.-.a.` m q l j x l j j l x l x g h 4.3.3.5.a.a.7.3.4.3...Q s.d.d.;.N ",
"G <.d.s.d.I 1 p H a.9.&.h.<.;.h.$.m q x R R T x j P T Q U z g } { [ } y.a.>.[ { { ] Q d.d.d.9.G ",
"r.h.k.k.l.O.L ` ;.s.t.9.&.K K &.K m 8 n O.5.o.n j Y ,.5...l g *.[ [ } a.a.*.[ ' { ^ Q d.d.d.y.9.",
"z.m.m.m.m.v.c.v.b.b.b.z.$.H H @.G m 8 n O.5.o.n j T 3.5...l h y.y.w.y.s.s.p.y.y.y.X.^ f.d.d.d.h.",
"s.a.a.z.p.s.l.p.h.h.p.k.d.-.-.a.%.m 8 U O.3.o.n g R O.5.} l k s.d.d.d.d.z.m.m.m.m.v.v.m.b.m.m.z.",
"<.' ' a./ } w.E 4.3.S w.d.9.9.d.-.D r R 5.6.5.Y z T 5.5...l h a.a.y.a.s.z.m.m.m.m.m.m.m.m.m.m.k.",
"4.[ ' d.( } w./ 4.4.) y.u.h.h.k.h.u.8.a.f.j.f.i.x n  .} ! z g >.*.} >.y.z.m.v.v.n.m.m.m.v.b.m.k.",
"9.a.a.x.a.d.l.a.j.j.y.k.e.z.z.z.z.z.z.z.z.z.z.j.b l l l j g d } ` { } p.c.d.{ ) <.c.m.y.) ) u.l.",
"a.m.m.m.m.m.m.m.m.m.m.b.e.l.l.l.z.z.z.z.l.z.l.h.b b R ! R z g 3.3.>.4.a.c.y.A v ] z.M.4.C C 4.z.",
"j.s.u.c.y.h.k.y.k.k.y.j.0.w.3.3.O.a.k.w.3.>.3.w.x T 5.5.} z z s.a.a.d.d.c.i.A C ) z.M.6.C C 4.v.",
"g.{ ` d.( *.y./ 3.4./ w.9.3.` ) ' y.k.3.' ` [ 6.x T ,.5...l z d.d.d.d.d.c.i.A C { c.M.4.C C 4.m.",
"q.[ ) a.S >.y.S 4.3.S y.9.w.=.3.3.y.l.y.3.3.>.w.x T ,.5.} l h 6.4.4.q.s.z.p.S Z ) z.M.4.C v 4.z.",
"0.a.u.x.y.d.z.y.h.j.u.j.0.k.h.k.h.k.l.k.h.j.h.d.x Y ,.5...l g } [ ' } p.z.z.q.q.a.b.M.k.w.q.k.k.",
"u.m.m.m.m.m.m.m.m.m.m.b.0.z.z.z.z.l.l.z.z.z.x.f.U ! 3.3...P c <.*.*.:.p.z.n.b.b.n.n.M.n.n.b.n.l.",
"e.d.d.x.a.j.z.a.k.k.a.k.0.s.a.y.p.f.l.s.p.p.p.a.} 6.0.9.0.4.9.e.q.r.q.t.x.j.:.*.7.c.M.a.:.:.s.j.",
"9.[ [ d./ o.y./ 6.4./ w.0.6.{ } } y.l.6.{ { } 8.>.r.r.e.e.e.r.r.e.e.r.t.x.w.A C ' z.M.6.C v 6.z.",
"a.) ) y.S { y.S 3.3.S q.9.4.' [ ' y.l.4.' ' ' 7.>.r.>.[ <.*.[ ;.%.[ 9.t.x.p.A Z ' x.M.1.C C 0.n.",
"k.y.y.l.y.a.k.q.d.d.y.j.0.p.7.8.8.d.l.a.q.8.w.a.:.r.&.T *.[ / :.' ( 2.t.z.i.A C ` x.M.6.C C 4.n.",
"d.M.M.m.M.M.m.M.m.m.M.n.0.z.z.z.z.z.z.z.z.z.z.k.:.r.;.( ;.{ ) ;.` ` 9.t.c.w.A Z ' z.M.6.C Z 6.z.",
"r.k.j.b.j.l.c.j.z.z.j.k.0.k.h.k.j.l.l.k.j.j.j.j.:.r.2.<.9.9.<.9.2.1.e.t.z.j.1.>.q.b.M.s.>.>.g.l.",
";.` ) d.E } y.S 3.3.E q.0.y.>.>.3.p.k.y.1.>.>.w.:.r.*./ *.[ E *.[ ( 2.t.z.m.m.m.M.m.m.m.m.m.m.l.",
";.` ` a./ } y./ 4.4.E w.9.4.` [ [ 8.l.4.[ [ ' 7.=.r.} S *.[ / -.` ( 2.t.z.j.1.>.q.c.M.g.:.:.s.l.",
"y.y.7.l.6.y.d.6.d.d.4.d.0.w.*.o.>.p.l.8.=.o.o.w.>.t.9.=.<.<.-.<.<.:.0.t.x.i.S Z ' x.M.6.C C 4.b.",
"z.m.m.m.m.m.m.m.m.m.m.b.0.k.j.j.j.l.l.l.j.j.j.f.*.w.4.;.2.9.<.9.2.<.e.t.c.t.A C ' x.M.6.C C 4.m.",
"l.k.l.c.k.l.z.k.l.z.k.z.0.l.z.z.l.z.l.l.z.k.z.j.>.r.-./ *.{ ( ;.` ) 2.t.x.w.A C ' z.M.6.C C 4.n.",
"4.[ [ d.( o.y.( 5.6./ w.0.a.y.w.w.d.l.s.w.w.w.a.>.r.*.T -.` / &.) ( 2.t.x.w.A C ` z.M.1.C C 4.l.",
";.` ) d.K } y.S 3.3.K w.0.4.[ [ [ w.l.6.[ [ { 8.*.r.1.*.2.2.*.9.<.-.e.t.z.j.:.:.6.b.M.g.*.*.a.l.",
"9.7.7.l.3.y.h.3.a.a.6.d.0.6.{ { { y.k.6.{ { } 8.:.r.r.r.r.t.t.r.r.t.r.t.z.n.n.n.n.m.m.m.n.n.n.l.",
"t.m.n.m.m.n.m.m.m.m.n.c.0.a.y.y.y.f.l.s.y.y.i.s.>.r.r.r.r.9.e.e.r.r.r.t.z.m.M.m.m.m.m.m.m.m.m.j.",
"h.m.m.m.m.m.m.m.m.m.m.b.q.l.z.l.l.z.l.l.z.l.z.f.=.r.r.r.9.[ ) >.r.r.r.t.z.m.m.m.m.m.m.m.m.m.m.z.",
"c.m.m.m.n.b.b.b.m.m.m.b.0.z.k.k.k.k.l.l.k.l.z.j.>.r.r.r.{ ( S ( 9.r.r.t.z.m.m.m.m.m.m.m.M.m.m.n.",
"z.m.m.n.6.} O.3.z.m.m.n.e.d.4.o.>.,.4.,.,.,.p.j.o.r.r.0.{ ( / E 2.r.r.t.l.m.m.m.m.m.M.m.m.m.m.n.",
"c.m.m.c.*./ [ { l.m.m.n.e.d.} [ { { >.' [ ' r.j.>.0.t.r.&.S E E 2.r.r.t.z.M.m.m.v.x.z.z.n.m.M.c.",
"z.m.m.c.o.S [ ) z.m.m.b.q.d.} { [ { *.{ { [ q.k.>.r.r.0.{ K E E 2.t.r.t.z.m.M.M.w./ ( ( i.m.m.b.",
"c.m.m.c.>.S [ ' l.m.m.b.e.d.} { { { } { { ' 8.k.>.r.r.0.*.( E E 9.r.r.t.z.m.m.M.6.v Z C q.m.m.n.",
"c.m.m.c.} W ` ` l.m.m.b.q.s.*.{ { { o.[ { ' 8.k.>.r.r.r.{ S E ( 2.t.r.t.l.m.m.M.6.v C Z q.m.m.v.",
"c.m.m.z.} K [ ' z.m.m.b.0.s.} { { } } { { ' q.j.:.r.r.r.{ E E S 2.r.r.r.z.m.m.M.6.C Z Z w.m.m.v."
};