/* XPM */
static char *result[] = {
/* columns rows colors chars-per-pixel */
"50 50 150 2 ",
"   c #171515",
".  c #191616",
"X  c #1D1A17",
"o  c #161719",
"O  c #191719",
"+  c #171A1A",
"@  c #1B1B1B",
"#  c #231718",
"$  c #241D1C",
"%  c #2B1C1C",
"&  c #301919",
"*  c #1B211E",
"=  c #292317",
"-  c #23231D",
";  c #2F2519",
":  c #33291D",
">  c #3C2C1A",
",  c #1D1E20",
"<  c #221F20",
"1  c #1D2322",
"2  c #1E2A24",
"3  c #232224",
"4  c #2A2725",
"5  c #212C24",
"6  c #2B2926",
"7  c #252629",
"8  c #29272B",
"9  c #262A2B",
"0  c #292A2D",
"q  c #352D24",
"w  c #322D2A",
"e  c #233126",
"r  c #243529",
"t  c #26392C",
"y  c #2A3C2C",
"u  c #36312D",
"i  c #3D332C",
"p  c #2C2D33",
"a  c #2F3235",
"s  c #2F333B",
"d  c #323335",
"f  c #3B3633",
"g  c #3E3836",
"h  c #31343B",
"j  c #39373B",
"k  c #363A3C",
"l  c #3A3B3D",
"z  c #40201F",
"x  c #433419",
"c  c #4B3A24",
"v  c #41372D",
"b  c #40392E",
"n  c #533924",
"m  c #5C3F25",
"M  c #433C34",
"N  c #413A38",
"B  c #6E2A2A",
"V  c #6C3B38",
"C  c #2D422D",
"Z  c #2F482E",
"A  c #32462C",
"S  c #334B2F",
"D  c #384F2F",
"F  c #2E4630",
"G  c #304730",
"H  c #354E30",
"J  c #384F30",
"K  c #375031",
"L  c #3A5231",
"P  c #3F5833",
"I  c #4D4435",
"U  c #46403C",
"Y  c #4B433E",
"T  c #415833",
"R  c #5C503D",
"E  c #694F25",
"W  c #644C2B",
"Q  c #6A4E2F",
"!  c #745723",
"~  c #765632",
"^  c #7A5732",
"/  c #333740",
"(  c #363A42",
")  c #3B3D45",
"_  c #3D3E48",
"`  c #3E4247",
"'  c #3E414B",
"]  c #454342",
"[  c #4C4642",
"{  c #41444E",
"}  c #4A474D",
"|  c #43494D",
" . c #4B4B4E",
".. c #554C46",
"X. c #504D48",
"o. c #444651",
"O. c #464955",
"+. c #4A4A57",
"@. c #4A4B59",
"#. c #534F54",
"$. c #4C5053",
"%. c #4F535D",
"&. c #525454",
"*. c #53525B",
"=. c #58565C",
"-. c #6B5C47",
";. c #6B5856",
":. c #545662",
">. c #5C5B64",
",. c #5C5E6A",
"<. c #586166",
"1. c #59646B",
"2. c #5D686E",
"3. c #646667",
"4. c #63646D",
"5. c #6C6D6F",
"6. c #656671",
"7. c #686672",
"8. c #6B6B74",
"9. c #6D6C78",
"0. c #6A767D",
"q. c #727475",
"w. c #75747B",
"e. c #9C7229",
"r. c #9C7530",
"t. c #827057",
"y. c #857E7A",
"u. c #B1832D",
"i. c #AD9573",
"p. c #B49C77",
"a. c #BFA67E",
"s. c #707E86",
"d. c #717E88",
"f. c #7E8285",
"g. c #7C8D96",
"h. c #828689",
"j. c #84888C",
"k. c #808F9A",
"l. c #95979C",
"z. c #969A9B",
"x. c #8499A4",
"c. c #889CA7",
"v. c #8B9EAB",
"b. c #9A9EA2",
"n. c #A0A4A7",
"m. c #A2A8AC",
"M. c #A3AEB8",
"N. c #D7BB8D",
"B. c #E7C893",
"V. c #B8BFC3",
/* pixels */
"H H D J J T D J K K F H K K K K K K K P P P H G H S H H K K K K H H K K S Z K K L P H A S S L D D H ",
"H K J L K L J J P K Z K K K Z H K K K K K P H H H F G G G K K H H K K H Z Z Z L P K S H K K K L L H ",
"H K L D H H H J P K K K K Z F H K L K K H F t 2 1 1 1 1 1 2 y F H H H G S K Z K L L P K H S D L T K ",
"K K D S A A A H K K K K K H H Z H H K H r , 7 ( +.*.*.&. .j 8 , 2 F H H S S S K L P K H S H D K T S ",
"K K Z Z S A Z K G G K P P H H G F C C 5 3 #.9.w.9.7.6.6.6.9.8.=.( < 2 A K H H H K K H S S L K P T K ",
"H K K Z H K L L H H K L H H y 2 1 7 3 0 >.9.,.@.+.+.O.O.+.@.:.,.7.>.h * t H H K H S A J H P K P K J ",
"K H K L L P L L J K L P H r , j >.7.4.4.>.O._ +.+.+.+.+.+.+.O.+.@.>.6.} 1 r H K K H S K K K S K S S ",
"K H K L L L L K K L P J 5 3 #.9.:.+.O.{ _ ( o.+.+.+.+.+.+.+.+.+.+.+.+.,.#.1 r H S S H K S K S H J D ",
"K H H P J H L J L P J 2 3 >.7.@.O.{ ( ( _ o.@.+.+.+.+.+.+.+.+.+.+.+.O.@.:.o.@ t H J L K H H H J H K ",
"H K H K J L L J J L r 3 >.7.@.+.+.@.@.+.+.@.@.+.+.+.+.+.+.+.+.+.O.O._ s ( { h , G K K H H Z H J J K ",
"K K H H L J L K H F , *.7.@.+.+.+.+.@.+.+.+.+.+.+.+.+.+.+.+.+.+.+.+.O._ < O < O 5 H H H Z F H J K K ",
"H K K K L L T K H 1 h 6.@.+.+.+.+.+.+.+.+.+.+.+.+.+.+.@.+.+.+.@.+.+.+.+.o.8 O O O y K J H Z S L P P ",
"H H T L J J J J y , =.:.+.O.+.+.+.@.+.+.+.@.+.+.+.+.+.+.+.+.+.+.+.+.+.+.+.o.9 , r r J H S D L L L L ",
"J K L L A H L H 2 h >.+.+.+.+.+.+.@.+.+.+.+.+.+.+.+.+.+.+.+.+.+.+.+.+.+.+.O.o.1 r H H H S S J K K P ",
"H H K P K K L H 1 +.%.+.+.+.+.+.+.+.+.+.+.+.+.+.+.+.+.+.+.+.+.+.+.+.+.+.+.+.+.h @ Z G Z S K S K J K ",
"H A H K K K K C 3 @.+.+.+.+.+.+.+.+.+.+.+.+.+.+.+.+.+.+.+.+.+.+.+.+.+.+.+.+.+.o., r H H K K K S H K ",
"Z H K K P K H r 8 +.O.+.+.+.+.+.+.+.+.+.+.+.+.+.+.+.+.+.+.+.+.+.+.+.+.+.+.+.+.@.p 1 H H D L K K K K ",
"A H T P K K H 5 p _ h +.+.+.+.+.+.+.+.+.+.+.+.+.+.+.+.+.+.+.+.+.+.+.+.+.+.+._ o.) , G H K S S K K K ",
"H H K K J H K 5 7 3 h +.+.+.+.+.+.+.+.+.+.+.+.+.+.+.+.+.+.+.+.+.+.+.+.O.+.+._ 8 ) 1 C J K K L K J H ",
"A Z A K K H K r O O h O.' O.+.+.+.+.+.+.+.+.+.+.+.+.+.+.+.+.+.+.+.+.O.O.+.+.( @ 0 @ y H S K K D J K ",
"H A K K P H K t O O p ' / _ O.O.' O.+.+.+.+.+.+.+.+.+.+.+.+.' +.+.O._ o.O._ h , @ X y K S S K D L K ",
"H H H H H H H F O O 0 / s s ' o./ / { +.+.{ _ +.+.+.+.+.+.{ / o.o.) h _ ) s h 3 . O C K S S S P L L ",
"H D H S H J H G t 1 9 s s s h / / p / _ O./ / { +.+.+.+._ / p ( / s s h s s h 3 . + G K L K K L J D ",
"J K K K L L K K G 1 3 s s s s s p / / s / / s / _ +.o.( / p / / s s s s s s s 3 @ 1 H K L S K L H S ",
"L P P H K K P K H e @ s s s s s s s s s s s s s / ( / s s s s s s s s s s s h $ r t S S K K L L K S ",
"K J K L K K L K H y @ p s s s s s s s s s s / s / / s s / s s s s s s s s s p + C P K K L P L L K P ",
"L K L K H K J A H H 2 , h s s s s s s s s s s s s s s s s s s s s s s s s s 7 * H K L P L L K K K T ",
"J H J H S G H H H P y + 9 s s a p s s s s s s s s s s s s s s s s a h h s p + t J P L L L L L K D H ",
"K K L K Z K H S H H H r + 8 s p , s p / s s s s s s s s s s s s p 7 s h p , 2 G H J H J K L K K H H ",
"H L P L K K K K H H H H 5 + 3 <   , p / s / s s s s s / s s / 7 @ 3 s 9 @ 2 Z K K K H A A S H S S S ",
"K L K L L L P K L J L H J t @ X.f   , p p / s / s s p / p / 7 O . , 1 + r H H K K K H Z H S H H H H ",
"H K H H P K K J H L K H L L 3 #.y.} O O , 7 s / p s / / p < , O . O 2 C K K K L L K H H K K H S S K ",
"H Z K K P K K K D K J J L L H e [ y.] > ! = 1 0 p p p < O   O @ 1 t H S Z K K K H H J K L H H S S L ",
"H H Z K K L K K P L K K L P K J 5 6 q e.u.; X . O @ < % & # O O y L L L K K Z K H K L J K J S D J L ",
"K Z Z K K K K H K K S D J L P G 1 X E r.x i Y -   % ;.V B z @ d 1 F L K K K H H H J S J K J D S S D ",
"H Z Z K S K S K K P L P L L P e 0 r E x - U ..4 d d $ $ $ $ + %.' 1 H K G H H H H H D D D D D D K H ",
"Z K S S H S K T P P K K H H y 7 0.O.. X u g g X f.3.  O d <.d ) s.9 t H H K K H H S K P J J D P L K ",
"H K S D J P T T D K S S H G 1 9.V.` k l - u 4 4 z.j 3 4 @ $.$.0 M.f.1 H H H L K P K P K K L J S K K ",
"H H K L K K P K K D S S K C + $.n.d l a 3 3 X } q.@ O d  .5 ] 9 l.3.o t K H P K H K K K K K K K K H ",
"G H K K K L K S S S A K K 2 i v 3 O @ &.m.w.@ #.d X  .b.h.3 3 * 1 i M 1 F H H H Z H H H S H P K K K ",
"S K H H K K A H H S K K C 4 i.p.i k z.V.j.j @ @ 0 5.w.} - 6 6 . M i.N.b r H H H G H H S S S S S S S ",
"S A S H K K H H J K J K y q N.B.I =.j.G < O.0.h 4 ] -   3 [ ..i q i.B.I r J H J K H S S L D S D S K ",
"A H H H H H H H H H H J S * -.a.I X 7 { d.c.v.k.O.@ < $ 6 N [ ..u R t.- C K J L S S K K K K S D S J ",
"K K H H H K H K K S H J K C * 4 X 9 2.g.x.x.c.v.x.1.0 @ 3 f g Y Y $ - y H L P L S S K H D K S J J S ",
"K H H Z H H H K K H H A S S H C r * 3 0 a ( ' | | | d 3   $ w f N 4 C S H L P K H K K K K A K K S S ",
"S H Z H H H H H H K A H D H K L L C X m W n > O 2 + = n m n $ - 3 2 A Z H P K K K L H K K H H K S S ",
"A A A H K K L H K K K K L K L P T A - c ~ ~ c * A 5 : Q ^ W - r Z H K A H K P L K K H K H J P K H S ",
"Z S K K L L H J L P K H J P L K D S A A A C A A H S A A A A C G S K H H K L L L H K K K H P K A H H ",
"S S K L L L L K L L L H H S K K K K L K J J H K K K K H H K K Z S H H H H K L L S K K L K D S S A H ",
"K K P L K K K K L H K K H K K K L T T L K L K K J J H H K K H H H H K H S K K K S K S S S A K K K K "
};
