/* XPM */
static char *_f5f27cb5d9c4232a59908dc65f0ba599TbUynYGmkTTRq6H[] = {
/* columns rows colors chars-per-pixel */
"50 50 176 2 ",
"   c #0B0B06",
".  c #0D0D0A",
"X  c #120E0A",
"o  c #0F100B",
"O  c #14120E",
"+  c #0E1215",
"@  c #0E161A",
"#  c #141413",
"$  c #191612",
"%  c #1C1A16",
"&  c #12171A",
"*  c #151A1D",
"=  c #1C1C1B",
"-  c #211E1A",
";  c #1F211E",
":  c #24221E",
">  c #2A271E",
",  c #171E24",
"<  c #1D1E21",
"1  c #181F29",
"2  c #1D2225",
"3  c #1D2329",
"4  c #242423",
"5  c #292622",
"6  c #262827",
"7  c #2B2A25",
"8  c #242629",
"9  c #25292B",
"0  c #2C2C2B",
"q  c #312E2A",
"w  c #2E302E",
"e  c #33312D",
"r  c #38352E",
"t  c #252B32",
"y  c #2B2E31",
"u  c #272E38",
"i  c #2D3134",
"p  c #2D343B",
"a  c #343433",
"s  c #393632",
"d  c #363835",
"f  c #3B3936",
"g  c #33363A",
"h  c #353A3D",
"j  c #3B3C3B",
"k  c #413E3A",
"l  c #413E35",
"z  c #3D413E",
"x  c #44423D",
"c  c #48453C",
"v  c #2E3643",
"b  c #363C42",
"n  c #3A3E43",
"m  c #353D4A",
"M  c #343740",
"N  c #3D4144",
"B  c #374049",
"V  c #3D434B",
"C  c #444443",
"Z  c #494642",
"A  c #464847",
"S  c #4B4945",
"D  c #43454B",
"F  c #454A4C",
"G  c #4C4C4B",
"H  c #49474A",
"J  c #514E46",
"K  c #514E4A",
"L  c #4F504C",
"P  c #54524D",
"I  c #59564E",
"U  c #444952",
"Y  c #4B4E52",
"T  c #444A5A",
"R  c #444750",
"E  c #475057",
"W  c #4D5254",
"Q  c #4C525B",
"!  c #555553",
"~  c #595652",
"^  c #575854",
"/  c #5C5A55",
"(  c #53565A",
")  c #55595C",
"_  c #5C5C5B",
"`  c #615C55",
"'  c #615E5A",
"]  c #5E605E",
"[  c #63625D",
"{  c #65625D",
"}  c #64625D",
"|  c #68655E",
" . c #4D5462",
".. c #565C63",
"X. c #5A5E63",
"o. c #585F6F",
"O. c #575D69",
"+. c #5E6265",
"@. c #5C636B",
"#. c #5C6371",
"$. c #666561",
"%. c #646463",
"&. c #696662",
"*. c #656867",
"=. c #6B6965",
"-. c #62656A",
";. c #666A6C",
":. c #6B6C6B",
">. c #706D68",
",. c #716E6A",
"<. c #716E65",
"1. c #6F706D",
"2. c #73726E",
"3. c #79756E",
"4. c #626772",
"5. c #656A73",
"6. c #6B6D72",
"7. c #676E78",
"8. c #6B6F79",
"9. c #706E71",
"0. c #6D7174",
"q. c #6D747B",
"w. c #747473",
"e. c #797672",
"r. c #767876",
"t. c #7C7A75",
"y. c #737679",
"u. c #767A7C",
"i. c #7B7C7C",
"p. c #817D77",
"a. c #817F7B",
"s. c #7E807F",
"d. c #82817D",
"f. c #6F7688",
"g. c #737780",
"h. c #747B83",
"j. c #7B7E82",
"k. c #767988",
"l. c #7A7F8A",
"z. c #7D8284",
"x. c #7D838B",
"c. c #7F8690",
"v. c #838483",
"b. c #898681",
"n. c #868887",
"m. c #8B8A85",
"M. c #83868B",
"N. c #85898D",
"B. c #8A8B8B",
"V. c #928D87",
"C. c #8C908F",
"Z. c #93928E",
"A. c #838790",
"S. c #868C94",
"D. c #898E93",
"F. c #828999",
"G. c #8F9193",
"H. c #8C919A",
"J. c #949494",
"K. c #989590",
"L. c #9B9B96",
"P. c #91969B",
"I. c #94999D",
"U. c #9C9C9C",
"Y. c #A09E9A",
"T. c #A5A39F",
"R. c #9397A0",
"E. c #999EA2",
"W. c #959CA2",
"Q. c #9DA3AC",
"!. c #ACABA9",
"~. c #A9A6A1",
"^. c #B1ADAA",
"/. c #A7AEB8",
"(. c #BDBDBD",
"). c #C3C3C3",
/* pixels */
"t.m.m.!.m.e % f Z.T.{ ' S l p.V.p.&.{ S f x k - ! _ ! G A ! ^ e ~ e.=.>.~ f $ G H 0 a 0 f j i # _ i.",
"b.d.t.a.Z.x % P ' / K K k c { =.3.3.p.e.t.d.{ s $.G j s f f C 0 $.>.{ { $.Z 4 / f a a a j j 4 0 r.%.",
"[ ~ [ $.~ q $ G / / G P x / / P P ` | =.>.{ f - j s a a d q 0 : x ! $.[ [ P 5 e f s 0 s s f 8 0 :._ ",
"> 7 5 s > - O : e s S Z q s / P / J k J P Z q 0 e q f a 5 a 0 $ 0 ! [ :.{ S # 4 0 e 0 s a a 4 # s C ",
"$ O O $ - 5 k q $ % 5 : % $ : r e f e q 5 5 5 7 4 4 5 : 0 5 # # # 7 x ! f e = # 4 : * # # * = 0 0 8 ",
"O 7 t.K.T.~.^.Y.K 7 - 5 c c S r 5 e k P / ~ P / P x x s e # # a f j P _ S G ! 0 4 # j S G ^ ^ :.! 0 ",
"e P 3.3.e.e.' 2.' q s S m.t.t.2.r 2.b.t.t.t.t.e.2.! 2.w.f d _ _ :.:.%.%.:.[ / ^ C j :.t.w.2.$._ :.C ",
"e Z | =.' | ~ / / % k b.b.b.Z =.c t.b.3.3.' ' e.e.2.*./ : H [ G $.[ %.:._ :.$./ C / $.:.:.%.[ ! _ z ",
"7 c | | | =.=.~ k % S &.=.>.~ q a t.&.$.&./ [ =.&./ _ C : S _ / %.:.^ %._ :.:._ C f %.w.%.:.&.! ! 8 ",
"r / / I ' | &.S q 5 q Z / >.{ x : | ' ~ / [ [ _ _ P G d O f ~ _ ) %._ Y %.2.2.^ j ! r._ _ :.:.! f 4 ",
"- l P c k P P s e 5 : s Z P G _ 5 7 G ! C f k j x C C f # q A G C G G ^ %.w.:.:.a G _ ^ _ _ ^ C y 0 ",
": > r e s f e - : $ $ % : 7 7 j 7 O 0 j a e e 7 0 e 0 4 $ 4 a j 9 a C f j f s s = s _ H f H j = 4 8 ",
"J c : % 5 X O O : 5 $ $ = O $ % e a 7 7 : $ % 0 f x s 0 f e e a f 5 4 5 # = = < C C 0 2 j # # # t 8 ",
"<.p.t.J q s 3.Y.b.=.f - k ! [ :.:.e.:./ S $ x :.e.e.&.' e.>.&.2.6.Y f %.G _ %.;.i.j.w.( j j ;.%.) G ",
"I ` t.[ 7 I a.e.d.b.e.a 7 K ! $./ / } P S : / [ ! / [ &.e.e.&.:.%._ H 9.:.w.y.+.6.y.H.-.y z.z.M.B.j.",
"| | =.{ - x t.e.,.2.2.K 7 x G S C G L ! S a G S P P $.2.&.2.[ %.:.X.g 6.0.i.i.;.i.M.N.) 8 y.M.j.j.i.",
"k ! ' P = e $.2.=.$._ j 7 S x S C C ! ^ G a Z G S ! ^ _ %.:._ w.:.;.i X.8.k.q.7.-.N.q.F = j.M.j.y.0.",
"5 q : % # # 7 f x e : 7 4 : q a e e a e : % a k e f f f f j N j j D & t T T m m p B p 3 + h D ) n h ",
"e % = C ! _ P w G $.J.T.Y.J.w./ j 5 4 x S G G G G 7 f %.%.:.! 2 z i h p v Q  .B t * i W ! ) g N ( W ",
"s 7 e =.>.t.&.^ t.2.Z.d.2.e._ / C H $.2.2.d.a.t.d.[ C w.%.s.%.d ( ) q.5.@.8.#. .h 3 u.B.z.j.+.j.j.u.",
"e 5 5 ~ G ! S x _ ! K _ ' [ { _ G x / ! { 2.>.=.&.:.j %._ :.C 4 n O.q.x.F.f.#. .p 2 z.z.q.) D 5.-.-.",
"5 : : Z P _ P 5 S ] ! ' $.:.:.Z e = k P { &.:.t.=.C j :.w.:.f 4 n V @.#.4.o. .m u 2 W q.y.) M X.+.X.",
"O : . O - = :   7 a j s d e 7 : x 0 5 > 5 5 a e 7 . 5 j C a 2 = g t t 3 , 1 3 , , @ 2 9 4 3 @ B D N ",
"' K s S 0 e $.:.$.C 0 = 4 : G m.!.L.t.d.>.Z a O x m.t.^ L a N 8 g p @ U m g 4.q.;.F W i F +.) ( n g ",
"' / &.P 5 %.Z.!.).).(.J.C f v.J.Z.d.t.d.m.Z.~ 0 Z.L.b.n.n.*.Y z.y.x.@.O.V l.H.A.j.D.Y W I.M.S.S.x.j.",
"P ! $.P 0 [ :.i.n.J.(.(.%.C :.:.r.e.t.t.b.m.[ a 1.2.t.d.n.B.A y.Q.Q./.h.V c.q.5.0.h.Y b g.l.M.R.H.S.",
"&.' &./ 4 ^ :.6.i.j.z.y.( f 0.v.;.r.t.v.i.d.w.d :.d.v.z.n.v.M.W u.D.I.N.D 0.i.u.r.w.h n 6.y.z.M.S.x.",
"/ &._ x 5 ^ 6.6.y.i.j.v.) g w.;.:.:.:.r.r.B.r.e %.r.s.v.:.1.:.z.-.( +.w.A w.:.:.:._ * C ;.y.j.j.N.z.",
"$.L C a 5 G y.j.j.j.N.j.F 9 :.0.u.w.z.r.i.G._ s H i.B.v.r.i.y.z.X.) +.n 4 y.r.-.A j 2 F 6.j.j.x.z.u.",
"f 0 5 * 4 i n X.y.-.( V * + 9 G X.-.( ) ;.] f 6 j G ! ] _ _ ) W Y 2 2 9 < w j 9 s # 4 b n Q q.( F j ",
"4 _ s.n.B.N.0.F i y 6.-.M.W -.X.V h 3 W :.;.;.) H C C 0 i 4 C F Y ! ) *.v.^ 4 %.n.n.M.z.z.( t i Y A ",
"C n.w.z.P.P.E.y.t -.A.z.H.@.j.I.q.V N X.W ! _ ) W ! %._ a *.G.C.J.H.B.z.i.w.z n.i.y.H.I.I.y.t y.i.w.",
") M.u.H.I.I.W.h.p h.S.x.h.E x.h.D.W N -.W W D G A ! G C j n.B.B.M.w.w.6.z.;.Y D.z.P.E.D.I.-.g i.:.&.",
"Q A.S.N.x.x.h.q.3 m 4.@.V u h.7.( b + i p N Y F H ^ j 5 5 ^ i.i.i.:.j.B.u.( ( S.h.q.6.6.;.D = f j s ",
"n Q Y F B h n i b t p 3 t i B B h ) h 3 8 9 i g j j f s G j 0 C f f n G D h b B n F h i 9 i a s 5 a ",
"6.q.y.x.j.q.0.) ..B u ..h.M.h.@.+.;.6.;.;.+.N.N.n.v.B.B.J.U.U.^ 0 G ! _ X.X.;.y.y.6.6.+.( Y Y 0 C ! ",
"4.6.y.5.5.4.-.h.4.E B 7.h.q.Q V W ) Y W W W J.B.N.J.U.!.(.!.B.C j _ ^ ! X.;.+.-.0.X.+._ _ _ ! 5 H S ",
"@.X.@.@.( D D -.7.t m @.4.@.Q @.X.W ( +.g n j.N.B.r.i.v.n.B.[ % 4 f C A ! +._ W ( ) C w a N 0 4 k j ",
"n g y N g 3 3 8 , 9 2 2 g n V n h n N i 9 y g A C j y a 5 5 j 4     o ; 5 5 0 4 8 0 = * 4 4 # = $ = ",
"4 g y 9 y n 8 8 h ( ( W h 9 h F D D i 2 A i 4 4 g H j f G x q C L P j 7 5 4 d 0 0 4 a 0 * 0 ~ G G C ",
"g n g n U ( Y 8 R S.S.h.8.D 6.D.z.u.w.-.) %.C s C f ~ _ $./ 0 &.d.t.e.P 4 e f s a f C a = P &.&./ / ",
"g n b h n D V y X.6.5...O.D 5.6.;.w.j.j.B.v.j 0 f s a s a s 7 ! | =.| _ = a s a s a f 0 % ~ &.~ G G ",
"0 a g y j n i & N ! +.;.+.G ;.+.:.-.! %.:.A 5 a s f j f 5 5 O x _ =.&.P = $ 7 e 4 7 e : O 5 e S P Z ",
". = < 2 < = 4 9 0 = 9 g y * i A C C j j a 5 e 0 5 7 $ = O X % % a Z x 7 0 . O O : - : 4 f a = 7 % : ",
"j y = Y -.;.0.y.D.( N y D @.) ( s j :.:.:.:.:.:.P / $.k : e ~ ` / >.' / { S e q =.>.,.:.*.=.C s x K ",
"-.( b w.v.j.i.6.6.6.y F j.j.( u.G i.U.n.v.w.e.w.e.:.a.s f ' ~ 2.| &.&.=.{ / Z Z =.e.*.{ ! ' s s &.[ ",
"-.! N ;.0.w.y.-.-.( 4 -.6.u.-.F C z.v.i.r.^ %.e.:.:.S % Z / ~ =.&.P [ &.>.' x c { =.{ &./ G 5 k [ { ",
"6.Y C ;.w.6.y.y._ s y W +.w.y.( 0 0.w.%.$.$.%.&./ / s $ e P ' / ' P { >.3.{ f P >./ { &.~ f 5 e S P ",
"%.G s %._ ( ) +.C a 9 a C ( %.-.n 0 X._ H C x C x f q $ 7 x Z f c S K / P P : k ~ Z S ! s 4 4 : e s ",
"a 0 4 C A C D j , < < 4 5 8 y j a & a f s 0 0 4 e 5 % - > e q 7 : 5 $ O $ % 7 q 4 5 4 =   * 5 # # # "
};
